<svg xmlns="http://www.w3.org/2000/svg" width="36.793" height="36.793" viewBox="0 0 36.793 36.793"><path fill="#FFD820" stroke="#1E100D" stroke-width="2" stroke-miterlimit="10" d="M35.793 31.54a4.253 4.253 0 0 1-4.254 4.254H5.254A4.255 4.255 0 0 1 1 31.54V5.254A4.253 4.253 0 0 1 5.252 1H31.54a4.254 4.254 0 0 1 4.254 4.254V31.54z"/><linearGradient id="a" gradientUnits="userSpaceOnUse" x1="309.852" y1="-163.265" x2="342.154" y2="-195.568" gradientTransform="matrix(1 0 0 -1 -307.606 -161.02)"><stop offset="0" stop-color="#fff" stop-opacity=".3"/><stop offset="1" stop-color="#ffd820" stop-opacity="0"/></linearGradient><path fill="url(#a)" d="M35.793 31.54a4.253 4.253 0 0 1-4.254 4.254H5.254A4.255 4.255 0 0 1 1 31.54V5.254A4.253 4.253 0 0 1 5.252 1H31.54a4.254 4.254 0 0 1 4.254 4.254V31.54z"/><path fill="none" stroke="#1E100D" stroke-width="2" stroke-miterlimit="10" d="M35.793 31.54a4.253 4.253 0 0 1-4.254 4.254H5.254A4.255 4.255 0 0 1 1 31.54V5.254A4.253 4.253 0 0 1 5.252 1H31.54a4.254 4.254 0 0 1 4.254 4.254V31.54z"/><path d="M33.043 10.32a16.855 16.855 0 0 0-6.156-6.155c-2.594-1.513-5.42-2.269-8.49-2.269-3.068 0-5.899.756-8.491 2.269a16.852 16.852 0 0 0-6.155 6.155c-1.513 2.592-2.269 5.422-2.269 8.491 0 3.685 1.076 7 3.226 9.943 2.151 2.943 4.93 4.981 8.336 6.11.396.074.69.023.88-.152a.864.864 0 0 0 .287-.661l-.011-1.189c-.008-.748-.012-1.401-.012-1.96l-.505.088c-.324.06-.731.086-1.222.078a9.42 9.42 0 0 1-1.531-.156 3.406 3.406 0 0 1-1.476-.659 2.792 2.792 0 0 1-.969-1.354l-.22-.508c-.146-.338-.378-.711-.693-1.123-.316-.411-.636-.689-.958-.838l-.155-.11a1.576 1.576 0 0 1-.286-.265 1.194 1.194 0 0 1-.198-.308c-.044-.104-.008-.188.109-.253.117-.067.331-.1.639-.1l.44.065c.294.06.658.235 1.091.528a3.57 3.57 0 0 1 1.068 1.146c.338.603.744 1.06 1.222 1.377.478.315.958.472 1.442.472s.903-.036 1.255-.109c.353-.073.683-.184.991-.33.133-.984.493-1.74 1.079-2.269a15.212 15.212 0 0 1-2.257-.397 8.899 8.899 0 0 1-2.07-.859 5.937 5.937 0 0 1-1.774-1.474c-.469-.588-.855-1.359-1.155-2.313-.301-.956-.451-2.058-.451-3.304 0-1.777.58-3.29 1.74-4.538-.543-1.334-.491-2.83.156-4.49.425-.133 1.057-.032 1.894.297.837.33 1.449.614 1.838.848.39.234.701.434.936.595 1.366-.381 2.776-.572 4.229-.572s2.861.191 4.23.572l.836-.529c.57-.352 1.246-.674 2.025-.969.777-.293 1.371-.373 1.785-.242.66 1.66.719 3.156.176 4.494 1.16 1.247 1.74 2.76 1.74 4.537 0 1.246-.152 2.352-.453 3.313-.301.963-.689 1.733-1.166 2.313a6.167 6.167 0 0 1-1.785 1.465 8.894 8.894 0 0 1-2.07.858c-.668.177-1.42.309-2.258.397.764.661 1.146 1.703 1.146 3.127v4.647c0 .264.092.484.275.66s.473.228.869.153c3.408-1.13 6.186-3.167 8.336-6.111 2.15-2.943 3.227-6.258 3.227-9.943.001-3.067-.757-5.897-2.267-8.489zm0 0"/></svg>