<svg xmlns="http://www.w3.org/2000/svg" width="57" height="57" viewBox="0 0 57 57"><path fill="#1E100D" d="M0 0v57h57V0H0zm54 54H3V3h51v51z"/><g fill="#1E100D"><path d="M18.577 27.984l.043-.001v-.02a.087.087 0 0 1-.043.021z"/><path d="M28.538 41.123c.896.003 1.79 0 2.685.001.215 0 .43.008.625-.104-.312-.558-.591-1.135-.938-1.666a976.06 976.06 0 0 0-5.634-8.498c-.243-.362-.183-.451.189-.616 1.336-.595 2.459-1.451 3.135-2.793.199-.396.361-.814.542-1.222.045-.284.076-.573.254-.815-.078-.23-.014-.461.006-.689.086-1.018.076-2.026-.219-3.016-.014.066-.021.133-.033.199-.017-.236-.309-.432-.104-.695-.41-1.236-1.021-2.324-2.188-3.012-.149-.088-.279-.206-.419-.311l-.937-.457-1.1-.369-1.307-.246c-.061-.008-.119-.016-.18-.022l-.528-.015-.13.042c-.696.177-1.404.046-2.105.077-.441.02-.885.002-1.327.002l-.861.002c-.78.146-1.571.134-2.356.098-.515-.023-.672.135-.67.66.018 5.311.011 10.621.012 15.932 0 2.513.002 5.022.003 7.535.966 0 1.932-.019 2.896.01.424.013.557-.129.554-.552-.017-2.771-.01-5.543-.005-8.313 0-.207-.068-.435.115-.609l.006.007-.014-.116c.785-.257 1.592-.053 2.386-.107.247-.019.515-.014.626.291.127.072.236.158.229.324.393.683.86 1.315 1.186 2.033.189.186.27.43.35.67.063.062.143.106.186.18.726 1.211 1.43 2.438 2.174 3.64.484.78.902 1.606 1.478 2.333.438.272.934.206 1.418.207zm-5.187-13.554c-.216.307-.563.245-.865.305l-.105.032.186.153c-.159.072-.297.039-.412-.09-.137.014-.272.025-.409.038a.394.394 0 0 1-.037.074c.036.005.071.008.106.015.046.012.098.084.072.082-1.127-.025-2.26.165-3.379-.094l.021-.01v-.016l-.02.025c-.155-.141-.113-.33-.113-.503-.002-2.245-.002-4.492 0-6.737 0-.174-.042-.363.132-.493.033 0 .066.004.099.013l.955-.016c.681-.043 1.362-.074 2.042-.004 1.862-.033 3.487 1.055 3.819 2.701.035.174.035.354.052.53.065.321.065.643.003.964.024.201.02.396-.083.578l-.035.173c-.287 1.269-1.024 2.097-2.029 2.28zM18.843 16.81l-.021-.007-.002.007h.023zm4.072-.021a.957.957 0 0 0 .068-.042.297.297 0 0 0-.068.042zm19.918.011c-.063.03-.123.077-.188.087-.064.011-.135-.019-.201-.028.037-.109.146-.051.214-.088a37.9 37.9 0 0 1-.46-.102c-.04.014-.084.025-.125.038-.416.13-.863.131-1.281.003l-.001-.051c-.569.13-1.157.199-1.692.453a5.152 5.152 0 0 0-2.279 2.066c-.039.065-.076.131-.113.196-.488.952-.748 1.978-.965 3.017-.006.07-.012.143-.021.215.008.143.012.286.018.43.199.475.076.959.033 1.441-.002.03-.004.061-.004.091-.002.001-.002.003-.006.004l-.002.032-.001-.029c-.041.055-.126-.006-.062.016.025.009.041.002.049-.021.003-.019.005-.037.01-.058-.016-.317-.025-.635-.043-.953-.004-.001-.009-.003-.016-.003l-.059.066c-.046.371.157.771-.127 1.117-.212.006-.426-.001-.637.021-.465.051-.952-.133-1.402.113l.004 2.884c.441.297.965.058 1.428.208l.718.023.106-.002c.178.201.105.448.105.674.005 4.334.005 8.633.006 13.006h3.549c0-4.373 0-8.677.006-13.014 0-.223-.08-.473.121-.663v-.001c.035 0 .068.004.104.013.697-.028 1.396-.043 2.094-.092.311-.021.646.103.928-.138l-.027.008-.026-.012c-.157-.928-.026-1.863-.073-2.794-.781 0-1.564.001-2.347-.003-.188-.002-.394.047-.558-.106v-.106c-.078-.467-.049-.934.002-1.4-.006-1.52.516-2.865 2.063-3.219-.056-.024-.13.002-.177-.042-.003.001-.008.001-.01.004.002-.003.007-.003.01-.004a.067.067 0 0 1-.027-.039l.291-.04c.217-.153.432-.153.646 0v-.068h.4c.002.151.004.084.008.108-.021.005-.041.026-.062.032a.161.161 0 0 1 .021.032c-.008-.011-.02-.011-.027-.018a4.27 4.27 0 0 0-.162.042c.17.047.348.08.507.148.404.173.537.046.522-.383-.022-.744-.041-1.494.006-2.236.031-.602-.266-.817-.788-.875zM14.845 41.034v.089l.057-.001a.37.37 0 0 1-.057-.088zm.307-24.15c-.06-.002-.104.024-.164.024l.013.026c-.054 0-.063-.036-.213-.027v.25c.15-.156.181-.235.364-.273z"/><path d="M17.317 16.813c-.709.163-1.425.077-2.139.071-.184.038-.285.117-.338.273l.004 23.877c.015.028.033.062.057.088h.05c-.001-2.513-.003-5.022-.003-7.535-.001-5.311.006-10.621-.012-15.932-.002-.525.155-.684.67-.66.785.036 1.576.049 2.356-.098l.001-.088c-.216.001-.431.004-.646.004zM14.78 41.061a.614.614 0 0 1-.056-.108c-.001.057-.003.114-.003.174.039.033.079.063.119.097l.004-.091a.15.15 0 0 1-.064-.072zm.06-24.154a.254.254 0 0 0-.087-.002c-.001.049-.004.098-.006.146a.645.645 0 0 1 .093-.144z"/><path d="M14.733 17.55c-.002 7.607-.001 15.216-.002 22.821 0 .191-.004.386-.007.579a.65.65 0 0 0 .056.108c.017.037.039.028.064.041v-.037h-.057v-.028c0-.156-.028-.332-.028-.501-.003-7.637-.016-15.273-.012-22.909 0-.204.04-.355.04-.467v-.25c0 .047-.043.094-.066.145-.006.166.012.332.012.498z"/><path d="M14.788 17.624c-.002 7.636-.001 15.272 0 22.909 0 .169-.018.345.057.501l-.004-23.877c-.039.112-.053.263-.053.467zm2.678 23.661c-.645 0-1.289.001-1.932-.001-.215-.002-.434.012-.615-.138l-.01-.015a.082.082 0 0 1-.049 0c.023.021.03.038.02.056-.014.021-.026.03-.039.03a2.5 2.5 0 0 1 .133.103c1.131-.002 2.26-.004 3.391-.004l.127-.096v-.193c-.098.255-.354.258-1.026.258z"/><path d="M14.909 41.134c.003.005.006.011.01.015.182.147.4.136.615.138.643.002 1.287.001 1.932.001.672 0 .928-.003 1.025-.258.005-3.122.013-6.247.02-9.371-.184.177-.115.402-.115.609-.005 2.771-.012 5.541.005 8.313.003.423-.13.563-.554.552-.964-.025-1.93-.01-2.896-.01a.2.2 0 0 1-.042.011z"/><path d="M14.845 41.123c.006.004.012.007.016.011a.082.082 0 0 0 .049 0 .05.05 0 0 1-.008-.012l-.057.001z"/><path d="M14.901 41.122a.05.05 0 0 0 .008.012.166.166 0 0 0 .042-.012h-.05zm-.021.066c.011-.017.004-.035-.02-.055-.006 0-.011-.002-.016-.004l-.004.09c.014.002.026-.011.04-.031z"/><path d="M14.845 41.123v.004c.005.005.01.007.016.007l-.016-.011zm24.703-.204c0 .243.052.501-.086.728l-.002.052.056.073h.08c.002-4.358.006-8.717.01-13.078 0-.196.008-.394.013-.591a.246.246 0 0 1 0-.101.273.273 0 0 0-.063.19c-.006 4.244-.003 8.485-.008 12.727z"/><path d="M39.516 27.989c-.007 4.274-.012 8.547-.021 12.819 0 .278-.021.559-.033.836.138-.227.086-.482.086-.728.005-4.242.002-8.483.003-12.727a.287.287 0 0 1 .065-.19.556.556 0 0 0-.1-.01zM18.565 41.105a.47.47 0 0 1-.074.115h.037l.039-.003h-.002v-.112zm.018-9.448l-.013-.001-.053.007-.006-.007a.504.504 0 0 1 .051.076.7.7 0 0 1 .021-.075zm-.027 2.095a383.778 383.778 0 0 0-.002 3.219l.002-3.219z"/><path d="M18.556 39.091l-.001 1.132c-.002.401-.003.65-.063.807v.193a.446.446 0 0 0 .074-.117c-.005-.671-.008-1.343-.01-2.015z"/><path d="M18.555 40.223l.001-1.132c-.002-.707-.003-1.414-.002-2.12-.003-1.072-.004-2.146.002-3.219 0-.638.001-1.277-.001-1.916a.402.402 0 0 1 .007-.104c-.014-.024-.029-.051-.051-.076l-.02 9.371c.061-.154.062-.403.064-.804zm.045-8.386c.028.125.006.259.006.388.004 2.791.004 5.582.001 8.375v-.02c.007-2.93.011-5.854.015-8.782l-.014.019c-.004.006-.005.013-.008.02zm-.035 9.268v.112h.002c.002-.045.006-.092.01-.139-.003.01-.008.019-.012.027z"/><path d="M18.583 31.657a.921.921 0 0 0-.021.075.37.37 0 0 1 .038.104l.008-.021.014-.019v-.138l-.039-.001zm.017.18a.72.72 0 0 0-.025.07c-.01.614-.015 1.229-.019 1.845l-.002 3.219c.002.706.002 1.413.002 2.12.002.671.005 1.343.01 2.015l.012-.022c.013-.16.027-.321.029-.481.003-2.791.003-5.584-.001-8.375-.001-.132.022-.266-.006-.391z"/><path d="M18.6 31.837a.433.433 0 0 0-.038-.104.459.459 0 0 0-.007.104c.002.64.001 1.278.001 1.916.004-.612.009-1.229.019-1.845l.025-.071zm8.973 9.416a.864.864 0 0 1-.458-.345l-.001.115.309.229c.05.002.099.002.15.001zm4.073-.028c.065-.002.131-.002.194-.002l.005-.203a.398.398 0 0 1-.199.205z"/><path d="M27.573 41.253c1.358-.01 2.716-.021 4.074-.028a.406.406 0 0 0 .199-.205c-.195.112-.41.104-.625.104-.895-.001-1.789.002-2.684-.001-.484-.001-.98.064-1.422-.215.125.172.271.29.458.345zm4.273.06a.356.356 0 0 0-.003-.092.335.335 0 0 1-.108.074c.036.005.074.01.111.018z"/><path d="M27.573 41.253l-.15.001.181.01-.031-.011zm2.531.029c-.586 0-1.17.002-1.755.004.583.01 1.169 0 1.755-.004zm1.207 0c-.158.002-.315 0-.476 0l.319.004c.191.004.387-.015.578.01a.466.466 0 0 0 .108-.073c-.063 0-.129 0-.194.002a.767.767 0 0 1-.335.057z"/><path d="M27.604 41.264c.247.012.495.021.743.022.585-.002 1.17-.004 1.756-.004h.73c.158 0 .314.002.477 0a.773.773 0 0 0 .338-.06c-1.358.01-2.716.021-4.074.028.01.007.019.011.03.014zm4.084.049h.158a.803.803 0 0 0-.111-.018c-.017.008-.033.016-.047.018z"/><path d="M28.347 41.286c-.172.002-.344 0-.515.002a.97.97 0 0 1-.228-.024 5.338 5.338 0 0 1-.181-.01c.081.027.163.079.244.079 1.34-.002 2.681-.013 4.021-.021.017-.004.03-.012.047-.019-.191-.022-.387-.006-.577-.01l-.32-.005h-.731c-.589.008-1.175.018-1.76.008z"/><path d="M30.104 41.282h.731a89.06 89.06 0 0 0-.731 0zm-1.757.004a45.727 45.727 0 0 1-.743-.022c.07.019.145.025.228.024.171-.002.343 0 .515-.002zm7.549.532h-.063v-.028c.063.021.131.028.199.038.432.008.86.003 1.293.004-.423-.001-.847.018-1.269.005-.054-.001-.109-.019-.16-.019zm3.56-.018c-.021-.007-.041.019-.062.019h-.058c-.063 0-.129.021-.198.021-.471.01-.938-.001-1.406.001.522-.001 1.047-.013 1.57-.016a.293.293 0 0 1 .174.046c.008-.034.021-.055.039-.085-.02.011-.038.025-.059.014z"/><path d="M36.061 41.809c.422.012.847.017 1.269.019h.403c.47 0 .938-.007 1.406-.017.07 0 .139-.018.199-.05l-3.439.005a.38.38 0 0 0 .162.043z"/><path d="M37.73 41.825h-.403c-.433 0-.861-.003-1.293-.011a1.383 1.383 0 0 1-.199-.051.473.473 0 0 0-.065.004l-.028.012-.032-.004.129.117h3.555a.107.107 0 0 1 .086-.025.278.278 0 0 0-.174-.049c-.527.004-1.05.007-1.576.007zm-.403 0h.403-.403zm-14.94-25.051c-.012-.024-.022-.05-.032-.076-.033.014-.067.023-.101.035a.42.42 0 0 1 .133.041z"/><path d="M21.184 16.785c-.771.014-1.543.005-2.314.005-.015.002-.03.002-.046.002l-.002.011.021.007c1.139.003 2.275.006 3.414.007l.13-.042a.42.42 0 0 0-.133-.041c-.349.115-.714.046-1.07.051zm-2.356-.05c1.122-.004 2.245.012 3.368-.008.02 0 .039.004.058.006.034-.012.067-.021.101-.035l-3.526.004-.001.033z"/><path d="M18.823 16.792c.016 0 .031 0 .046-.002.771 0 1.543.009 2.314-.005.356-.005.722.063 1.07-.052-.019-.002-.038-.006-.058-.006-1.123.02-2.246.004-3.368.008v.035l-.004.022zm23.395 8.051c.081.005.16-.066.234.085h.063c.021 0 .047-.034.068-.038.021-.008.039-.021.061-.011-.015-.034-.025-.074-.039-.108a.29.29 0 0 1-.183.063c-.067-.001-.136.01-.204.009zm-1.075-.031c-.264 0-.524 0-.787-.003.259.022.522.012.787.003zm.918.001c-.088-.002-.174-.002-.263-.002h.035c.074.007.149.004.228.002z"/><path d="M42.218 24.813h-.157c-.076.002-.151.005-.228-.002h-.035c-.219 0-.438-.016-.655-.016-.265.009-.525-.02-.787-.02h-.646c-.033 0-.066 0-.104.002v.097c.949.001 1.897-.001 2.849.001a.676.676 0 0 0-.237-.062z"/><path d="M39.938 24.738c.14.035.276.06.418.07.263.003.523.003.787.003.219-.008.438-.014.655 0 .089 0 .175 0 .263.002.053-.002.105-.002.157 0 .068.002.138.002.206.002a.278.278 0 0 0 .182-.053.182.182 0 0 1-.096-.023l-2.572-.001zm.416.038h-.565.565z"/><path d="M41.798 24.812a6.505 6.505 0 0 0-.655 0h.655zm.263.001h.157a4.109 4.109 0 0 0-.157 0zm.53.189c.152.292.072.612.077.918.01.586.027 1.171-.016 1.757l-.019.106.04.01h.04l.009-2.918c-.027-.001-.056-.007-.08-.007-.021.014-.037.021-.058.033.005.036.005.066.007.101z"/><path d="M42.668 25.92c-.005-.306.075-.626-.077-.918.052.922.049 1.846-.008 2.767l.026.012.027-.008.018-.096c.041-.586.024-1.171.014-1.757zm-.083-1.059l.002.038.058-.035a.074.074 0 0 0-.06-.003zm-27.5-8.053l-.084.074c.104-.039.208-.065.313-.087l-.229.013z"/><path d="M15.179 16.884c.096-.021.213-.032.358-.035.593-.016 1.187.012 1.776-.036l-.18-.032a.622.622 0 0 1-.096-.008c-.373.002-.747.005-1.12.009l-.54.011-.064.003c-.106.021-.211.05-.313.087.061-.003.12-.001.179.001z"/><path d="M17.317 16.813h-.004c-.59.048-1.184.021-1.776.036-.12 0-.24.012-.358.035.714.006 1.429.092 2.138-.071zm-.279-.041a.622.622 0 0 0 .096.008l-.041-.008h-.055zm12.078 4.981c.03-.004.026-.054.063-.051a.951.951 0 0 0-.138-.496c-.042.19.085.359.075.547z"/><path d="M29.146 21.901c.013-.066.021-.133.033-.199-.037-.003-.033.047-.063.051.01-.188-.118-.356-.072-.547-.203.264.089.459.102.695zm12.648-1.847c.022.023.047.048.071.07h.433l.07-.07a1.162 1.162 0 0 0-.574 0z"/><path d="M42.368 20.054l.036-.033v-.002c-.217-.153-.432-.153-.646 0 .012.013.021.023.035.035.191-.047.385-.048.575 0zm.299.019a.195.195 0 0 1 .076.035h.009c-.029-.035-.059-.042-.085-.035zm0 0c-.082-.014-.174.02-.254-.01l-.035-.008a.229.229 0 0 1-.08.068c.095.008.188.017.284.023a.23.23 0 0 1 .085-.073z"/><path d="M42.667 20.073a.224.224 0 0 0-.085.074c.055-.012.109-.025.162-.039a.216.216 0 0 0-.077-.035z"/><path d="M42.413 20.063c.081.029.172-.004.254.01.026-.007.056 0 .085.035.02-.006.039-.045.061-.05-.004-.024-.006.043-.008-.108h-.4v.035l-.024.053c.01.004.019.024.032.025zm-.035-.007c-.004 0-.006 0-.01-.002l-.07.07a.261.261 0 0 0 .08-.068z"/><path d="M42.378 20.056c.009-.011.021-.021.026-.035l-.036.033c.004.002.006.002.01.002zm-.594 0l-.015.003c-.017.003-.033.005-.049.009-.06.016-.121-.004-.181.009.05-.011.092.015.13.063l.191-.016a.272.272 0 0 1-.076-.068z"/><path d="M41.542 20.076c.058-.013.121.007.181-.009.016-.004.032-.006.049-.009l.015-.003c-.009-.012-.021-.021-.024-.037l-.291.04a.093.093 0 0 0 .026.039c.016-.009.027-.018.044-.021z"/><path d="M41.542 20.076l-.002.001a.127.127 0 0 0-.044.021c.047.044.121.018.177.042-.039-.049-.081-.075-.131-.064zm.242-.02a.214.214 0 0 0 .081.068 1.172 1.172 0 0 1-.071-.07c-.004.002-.006.002-.01.002z"/><path d="M41.794 20.054c-.013-.012-.024-.022-.035-.035.007.016.019.025.025.037.004 0 .006 0 .01-.002zm1.039-3.254l-.177-.029c.032.163.115.037.177.029z"/><path d="M42.441 16.858c.066.01.137.039.201.028.065-.01.127-.057.188-.087-.063.008-.146.134-.179-.029-.064.038-.171-.021-.21.088zM18.528 27.987c-.047-2.545-.043-5.09-.002-7.636-.174.13-.132.319-.132.493-.002 2.245-.002 4.492 0 6.737 0 .173-.042.362.113.503a.243.243 0 0 1 .02-.025.577.577 0 0 1 .001-.072zm0 0l.049-.003c-.016.003-.033.004-.049.003z"/><path d="M18.567 20.474a.273.273 0 0 1 .058-.109.329.329 0 0 0-.099-.013c.018.04.03.082.041.122zm.053 7.359l-.015-.032v.003c0 .061-.01.121-.028.181a.087.087 0 0 0 .043-.021v-.131z"/><path d="M18.608 20.985c-.002 2.271.003 4.543-.003 6.815l.015.032c.001-2.456.001-4.916.003-7.373-.002-.031 0-.064.001-.096a.302.302 0 0 0-.058.109c.045.17.042.341.042.513zm-.08 7.002c.019 0 .009 0 .024-.003.019-.06.005-.12.005-.181V27.8c0-.184-.024-.384-.025-.576-.002-2.224.007-4.448.013-6.671-.001-.027.009-.054.017-.08-.012-.04-.022-.082-.039-.122a218.4 218.4 0 0 0 .005 7.636z"/><path d="M18.608 20.985c0-.172.003-.344-.041-.512a.309.309 0 0 0-.011.08c-.004 2.223-.002 4.447.001 6.671 0 .192-.027.393.048.576.006-2.272.001-4.543.003-6.815zm-.101 7.1c1.119.259 2.252.068 3.379.094.025.002-.026-.07-.072-.082-.035-.007-.07-.01-.106-.015l-3.18-.007-.021.01zm.492-11.255c-.054.003-.105-.045-.156-.045h-.023c.002 0 .004.069.005.099.442 0 .886.021 1.327.003.701-.03 1.409.097 2.105-.08-1.085.061-2.172.006-3.258.023z"/><path d="M18.999 16.843c1.086-.016 2.173.035 3.258-.026-1.139-.001-2.275-.004-3.414-.007a.337.337 0 0 0 .156.033zm2.146 14.785l.183.021a.8.8 0 0 1 .188.08c-.111-.305-.379-.309-.626-.291-.794.058-1.601-.146-2.386.108.879.044 1.766-.11 2.641.082z"/><path d="M21.145 31.628c.017.005.034.008.051.011.075.036.149.074.226.112a.427.427 0 0 0 .094-.021.624.624 0 0 0-.188-.08c-.061-.009-.122-.014-.183-.022zm.317-3.577c.082.011.164.019.246.031a.465.465 0 0 0 .037-.074.394.394 0 0 1-.193.044l-.09-.001zm-2.535-.036c-.059-.01-.116-.07-.17-.07h-.041l-.047.027-.049.005c-.015 0-.029.004-.043.005l-.006.021-.044.056v.012-.002c.133-.019.266-.043.4-.054z"/><path d="M20.15 27.968c.437 0 .874.027 1.312.083l.089.001a.37.37 0 0 0 .193-.044l-.137-.046-1.457.006zm-1.393.005a.568.568 0 0 0 .17.057c.383-.039.767-.06 1.149-.062l-1.319.005zm-.18.011l-.049.003a.865.865 0 0 0-.001.072l.044-.055.006-.02z"/><path d="M19.265 28.04c-.112-.003-.229.006-.338-.011-.133.013-.267.028-.399.046l3.18.007c-.082-.013-.164-.021-.246-.031-.733-.021-1.465-.001-2.197-.011z"/><path d="M18.927 28.029c.109.017.226.008.338.011.732.01 1.465-.01 2.197.011a10.457 10.457 0 0 0-1.312-.083h-.074c-.384.002-.767.022-1.149.061zm-.327 3.614c.05-.021.093-.014.13.022l.109-.001a.354.354 0 0 1 .092-.039 3.658 3.658 0 0 1-.428-.078l.014.116c.027-.033.054-.041.083-.02z"/><path d="M18.667 31.652l.045.013h.018c-.037-.036-.08-.044-.13-.022.007.004.015.01.022.02l.045-.011zm-.084.005l.004-.013.013-.004c-.028-.021-.056-.013-.083.021l.053-.009.013.005z"/><path d="M18.6 31.643c-.005 0-.009 0-.013.004l-.004.013.039.003a.043.043 0 0 0-.022-.02zm1.422.007l.741-.008c-.246-.003-.493.004-.741.008zm-.908-.007c-.037.008-.077.012-.116.021l.44-.006-.324-.015z"/><path d="M19.114 31.643c-.061-.004-.121-.011-.184-.018a.354.354 0 0 0-.092.039l.16-.001c.04-.011.079-.015.116-.02zm1.352-.054a5.261 5.261 0 0 0-1.115.017c.372-.006.744-.021 1.115-.017z"/><path d="M19.054 31.605c.1 0 .198 0 .297-.002.37-.046.744-.051 1.115-.017.227.002.453.015.679.039-.875-.192-1.762-.038-2.642-.081.143.036.285.063.428.078a.493.493 0 0 1 .123-.017z"/><path d="M19.438 31.657l.584-.007c.247-.006.494-.015.741-.008h.108a4.659 4.659 0 0 0-.406-.056c-.371-.004-.743.013-1.115.017a3.743 3.743 0 0 0-.236.039c.108.006.217.012.324.015z"/><path d="M21.195 31.639c-.017-.003-.034-.006-.051-.011a7.006 7.006 0 0 0-.679-.039c.137.013.271.029.406.054l.324-.004zm-1.844-.035c-.099.002-.197.002-.297.002a.397.397 0 0 0-.123.021c.063.007.123.015.184.019a2.78 2.78 0 0 1 .236-.042zm-.561-14.762c.01-.021.019-.032.03-.032l.002-.007c-.003-.003-.006-.003-.01-.005l.001-.003a3.24 3.24 0 0 1-.418-.005l-.416.018a.134.134 0 0 1-.016.09l.861-.002c-.031-.016-.042-.036-.034-.054z"/><path d="M17.979 16.808c-.005.002-.011.002-.015.002l-.001.088a.147.147 0 0 0 .016-.09zm.416-.018c.14.01.279.013.419.002l.004-.02c-.143.005-.283.012-.423.018z"/><path d="M18.812 16.789h.011v.011h-.011v-.011z"/><path d="M18.817 16.772a.118.118 0 0 0-.004.02h.01l.005-.021-.011.001zm-.027.07c-.007.019.003.038.035.054l-.005-.086c-.011 0-.02.011-.03.032zm3.363 11.128c.115.129.253.162.412.09a12.518 12.518 0 0 0-.186-.153c-.064.063-.14.078-.226.063z"/><path d="M22.153 27.97c.086.016.162 0 .227-.063-.09-.032-.176-.047-.227.063zM35.7 41.739c.017-.003.034.002.051.005l.017-.012-.006-.092c-.019-.026-.031-.056-.043-.082l-.001.127c-.003.02-.012.038-.018.054zm.049-13.752l-.106.002c.096.11.106.241.106.375v-.377zm0 .462l.001 4.695-.001-4.706v.011z"/><path d="M35.729 41.075v-3.984c0 1.49-.004 2.979-.011 4.47a.526.526 0 0 0 .042.082c-.013-.189-.03-.379-.031-.568z"/><path d="M35.718 41.688l.001-.127c-.078-.192-.039-.41-.039-.615-.007-3.965-.005-7.93-.006-11.896 0-.251.018-.503-.021-.751-.008-.024-.021-.047-.031-.07l.007 13.53a.157.157 0 0 1 .074-.019c.003-.017.012-.035.015-.052z"/><path d="M35.641 28.298c.041.248.028.5.028.751.002 3.967.002 7.932.007 11.896 0 .205-.037.422.042.615.009-1.49.011-2.979.011-4.471 0-1.313.013-2.629.013-3.943-.003-1.566.009-3.131.009-4.696v-.085c0-.134 0-.265-.148-.375v.238c-.003.023.029.045.038.07zm.059 13.441c-.005.012-.007.021-.013.032.006 0 .014.004.02.004l.043-.031c-.016-.003-.033-.008-.05-.005z"/><path d="M35.626 41.758a.291.291 0 0 0 .063.016l.012-.032a.138.138 0 0 0-.075.016zm.125-.014c.006.001.013.001.017.003v-.015l-.017.012z"/><path d="M35.751 41.744l-.043.031.032.004.029-.012c0-.009-.002-.015-.002-.015-.003-.007-.01-.007-.016-.008zm3.7-.081c-.01.012-.014.022-.021.035-.013.012-.025.02-.037.028v.01c.021.011.043.019.063.033l.004-.074-.009-.012v-.02z"/><path d="M39.393 41.727l.037-.027.021-.035c-.018-4.438-.004-8.879-.006-13.318 0-.121-.036-.252.068-.355-.201.189-.121.438-.121.661-.006 4.337-.006 8.673-.006 13.009l.007.065zm.058-.041c.002.005.006.009.009.013l.002-.052-.011.019v.02z"/><path d="M39.445 28.345c.002 4.439-.012 8.879.006 13.318.003-.006.006-.013.011-.019.015-.277.033-.558.033-.836.009-4.272.014-8.545.021-12.819-.107.104-.071.235-.071.356zm-.05 13.416c.021 0 .041.005.063.011-.021-.017-.043-.022-.063-.032a.037.037 0 0 0 0 .021zm-3.61-.04h.033l-.004-.003c-.021-.021-.031-.043-.047-.063v.078c.006-.004.012-.006.018-.012zm-.015-.067c.016.021.026.041.047.063l.004.004h.018l.003-.063c-.001-4.333-.001-8.668-.006-13.001 0-.227.073-.47-.104-.671a.355.355 0 0 1 .055.203c-.014 4.491.011 8.978-.017 13.465z"/><path d="M35.835 41.73a.052.052 0 0 0-.017-.013h-.033c-.006.007-.012.009-.018.015v.016c.006.001.012 0 .019.003a.277.277 0 0 1 .049.015v-.036z"/><path d="M35.836 41.721h-.018c.007.004.013.006.017.01l.001-.01zm-.066.027v.021c.021-.004.043-.004.065-.004a.28.28 0 0 0-.049-.016l-.016-.001zm0-.016v-.078c-.002-.006-.006-.01-.008-.014l.006.092h.002z"/><path d="M35.749 28.44c0 1.568-.009 3.137-.009 4.705.002 1.316-.004 2.631-.004 3.945 0 1.328-.004 2.656-.002 3.984 0 .188.014.379.027.566l.01.014c.027-4.488.016-8.979.021-13.465 0-.073-.045-.141-.045-.203v.377l.002.077zm-.02 4.706c0 1.314 0 2.631.002 3.943-.002-1.314-.002-2.627-.002-3.943zm.039 8.601l.002.021v-.014l-.002-.007zm.121-.024c.028 0 .059-.005.09-.005 1.1.001 2.197-.002 3.297 0 .022-.002.045.007.067.011a.046.046 0 0 1 .044-.062h-3.548c.037 0 .052.035.05.056zm.007.043a.391.391 0 0 0-.033-.018.134.134 0 0 0-.028.018h.061zm3.442-.005h.057a.063.063 0 0 1-.026-.016l-.031.016z"/><path d="M39.343 41.725c-.022-.004-.045-.009-.067-.007-1.1-.002-2.197 0-3.297-.002-.031 0-.062.002-.09.003-.002.01-.013.021-.025.029.012.005.023.01.035.018l3.439-.005c.01-.006.02-.01.028-.016-.012-.006-.018-.015-.023-.02zm.05.002l-.01.006.01.004v-.01z"/><path d="M39.343 41.725c.015.002.027.006.04.01.004-.002.008-.004.01-.008l-.006-.065c-.041.022-.054.043-.044.063z"/><path d="M39.383 41.732c-.006.004-.011.011-.017.013.007.006.016.01.026.016 0-.008 0-.016-.002-.021.001-.004-.003-.008-.007-.008z"/><path d="M39.366 41.745c.005-.002.011-.009.017-.013l-.04-.01c.005.01.013.018.023.023zm-3.53-.024c.018-.002.034-.002.053-.002.002-.019-.013-.037-.05-.06l-.003.062zm-.001.045l.028-.018-.028-.018v.036z"/><path d="M35.863 41.748c.013-.012.021-.021.023-.029-.019 0-.035 0-.053.002l-.001.01c.014.003.022.01.031.017zm6.5-16.829c-.92-.035-1.842.069-2.76-.054.164.153.369.104.559.106.783.004 1.564.003 2.346.003l.004-.058c-.049.002-.1.003-.149.003zm.153-.048h-.063l.063.036a.109.109 0 0 1 0-.036z"/><path d="M42.363 24.919l.148-.002v-.008a.333.333 0 0 0-.062-.038c-.949-.003-1.897-.003-2.849-.006.921.123 1.843.019 2.763.054zm.198-.004h-.011v.012a.368.368 0 0 1 .032.058l.002-.083-.023.013z"/><path d="M42.582 24.984l-.025-.049-.007-.004-.004.011c-.012.021-.024.032-.037.032.048.931-.084 1.866.074 2.794a50.667 50.667 0 0 1-.001-2.784zm-.032-.069h.011c.008-.005.018-.008.023-.014l.001-.04c-.022.005-.047.007-.069.01.02.015.03.03.034.044z"/><path d="M42.582 24.984c.003.007.007.011.009.018l-.004-.103-.003.002-.002.083z"/><path d="M42.591 25.002c-.002-.007-.006-.011-.009-.018-.027.928-.023 1.856.001 2.784.06-.921.056-1.843.008-2.766zm-.004-.103l-.002-.038-.001.04.003-.002zm-.037.016c-.008.002-.016.002-.022.002a.05.05 0 0 1 .022.015v-.017z"/><path d="M42.546 24.942l.004-.011c-.008-.007-.016-.011-.022-.015h-.014l-.005.058c.012.001.025-.01.037-.032z"/><path d="M42.525 24.917c.009 0 .017 0 .022-.002a.094.094 0 0 0-.034-.044l-.002.036c.007.002.01.006.014.01z"/><path d="M42.514 24.917h.012l-.012-.01v.01zm-6.756-1.334l-.013-.007c.014.075.024.151.032.227-.004-.074-.007-.146-.019-.22zm-.005.929l.003.063.003-.002.009-.096c0-.019 0-.037.002-.057-.004.032-.011.061-.017.092zm-.037-1.09l-.006.119v.018c.013.004.022.011.035.018a4.217 4.217 0 0 0-.029-.155zm.054.999c.03-.209.03-.414.01-.618.008.206-.003.412-.01.618z"/><path d="M35.716 23.414v.005c.011.055.021.105.029.157.003.003.009.004.013.007.012.074.018.146.021.22.021.204.021.409-.01.618-.002.02-.002.038-.002.057.043-.482.166-.967-.033-1.441l-.012.254a.506.506 0 0 1-.006.123z"/><path d="M35.777 23.803c-.008-.075-.021-.151-.032-.227-.013-.007-.022-.014-.035-.018.017.318.028.636.043.953.006-.03.013-.06.017-.091.007-.205.018-.411.007-.617zm-.02.801l.002-.032-.003.003.001.029zm-.034-1.314l-.007.124c.007-.042.009-.083.007-.124zm5.067-6.58c.427.123.854.132 1.282-.003a6.386 6.386 0 0 1-1.282.003z"/><path d="M41.229 16.683a5.334 5.334 0 0 0-.438.027c.427.041.854.043 1.28-.003a7.011 7.011 0 0 0-.356-.024 2.322 2.322 0 0 1-.486 0z"/><path d="M41.713 16.683a5.534 5.534 0 0 0-.482 0c.16.017.322.017.482 0z"/></g></svg>