<svg xmlns="http://www.w3.org/2000/svg" width="57" height="57" viewBox="0 0 57 57"><path fill="#1E100D" d="M0 0v57h57V0H0zm54 54H3V3h51v51z"/><g fill="#1E100D"><path d="M27.688 33.643c-.387-.627-.476-1.354-.693-2.035a3.164 3.164 0 0 1-.303-.903c-.088-.22-.233-.42-.219-.671-.168-.395-.318-.79-.375-1.218-.342-.633-.474-1.336-.674-2.018-.305-.805-.595-1.615-.781-2.457-.34-.635-.475-1.338-.674-2.02a3.351 3.351 0 0 1-.298-.905l-.132-.412c-.201-.478-.377-.962-.461-1.477-.297-.524-.398-1.114-.564-1.683a3.395 3.395 0 0 1-.299-.906 21.61 21.61 0 0 0-.131-.41l-.421-1.058-4.684.013c-.132 0-.262-.009-.361-.111-.268.137-.077.424-.198.607l-.032.402c.026.239-.006.481-.092.705-.189.922-.445 1.822-.895 2.656-.009.128.008.265-.032.384-.538 1.628-1.083 3.253-1.626 4.879-.159.538-.256 1.099-.588 1.571-.073.91-.471 1.723-.754 2.569-.164.53-.236 1.099-.576 1.563l-.018.218c-.141.242-.038.555-.227.783l-.188.568c-.135.416-.163.873-.466 1.229l-.019.219c-.168.354-.109.778-.335 1.117-.065.202-.13.404-.197.607l-.262.846c-.375 1.185-.652 2.405-1.185 3.541-.078.166-.093.372.186.41-.01-.02-.008-.038.006-.057.541-.188 1.1-.082 1.648-.08.717.004 1.44-.103 2.152.072.016.017.018.032.005.051.185-.104.187-.307.243-.479.283-.855.563-1.716.845-2.572.156-.646.308-1.289.591-1.895.139-.584.31-1.157.542-1.711 0-.122.026-.233.128-.313v-.103c.047-.205.212-.106.318-.106 2.361-.007 4.689-.007 7.051 0 .106 0 .284-.099.284.106v.224c.229.244.403.545.356.897.27.491.473 1.016.589 1.563.203.432.344.885.455 1.344a.961.961 0 0 1 .138.666c.258.129.221.39.313.603.251.573.293 1.271.676 1.729-.013 0-.011-.019.006-.033 1.12-.168 2.248-.026 3.371-.063.254-.008.521-.057.762.078.019.02.021.038.007.061a.299.299 0 0 1 .101-.041c-.12-.844-.522-1.604-.695-2.434-.481-1.353-.983-2.704-1.318-4.11zm-5.586-4.053c-.121.11-.272.104-.422.104-1.693.002-3.388.002-5.082 0-.148 0-.301.011-.423-.102-.067-.076-.116-.152-.015-.238l.129-.328c.148-.572.201-1.178.564-1.678l-.01-.113c.059-.549.26-1.057.449-1.566.257-.982.53-1.961.879-2.915.105-.499.149-1.019.469-1.448-.085-.207-.018-.39.088-.566.004-.495.242-.935.313-1.523.283.469.24.914.388 1.3.555 1.829 1.109 3.659 1.662 5.489.197.654.393 1.309.588 1.963.154.338.25.693.306 1.062l.121.451-.004.108zm20.399-2.147c.087.047.099-.389.185-.057.131.499.219 1.023.222 1.538.018 3.689.008 7.381.007 11.07h.001c.308.201.647.096.976.102.905.02 1.813.01 2.721.01 0-3.733 0-7.47.002-11.205 0-.219-.051-.448.086-.651l.044-.245c-.007-.22-.015-.439-.021-.66a.073.073 0 0 1-.014-.089c-.132-.174.014-.445-.206-.59-.153-.151-.153-.162-.017-.437a5.788 5.788 0 0 0-.766-2.256c-.328-.002-.322-.197-.246-.432-.223-.32-.388-.711-.68-.945-.635-.514-1.342-.932-2.143-1.163a11.383 11.383 0 0 0-2.086-.138l-.19.027c-.087.026-.173.057-.263.078-1.229.291-2.407.689-3.352 1.582-.076.224-.134.469-.455.434-.334-.028-.186-.272-.195-.443l-.111-.48c-.04.067-.044.241-.082.202-.111-.116-.049-.267.057-.385 0-.214-.009-.423-.229-.541-.744.208-1.503.063-2.253.086-.905.027-.938.011-1.179.713l-.002.016c-.002.026-.017.042-.022.06l-.013 1.011c.096.871.096 1.746.097 2.62.003 4.432-.001 8.862.005 13.293.001.228-.097.486.125.678-.012-.02-.01-.037.006-.053.576-.194 1.17-.063 1.754-.084.645-.025 1.291-.01 1.938-.014.001-4.267.008-8.531-.006-12.799-.002-.611.248-.98.799-1.182.229.006.363-.169.531-.275.805-.507 1.66-.813 2.629-.731 1.311.11 2.252 1.062 2.303 2.356l.033.009.01-.03z"/><path d="M36.305 40.05l-.031.056.031.002v-.058zm.211-13.395a.201.201 0 0 1 .133-.065l.346-.474a1.16 1.16 0 0 0-.479.539z"/><path d="M36.193 27.298c.014 4.267.007 8.532.006 12.798.023.002.048.006.074.01l.031-.056c.002-4.186.006-8.373.012-12.56 0-.236-.063-.486.096-.704.035-.043.064-.092.104-.131.092-.208.238-.393.479-.539-.554.201-.804.571-.802 1.182zm.224 12.695a.765.765 0 0 1-.03.065.179.179 0 0 1-.08.057c.002.02.004.037.01.056a.056.056 0 0 1-.002.062.324.324 0 0 1 .101-.043.65.65 0 0 1 .001-.197z"/><path d="M36.256 40.107s.025.004.025.008a.192.192 0 0 0 .093-.057c.013-.021.028-.043.038-.065l.003-.017c.007-4.328.022-8.653-.004-12.98l.001-.004a3.077 3.077 0 0 0-.045.583c.004 3.127.002 6.254.002 9.382 0 .838-.047 1.675-.051 2.514-.002.194.117.396-.112.579v.058h.05v-.001z"/><path d="M36.367 39.471c.005-.839.002-1.676.002-2.514.001-3.128.003-6.255-.001-9.382-.001-.201.01-.398.044-.583a.345.345 0 0 1 0-.206c-.157.218-.096.468-.096.704-.006 4.187-.01 8.374-.012 12.56.091-.183.063-.385.063-.579zm.072.468c-.006.019-.016.035-.022.054a.74.74 0 0 0-.003.194.103.103 0 0 1 .025-.086v-.162z"/><path d="M36.413 26.996c.026 4.327.013 8.652.007 12.98l-.002.017c.008-.019.016-.035.021-.054l.006-13.042-.006-.021c-.011.04-.019.08-.026.12z"/><path d="M36.412 26.992c.008-.04.018-.078.027-.115-.01-.03-.021-.061-.027-.091a.38.38 0 0 0 0 .206zm10.32 12.942c.002.061.002.117.002.176a.712.712 0 0 0 .092-.018.55.55 0 0 1-.086-.177l-.008.019z"/><path d="M46.732 39.934l.008-.019-.008-.033v.052zm-.009-1.713c-.002-3.127 0-6.253-.002-9.38 0-.242.014-.482.057-.721a.836.836 0 0 1 .012-.099l-.047-.017-.045.245.025 9.733v.239z"/><path d="M46.797 28.367c-.045 3.63-.006 7.259-.021 10.889-.002.221.035.448-.033.659.018.062.043.12.086.177l-.009-11.853a.702.702 0 0 1-.023.128z"/><path d="M46.744 28.021c-.006.031.015.065.012.099a4.04 4.04 0 0 0-.047.721c.002 3.127.008 6.253.009 9.38.003.555.009 1.108.013 1.661.003.011.006.022.011.033.067-.211.032-.438.034-.659.017-3.63-.065-7.259-.021-10.889.013-.042-.019-.085-.019-.128v-.207s.02-.007.008-.011zm-.111 12.096c-.012.005-.018.008-.021.012.002.003.002.008.002.008.004.004.005.006 0 .006l.006.032.014.034-.021.025.127-.125a.275.275 0 0 1-.047-.076c-.022.03-.039.057-.06.084zm-.125.024v.002-.002z"/><path d="M46.667 39.736l-.001-11.211c0-.093 0-.187.031-.275-.137.203-.086.433-.086.651-.002 3.735-.002 7.47-.002 11.205a.199.199 0 0 1 .002.022l.021-.012c.021-.027.038-.056.056-.084-.04-.093-.021-.196-.021-.296zm.021.297c.013.025.024.052.047.076v-.178c-.014.035-.03.069-.047.102z"/><path d="M46.725 39.443c0-.407 0-.815-.002-1.226v-.233c-.01-3.245-.018-6.489-.025-9.734-.03.089-.03.183-.03.275l.001 11.211c0 .1-.02.203.021.297a.86.86 0 0 0 .047-.102l-.002-.052c-.032-.14-.01-.29-.01-.436z"/><path d="M46.732 39.882c-.004-.553-.008-1.106-.01-1.661 0 .407 0 .815.002 1.225.001.143-.021.293.008.436zm-3.921.132a.254.254 0 0 1-.024-.072.46.46 0 0 1-.097.162l.115.107a.146.146 0 0 1 0-.072l.006-.125z"/><path d="M42.811 39.813a.6.6 0 0 1-.024.129c.006.024.017.05.024.072v-.201zm-.01-.404c0 .062.006.124.01.188l-.006-8.263c0 2.691 0 5.384-.004 8.075zm-.052.021l.002-.117-.003-6.293c0 2.097.001 4.19-.001 6.287-.001.041.001.082.002.123zm-.001.299a.636.636 0 0 1-.059.222v.153a.467.467 0 0 0 .096-.162 1.022 1.022 0 0 1-.037-.213z"/><path d="M42.846 39.598c0-.063-.027-.127-.027-.188.004-2.691-.006-5.385-.006-8.073 0-.646.018-1.294.016-1.94 0-.029.02-.061.02-.09v-.363c0-.067-.051-.133-.084-.196.008.165 0 .333 0 .499 0 1.259-.008 2.517-.008 3.772 0 2.099-.002 4.194 0 6.293 0 .037-.002.078-.004.117.004.1.01.199-.001.299.005.071.033.145.056.213.014-.041.041-.084.041-.129l-.003-.214zm-.097-.168a5.045 5.045 0 0 1-.002-.123c.002-2.097.001-4.19.001-6.287v-3.772c0-.172-.005-.344-.018-.515l-.023-.041-.018 11.258a.701.701 0 0 0 .059-.222c-.006-.1-.002-.201.001-.298z"/><path d="M42.749 39.43c-.002.1-.006.198-.001.299.01-.1.005-.202.001-.299zm-.002-10.185v3.774l.002-3.774c0-.166-.003-.334-.011-.499-.002-.006-.006-.011-.01-.016.014.171.019.343.019.515zm-20.043 4.012c.022.007.046.017.067.025a.169.169 0 0 1 .123.098c.033.009.068.011.102.009a.737.737 0 0 0-.224-.121l-.068-.011zm-5.624-.039c.809.001 1.617.005 2.426.005-.809-.008-1.617-.016-2.426-.005zm5.263-.001c-.337-.02-.676-.001-1.013.006h.776c.079 0 .158-.004.237-.006z"/><path d="M15.275 33.096v.135c.063-.037.129-.035.202-.031.534.003 1.068.011 1.603.011.809-.01 1.617.002 2.426.009.608-.001 1.217.004 1.824.004.336-.008.676-.022 1.013-.005a1.22 1.22 0 0 1 .361.039c.022.005.011.009.034.013.083.026.19.07.19.123v-.295l-7.653-.003z"/><path d="M15.5 33.294l7.103-.017c.056 0 .116-.008.169.005a.27.27 0 0 0-.067-.025c-.12-.02-.24-.032-.361-.04-.079.002-.158.006-.236.006h-.776l-.111.002c-.57.006-1.142.002-1.713-.002-.809 0-1.617-.004-2.426-.005-.508.007-1.017.022-1.524.048-.021.007-.039.019-.058.028z"/><path d="M15.5 33.323c.019 0 .037-.035.056-.044a36.879 36.879 0 0 1 1.524-.055l-1.603-.008a.37.37 0 0 0-.202.063c.037.011.074.041.112.041.038.003.076.003.113.003zm5.719-.098l.111-.002h-1.824c.571.004 1.142.006 1.713.002zm1.124-.008c.12.008.241.021.361.04a1.158 1.158 0 0 0-.361-.04zM16.802 15.35l-.198-.001.014.021c.07-.006.141-.009.211-.014l-.027-.006zm4.86.119a.102.102 0 0 0-.022-.084l-.122-.001a1.6 1.6 0 0 1 .144.085z"/><path d="M21.662 15.469c-.047-.029-.094-.06-.145-.085l-.32-.002a3.403 3.403 0 0 1-.303-.003l-1.242-.009c-.798.003-1.596.002-2.393-.001-.143-.001-.291.018-.432-.013-.07.005-.141.008-.211.014.1.103.229.111.361.111 1.563-.003 3.125-.007 4.685-.012z"/><path d="M16.802 15.35l.026.007.104-.006-.13-.001z"/><path d="M16.828 15.356c.141.03.289.012.432.013.797.003 1.595.004 2.393.001l-2.721-.02-.104.006zm4.369.026l-.303-.003c.102.005.203.007.303.003zm.248-.029c.02.008.039.014.058.023.046.003.091.004.137.009a.216.216 0 0 0 .001-.084v.001c-.065.023-.13.039-.196.051zm-4.828-.094a.253.253 0 0 0-.014.09l.178-.004a.515.515 0 0 1-.164-.086z"/><path d="M21.503 15.376c-.019-.01-.038-.016-.058-.023l-.076.014c.045.002.089.005.134.009zm-4.321-.039c.491-.023.984-.03 1.477-.029a38.011 38.011 0 0 1 1.91.016c.246.003.492.004.736.002.051 0 .096.012.141.027.065-.012.131-.027.195-.051v-.001c-1.674-.097-3.349-.016-5.023-.042a.487.487 0 0 0 .164.086l.4-.008z"/><path d="M17.182 15.337c.492-.012.984-.023 1.477-.029-.493-.001-.986.005-1.477.029zm4.263.016a.425.425 0 0 0-.141-.027c-.244.002-.49.001-.736-.002.268.011.534.024.801.043l.076-.014zm.073.031l.122.001c-.046-.005-.091-.006-.137-.009a.11.11 0 0 1 .015.008zm-4.737-.039l-.178.004.198.001-.02-.005zm2.871.025l1.242.009c-.137-.006-.273-.015-.41-.013-.277.004-.554.003-.832.004z"/><path d="M21.369 15.366a1.999 1.999 0 0 1-.172.016l.32.002-.015-.008a5.53 5.53 0 0 0-.133-.01zm-4.187-.029l-.4.008.021.005.13.001c.082-.004.165-.011.249-.014zm1.476-.029c.637 0 1.273.012 1.91.016a38.001 38.001 0 0 0-1.91-.016z"/><path d="M20.568 15.323c-.637-.004-1.273-.016-1.91-.016-.493.006-.984.018-1.477.029-.084.003-.167.01-.25.014l2.721.02c.277-.001.554 0 .832-.004.137-.002.273.007.41.013l.303.003c.058-.003.115-.008.172-.016a30.686 30.686 0 0 0-.801-.043zm12.01 6.431l-.288.001c-.157.295-.022.592-.001.889l.025-.075c.045-.507.068-.724.264-.815zm3.167.016l.009-.02h-.127c.039.007.078.011.118.02z"/><path d="M32.578 21.754c-.196.091-.219.308-.264.814.24-.702.271-.686 1.178-.713.75-.022 1.509.122 2.253-.086-.04-.009-.08-.013-.119-.02l-3.048.005zm-7.023 18.495l-.098-.019c.003.026.004.056.005.082a.436.436 0 0 1 .121-.063h-.028zm3.924.003a.465.465 0 0 1 .121.068c.002-.028.004-.057.002-.086a1.328 1.328 0 0 1-.098.017l-.025.001z"/><path d="M25.583 40.249c.132-.047.277-.033.416-.033h.77c-.435-.007-.87-.019-1.306-.036-.017.016-.019.032-.006.051.034.009.065.015.098.021.009-.003.019-.003.028-.003zm4.013-.067c-.438.018-.877.028-1.316.034h.785c.141 0 .283-.013.414.036l.025-.001c.033-.005.064-.01.098-.017.013-.018.011-.039-.006-.052z"/><path d="M25.583 40.249a.605.605 0 0 0-.121.063l4.138.008a.424.424 0 0 0-.121-.068 80.323 80.323 0 0 1-3.896-.003z"/><path d="M26.769 40.216h-.77c-.139 0-.284-.014-.416.033 1.299.036 2.597.03 3.896.003-.131-.049-.273-.036-.414-.036h-.785c-.504.009-1.008.009-1.511 0zm16.192-.028c-.027-.002-.049-.02-.066-.041-.018 0-.033-.002-.049-.004l-.041.068c.002.025.006.055.01.08.191-.034.383-.055.574-.066l-.428-.037zm3.4-.002l-.121.02a.759.759 0 0 1 .363.119.433.433 0 0 0 .004-.088c-.012-.021-.024-.038-.035-.06l-.211.009zm-.675.035c.184-.005.371-.033.557-.018l.119-.02c-.406.015-.813.027-1.223.037.181.005.362.007.547.001z"/><path d="M42.895 40.146c.02.021.039.037.066.041l.428.037c.098-.009.194-.015.291-.018-.262-.011-.524-.03-.785-.06zm3.722.029l-.045.002c.011.021.023.039.035.06l.021-.025-.011-.037zm-3.812-.036a.146.146 0 0 0 0 .072l.041-.068-.041-.004zm.584.086a6.187 6.187 0 0 0-.574.066l3.789.031a.745.745 0 0 0-.361-.119c-.952.134-1.903.098-2.854.022z"/><path d="M45.686 40.221c-.184.006-.365.004-.547.002-.486.012-.973.01-1.459-.014a9.629 9.629 0 0 0-.291.016c.951.076 1.902.112 2.854-.021-.186-.016-.376.012-.557.017zm-32.885.032a.477.477 0 0 1 .123.063l.003-.082a3.282 3.282 0 0 1-.097.017l-.029.002zm-3.588.006a1.049 1.049 0 0 0-.098-.011.257.257 0 0 0 .005.078.345.345 0 0 1 .116-.067h-.023z"/><path d="M12.922 40.184l-3.801.01c-.014.019-.016.002-.006.021.033.004.065-.021.098-.021h.023c.095 0 .199-.01.304-.01.987-.002 1.972.016 2.957.019.104 0 .208.011.303.045.01-.001.02.004.029.003l.097-.014c.013-.022.012-.037-.004-.053zm-3.686.075a.462.462 0 0 0-.116.067l3.804-.01a.388.388 0 0 0-.123-.063c-1.189.032-2.377.02-3.565.006z"/><path d="M12.801 40.253a.91.91 0 0 0-.303-.037 485.77 485.77 0 0 0-2.957 0 .824.824 0 0 0-.304.043c1.188.02 2.376.018 3.564-.006zm23.394-.076c-.184.13-.406.089-.615.091-1.002.012-2.005-.004-3.008.01-.016 0-.031-.008-.047-.01a.16.16 0 0 1 .039.063l3.75-.017c-.002-.025 0-.056 0-.082-.016-.02-.027-.039-.041-.06l-.078.005z"/><path d="M32.572 40.275c1.003-.015 2.006.002 3.008-.01.209 0 .432.041.615-.091-1.229.073-2.457.039-3.688.017-.016.017-.018.035-.006.054.01.006.016.015.021.021.02.004.035.009.05.009z"/><path d="M32.508 40.33l.057-.001a.127.127 0 0 0-.039-.063.086.086 0 0 1-.021-.004.257.257 0 0 0 .003.068z"/><path d="M32.525 40.268c-.008-.008-.014-.017-.021-.021v.019c.008 0 .016 0 .021.002zm3.791-.097l-.043.002c.014.021.025.04.041.06a.062.062 0 0 0 .002-.062zm-.707-18.499a.425.425 0 0 1 .145.078.371.371 0 0 0-.008-.081c-.045.002-.092.002-.137.003zm-3.318-.01a1.442 1.442 0 0 0 0 .093.41.41 0 0 1 .163-.087c-.054-.003-.108-.003-.163-.006zm2.736-.025c.199.009.4.012.599.012h.127c-.045 0-.094-.036-.146-.052-.191.006-.386.035-.58.04z"/><path d="M33.354 21.698c.135.004.271.002.403-.001-.435-.001-.87-.011-1.304-.029a.403.403 0 0 0-.163.087l.288-.001c.143-.066.375-.064.776-.056z"/><path d="M35.027 21.688a44.91 44.91 0 0 1-1.271.01c-.134.003-.27.005-.402.001-.399-.008-.633-.01-.774.056l3.048-.004a4.486 4.486 0 0 0-.601-.063zm-1.793-.048c.547-.002 1.092-.002 1.638-.001a42.59 42.59 0 0 0-1.638.001zm-.743.017l-.201.005c.056.003.11.003.163.006l.038-.011zm3.118.015c.045-.001.092-.001.137-.003-.057-.004-.114-.004-.172-.006.012.002.024.006.035.009z"/><path d="M35.027 21.688c.193-.005.388-.009.582-.016-.012-.003-.023-.007-.035-.009-.234-.01-.469-.02-.702-.024-.546-.001-1.091-.001-1.638.001-.248.004-.496.01-.743.018l-.038.011c.436.019.869.028 1.304.029.423-.008.847-.029 1.27-.01z"/><path d="M35.027 21.688c-.424-.019-.848.003-1.271.01.424.002.848-.002 1.271-.01zm1.737 1.295l-.436.233-.01.086c.209-.021.328-.167.446-.319z"/><path d="M36.318 23.303l-.012.114c.321.035.379-.21.455-.434-.115.152-.234.298-.443.32zm9.403.671a.906.906 0 0 0-.246-.432c-.014.199.121.312.246.432z"/><path d="M45.721 23.974c-.125-.119-.26-.232-.246-.432-.077.234-.082.43.246.432zm.78 2.692c.116-.148.043-.292-.015-.437-.076.149-.023.292.015.437z"/><path d="M46.501 26.666c-.039-.145-.091-.288-.015-.437-.138.275-.138.286.015.437zm-10.546-4.149a.238.238 0 0 0 .045-.023c-.008-.061-.018-.121-.025-.183-.037.042-.058.091-.049.144.004.018-.047.073.029.062z"/><path d="M35.919 22.695c.038.039.042-.135.082-.202a.147.147 0 0 1-.045.023c-.076.012-.024-.044-.028-.063-.009-.053.012-.102.049-.144-.107.12-.17.27-.058.386zM15.654 33.109c2.321-.002 4.643-.002 6.965 0 .127 0 .262-.026.377.056-.047-.205-.211-.108-.318-.108a1672.77 1672.77 0 0 0-7.084 0c-.106 0-.271-.097-.318.108.117-.082.249-.056.378-.056z"/><path d="M22.619 33.075c-2.322-.002-4.644-.021-6.965-.019-.129 0-.262.036-.379.036h7.721c-.115.004-.25-.017-.377-.017zm-1.105-3.494c-1.586.004-3.17.008-4.755-.004-.06-.001-.126.009-.193.016 1.846 0 3.691-.002 5.536-.003l.005-.111c-.18.136-.392.102-.593.102zm-5.354-.227c-.102.086-.053.162.015.238h.225c-.105-.015-.195-.071-.24-.238z"/><path d="M21.473 29.501c-1.561.005-3.121.021-4.683.008a.786.786 0 0 1-.26-.03c-.134.015-.269.049-.37-.093.045.165.135.274.239.274h.166c.067 0 .134-.051.193-.051 1.585.013 3.169-.03 4.755-.033.201 0 .413.084.593-.145h-.36c-.076.001-.166.07-.273.07z"/><path d="M16.53 29.482a.818.818 0 0 0 .26.037c1.562.013 3.122.008 4.683.004a.792.792 0 0 0 .273-.047c-1.675-.002-3.35 0-5.024-.011-.062.002-.126.012-.192.017zm3.47.152c-1.275-.008-2.551.064-3.825-.041.122.11.274.103.423.103h5.082c.149 0 .301.007.422-.104-.698.109-1.402.045-2.102.042z"/><path d="M16.399 29.66h-.225c1.274 0 2.55-.001 3.825.007.7.004 1.404.051 2.102-.06-1.845 0-3.69.024-5.536.025-.056.009-.112.028-.166.028zm.166 0h-.166.166zm13.031 10.522c-.242-.138-.508-.082-.762-.074-1.123.033-2.25-.098-3.371.072a80.21 80.21 0 0 1 4.133.002z"/><path d="M28.279 40.216c.439-.007.877-.018 1.317-.034a82.573 82.573 0 0 0-4.134-.002c.436.02.871.029 1.306.036h1.511zm0 0h-1.511c.504.009 1.008.009 1.511 0zm-15.357-.032c-.712-.173-1.436-.065-2.152-.069-.549-.005-1.107-.109-1.648.079 1.266-.063 2.533-.048 3.8-.01z"/><path d="M9.121 40.191c1.267-.004 2.534-.006 3.801-.008a49.666 49.666 0 0 0-3.801.008zm33.682-11.447c.168.137.049.355.049.52.012 3.514.01 7.029.01 10.543v.188h.054c.001-3.69.011-7.381-.007-11.07a6.205 6.205 0 0 0-.223-1.538c-.086-.332-.097.104-.184.057.141.191.193.407.191.64.136.193.078.438.11.66z"/><path d="M42.501 27.551c-.008-.016-.017-.031-.024-.047-.056.177.135.31.123.479.017.012.023.023.037.036a3.207 3.207 0 0 0-.136-.468z"/><path d="M42.637 28.02c.021.02.039.041.057.063a1.03 1.03 0 0 0-.19-.64.159.159 0 0 0-.024.061c.008.016.018.031.024.047.055.154.098.31.133.469zm.103.688c.021.011.047.023.063.036-.029-.222.026-.467-.109-.661 0 .017.002.032 0 .048.023.192.036.384.046.577zm-.103-.688c-.013-.013-.021-.024-.035-.036l.105.706c.01.004.016.009.023.013a4.615 4.615 0 0 0-.093-.683z"/><path d="M42.693 28.131c.002-.016-.002-.031 0-.048a.852.852 0 0 0-.057-.063c.049.225.075.452.092.683l.012.006a7.99 7.99 0 0 0-.047-.578zm.166 11.676c0-3.514.004-7.029-.008-10.543 0-.162.141-.383-.029-.52.002.005.021.009.021.013v.186c0 .12-.015.241-.021.362 0 .678-.01 1.354-.01 2.031.002 2.753.017 5.507.018 8.262.005.071.013.146.013.215v.185h.032c.003-.064-.016-.129-.016-.191zm-.056-11.063a.284.284 0 0 0-.063-.036v.038a.587.587 0 0 1 .064.196v-.186a.017.017 0 0 0-.001-.012zm0 .651c0 .647 0 1.295.002 1.941-.002-.677 0-1.354 0-2.031-.002.03-.002.059-.002.09z"/><path d="M42.729 28.702l-.021-.013c.01.013.018.027.023.041l-.002-.028z"/><path d="M42.729 28.702c.002.009.002.019.002.028l.011.016v-.038l-.013-.006zm.128 11.42c-.004.006-.008.011-.01.017.014.002.027.003.041.002l-.031-.037v.018zm3.713.053c0-.002 0-.003-.002-.004l.014-.021c-.047.008-.096.014-.143.021l.131.004zm-3.711-.143c0 .022 0 .047-.002.069l.031.037c1.182.049 2.365-.007 3.551.031a1.76 1.76 0 0 1 .143-.021c.009-.015.02-.027.027-.043-.906 0-1.814.009-2.721-.01-.326-.007-.668.1-.977-.103h-.001c-.014.029-.034.042-.051.04zm3.754.109l-.002-.012c-.009.008-.002.01.002.012z"/><path d="M46.583 40.148c-.003.007-.008.014-.013.021l.002.004h.046l-.005-.03a.092.092 0 0 0-.025.006h-.005v-.001z"/><path d="M46.583 40.148h.004l.026-.006v-.002c-.004-.002-.012-.005-.002-.013l-.002-.021a.226.226 0 0 1-.026.042zm-3.726-.026v-.021a.047.047 0 0 0-.021-.021.385.385 0 0 1-.028-.066c0 .041-.002.084-.004.125h.043c.005-.006.007-.011.01-.017z"/><path d="M42.857 40.104c.002-.022.002-.047.002-.069-.018 0-.033-.015-.049-.037 0 0 0 .013-.002.021l.028.064c.01.003.016.011.021.021zm.032.037c-.014 0-.027 0-.041-.002 0 .002-.002.002-.002.002a.205.205 0 0 0 .049.006l-.006-.006zm3.55.031c-.025.005-.053.008-.078.014.07-.004.14-.006.211-.009 0 0 0-.002-.002-.002-.043-.002-.088-.002-.131-.003z"/><path d="M42.889 40.141l.006.006c.264.029.523.052.785.063.486-.017.973.006 1.459.013.408-.009.814-.021 1.223-.037l.078-.013c-1.184-.039-2.37.015-3.551-.032zm3.683.036l.045-.002h-.047c.002 0 .002.002.002.002zm-3.767-.038l.041.004.002-.004h-.043z"/><path d="M45.139 40.223c-.486-.008-.973-.029-1.459-.014.486.023.972.023 1.459.014zm-2.28-.191c.017.002.035-.011.054-.037h-.054v.037z"/><path d="M42.811 39.995c.018.024.033.037.049.037l.002-.037h-.051zm-6.511.122c-.011.003-.022.001-.034-.001 0 0 0 .003-.002.004-.02.021-.039.034-.061.051h.07l.027-.054z"/><path d="M36.203 40.171c.021-.017.041-.03.061-.051l.002-.002a.303.303 0 0 1-.064-.022c-.646.004-1.293-.013-1.938.014-.584.021-1.177-.109-1.752.084 1.228-.067 2.461-.033 3.691-.023zm.097-.054l.005-.01-.031-.004-.008.013a.078.078 0 0 0 .034.001z"/><path d="M36.273 40.104c-.026-.004-.051-.006-.074-.008.02.012.043.019.066.021.005-.006.006-.01.008-.013zm.027.013c-.009.019-.017.035-.024.054h.041c-.004-.019-.008-.036-.01-.056l-.007.002zm.005-.01l-.005.01.007-.002-.002-.006v-.002zm-.032.064h-.07l-.008.006.078-.004v-.002z"/><path d="M36.195 40.177l.008-.006c-1.23-.01-2.463-.044-3.693.021 1.228.024 2.457.058 3.685-.015zm.078-.004l.043-.002h-.043v.002z"/></g></svg>