<svg xmlns="http://www.w3.org/2000/svg" width="57" height="57" viewBox="0 0 57 57"><path fill="#1E100D" d="M0 0v57h57V0H0zm54 54H3V3h51v51z"/><g fill="#1E100D"><path d="M15.289 39.926c-.072-.07-.066-.154-.039-.24.336-.15.193-.455.194-.688.009-4.946.007-9.894.007-14.839 0-2.874.007-5.748-.01-8.622-.002-.464.14-.626.605-.605.745.032 1.492.009 2.24.009.857 0 .857 0 .857.838 0 6.625-.002 13.25.006 19.876 0 .234-.139.544.217.677l9.627-.019c.237 0 .473-.004.405.353-.201 1.078-.285 2.178-.568 3.239-.579.004-1.157.007-1.735.008-3.935.002-7.87.007-11.806.013zM35.92 22.102l.014.117c-.121.279-.229.557.102.779.023.145.048.289.081.473.271-.111.347-.381.505-.565 1.172-1.363 2.594-2.247 4.43-2.374.516-.035.743.111.721.682a38.498 38.498 0 0 0-.004 3.02c.019.501-.111.661-.646.678-1.955.059-3.611.797-4.857 2.347-.318.132-.195.414-.195.634-.008 3.729-.018 7.457.006 11.185.003.545-.113.773-.705.734a19.992 19.992 0 0 0-2.348-.002c-.518.024-.67-.146-.664-.662.021-2.627.027-5.256.006-7.885-.029-3.146.109-6.296-.1-9.439-.051-.72-.01-.722.736-.725l2.627-.011-.009-.008c-.015.155-.011.302.183.35l.035.224c-.154.182-.181.34.082.448z"/><path d="M19.367 36.328c-.355-.133-.217-.441-.217-.676-.008-6.627-.006-13.252-.006-19.877 0-.838 0-.838-.857-.838-.748 0-1.496.023-2.24-.009-.466-.021-.607.142-.605.605.017 2.874.01 5.748.01 8.622 0 4.947.002 9.893-.007 14.839-.001.234.142.538-.194.689-.007-.187-.019-.371-.019-.56-.002-7.87-.002-15.743-.002-23.617 0-.732 0-.732.735-.732h2.519c.826 0 .826 0 .826.798-.001 6.717-.001 13.435.001 20.151.002.202-.043.411.056.605zm16.258-15.242l-2.627.011c-.746.003-.787.005-.738.725.209 3.146.07 6.294.1 9.44.021 2.629.02 5.257-.006 7.885-.004.52.148.688.664.662.781-.039 1.567-.05 2.35.002.592.039.708-.188.703-.733-.021-3.729-.014-7.456-.006-11.185 0-.22-.123-.502.195-.634.006 4.083.01 8.165.025 12.248.002.391-.17.467-.51.462a67.607 67.607 0 0 0-3.021.005c-.449.014-.564-.146-.563-.576.015-3.113.01-6.229.008-9.34-.002-2.892.031-5.782-.16-8.667-.014-.227-.063-.46.297-.457 1.025.009 2.051.006 3.076.009.1-.003.18.04.213.143zm-20.336 18.84l11.808-.017c.578-.001 1.156-.005 1.735-.007-.125.24-.352.168-.544.168-4.146.004-8.293.004-12.439 0-.195 0-.418.075-.56-.144z"/><path d="M36.033 22.998c-.328-.223-.221-.5-.1-.779l.1.779zm-.113-.896c-.263-.107-.236-.266-.082-.448l.082.448zm-.117-.672c-.193-.048-.197-.194-.183-.35.163.063.176.205.183.35z"/></g></svg>