<svg xmlns="http://www.w3.org/2000/svg" width="52" height="52" viewBox="71.5 0 52 52"><path opacity=".4" d="M115.096 4.06L99.935 24.203l-.542 6.054 5.339-2.298s5.704-7.868 10.281-13.982l.083-9.917z"/><radialGradient id="a" cx="828.568" cy="-9056.397" r="17.061" gradientTransform="matrix(1.1083 0 0 -.1273 -820.952 -1103.082)" gradientUnits="userSpaceOnUse"><stop offset="0" stop-color="#ffe120"/><stop offset=".417" stop-color="#ffe120" stop-opacity=".584"/><stop offset="1" stop-color="#ffe120" stop-opacity=".003"/></radialGradient><path opacity=".9" fill="url(#a)" d="M97.352 47.594c10.289 0 18.631.986 18.631 2.203S107.641 52 97.352 52c-10.293 0-18.635-.986-18.635-2.203s8.342-2.203 18.635-2.203z"/><path fill="none" stroke="#000" stroke-miterlimit="10" d="M114.673 33.778a2.723 2.723 0 0 1-2.722 2.722H82.929a2.721 2.721 0 0 1-2.72-2.722V5.664a2.72 2.72 0 0 1 2.72-2.721h29.022a2.722 2.722 0 0 1 2.722 2.721v28.114z"/><g fill="none" stroke="#000" stroke-miterlimit="10"><path d="M85.121 8.838h24.64M85.121 29.878h14.234M85.121 25.663h24.64M85.121 21.46h24.64M85.121 17.256h24.64M85.121 13.042h24.64"/></g><g fill="#FFF" stroke="#000" stroke-linejoin="round" stroke-miterlimit="10"><path d="M99.393 23.672L112.7 2.259s1.517-2.758 4.03-1.104c1.891 1.242 2.326 1.957 1.451 3.66-.909 1.769-13.676 22.173-13.676 22.173l-5.113 2.763v-6.079zM111.178 4.708l5.353 3.063M109.1 8.123l5.353 3.063"/></g></svg>