<svg xmlns="http://www.w3.org/2000/svg" width="52" height="52" viewBox="146.75 0 52 52"><path opacity=".4" d="M188.694 26.38l-7.052-2.375-7.051-2.374 1.47 7.294 1.468 7.295 2.967-3.991 1.646 2.46 4.702-3.709-2.481-2.159z"/><radialGradient id="a" cx="896.466" cy="-9056.397" r="17.061" gradientTransform="matrix(1.1083 0 0 -.1273 -820.952 -1103.082)" gradientUnits="userSpaceOnUse"><stop offset="0" stop-color="#ffe120"/><stop offset=".417" stop-color="#ffe120" stop-opacity=".584"/><stop offset="1" stop-color="#ffe120" stop-opacity=".003"/></radialGradient><path opacity=".9" fill="url(#a)" d="M172.602 47.594c10.289 0 18.631.986 18.631 2.203S182.891 52 172.602 52c-10.293 0-18.635-.986-18.635-2.203s8.342-2.203 18.635-2.203z"/><path d="M173.406 36.938c-10.011 0-18.155-8.145-18.155-18.156S163.396.627 173.406.627s18.155 8.145 18.155 18.155c.001 10.011-8.144 18.156-18.155 18.156zm0-35.038c-9.31 0-16.882 7.573-16.882 16.881s7.572 16.881 16.882 16.881 16.882-7.573 16.882-16.881S182.716 1.9 173.406 1.9z"/><ellipse fill="none" stroke="#000" stroke-linejoin="round" stroke-miterlimit="10" cx="173.406" cy="18.782" rx="11.068" ry="18.156"/><ellipse fill="none" stroke="#000" stroke-linejoin="round" stroke-miterlimit="10" cx="173.406" cy="18.662" rx="18.155" ry="5.614"/><path fill="#FFF" stroke="#000" stroke-linecap="round" stroke-linejoin="round" stroke-miterlimit="10" d="M188.694 24.444l-7.052-2.375-7.051-2.374 1.47 7.293 1.468 7.295 2.967-3.99 4.338 6.484 5.415-4.773-5.886-5.118z"/></svg>