<svg xmlns="http://www.w3.org/2000/svg" width="36.793" height="36.792" viewBox="0 0 36.793 36.792"><path fill="#1E100D" d="M35.793 31.539a4.252 4.252 0 0 1-4.252 4.254H5.252A4.253 4.253 0 0 1 1 31.539V5.254A4.253 4.253 0 0 1 5.252 1h26.287a4.253 4.253 0 0 1 4.254 4.252v26.287z"/><linearGradient id="a" gradientUnits="userSpaceOnUse" x1="309.852" y1="-163.268" x2="342.152" y2="-195.57" gradientTransform="matrix(1 0 0 -1 -307.606 -161.023)"><stop offset="0" stop-color="#fff" stop-opacity=".3"/><stop offset="1" stop-color="#ffd820" stop-opacity="0"/></linearGradient><path fill="url(#a)" d="M35.793 31.539a4.252 4.252 0 0 1-4.252 4.254H5.252A4.253 4.253 0 0 1 1 31.539V5.254A4.253 4.253 0 0 1 5.252 1h26.287a4.253 4.253 0 0 1 4.254 4.252v26.287z"/><path fill="none" stroke="#FC3" stroke-width="2" stroke-miterlimit="10" d="M35.793 31.539a4.252 4.252 0 0 1-4.252 4.254H5.252A4.253 4.253 0 0 1 1 31.539V5.254A4.253 4.253 0 0 1 5.252 1h26.287a4.253 4.253 0 0 1 4.254 4.252v26.287z"/><path fill="#FC3" d="M24.404 32.677H12.248c-4.429 0-8.032-3.603-8.032-8.03V12.49c0-4.429 3.603-8.032 8.032-8.032h12.157c4.428 0 8.031 3.603 8.031 8.032v12.157c0 4.428-3.604 8.03-8.032 8.03zm-12.156-25.8a5.62 5.62 0 0 0-5.613 5.613v12.157a5.62 5.62 0 0 0 5.613 5.612h12.157a5.619 5.619 0 0 0 5.612-5.612V12.49a5.62 5.62 0 0 0-5.612-5.613H12.248z"/><path fill="#FC3" d="M18.326 25.793c-3.984 0-7.226-3.241-7.226-7.226 0-3.984 3.242-7.226 7.226-7.226s7.225 3.242 7.225 7.226c0 3.985-3.241 7.226-7.225 7.226zm0-12.032a4.813 4.813 0 0 0-4.807 4.807 4.813 4.813 0 0 0 4.807 4.807 4.812 4.812 0 0 0 4.806-4.807 4.812 4.812 0 0 0-4.806-4.807z"/><circle fill="#FC3" cx="25.861" cy="10.929" r="1.737"/></svg>