<svg xmlns="http://www.w3.org/2000/svg" width="57" height="57" viewBox="0 0 57 57"><path fill="#1E100D" d="M0 0v57h57V0H0zm54 54H3V3h51v51z"/><g fill="#1E100D"><path d="M38.357 40.412h-.004l.004.003v-.003zm-13.086-1.557c.127.285.215.59.319.886 1.11 0 2.222-.007 3.332.003.296.003.553-.03.689-.336l-.357-1.333c-.27-.287-.191-.726-.437-1.023-.037-.051-.127-.087-.111-.153-.306-.414-.429-.893-.44-1.409-.029-.681-.32-1.284-.549-1.906-.431-.437-.546-.981-.57-1.563.082-.215-.028-.4-.089-.593-.32-1.008-.656-2.01-.965-3.021-.466-1.522-1.033-3.014-1.407-4.564-.355-.667-.507-1.4-.699-2.121l-.749-2.137c-.395-.321-.468-.765-.469-1.234l.037.008-.499-1.9-.535-1.466c-1.432 0-2.863.021-4.294-.01-.541-.013-.818.122-.74.71.024.182.015.373-.112.532-.031.129.076.282-.071.384-.003.002-.081-.104-.125-.16l-.033.109c.044.229-.071.431-.113.645-.085.426-.37.803-.313 1.265.023.509-.126.957-.463 1.341-.34.3-.191.834-.54 1.129l.003.668c-.052.613-.16 1.205-.62 1.666-.03.066-.067.131-.09.199-1.048 3.292-2.098 6.584-3.139 9.879-.094.295-.276.575-.184.91-.005.506-.107.975-.497 1.334-.396 1.219-.797 2.52-1.183 3.741-.047.149-.011.578-.013.578h.104c1.245 0 2.491-.076 3.736-.072.038-.034.076-.112.114-.147-.154-.424-.005-.771.326-1.039.311-.961.626-1.932.929-2.896.093-.294.245-.588.166-.916.037-.459.068-.925.472-1.244l.183-.365.037-.188a.336.336 0 0 1-.014-.095c.143-.156.332-.146.519-.146 2.324 0 4.649-.001 6.973.004.119 0 .27-.061.34.107a.164.164 0 0 1 .01.098l-.012.014c.146.137.154.33.212.502.479 1.441.952 2.887 1.427 4.326.396.212.352.658.504.999zm-3.513-9.946h-5.106c-.163 0-.651.403-.651.303v.002l.178-.305h.01c-.043 0-.063.045-.051.008-.062-.229.055-.357.177-.559.219-.08.192-.259.245-.424.291-.93.575-1.843.861-2.772.051-.354.15-.685.318-1.003l.118-.665c-.185-.297-.046-.534.133-.765l-.003.004c-.021-.206-.01-.414.102-.59.078-.121.104.013.137.064.274-.785.486-1.587.644-2.403-.146-.413-.142-.792.247-1.082l.188.217c.263.034.282.213.057.528l.073.225.013.106a7.65 7.65 0 0 1 .453 1.792c.099.03.147.108.174.199.383 1.317.766 2.635 1.147 3.951l.25.848.206.496c.34.164.303.487.333.782.141.247.311.489.113.784l-.004.226.086.201c.009.042.018-.124.026-.081-.139.12-.306-.087-.474-.087z"/><path d="M28.806 36.864c-.021-.025-.044-.052-.063-.077.003.015.009.027.013.042.017.006.031.026.05.035zM16.19 29.211l.002.003-.002-.003zm29.404 10.655c.457-.002.729-.122.822-.572l.016-.672-.033-.519c-.152-1.729-.078-3.459-.084-5.188-.012-3.688-.012-7.375.006-11.062.002-.456-.113-.625-.59-.603-.779.037-1.563-.005-2.347.016-.38.011-.97-.109-1.335.094.049.04-.049.081-.049.121v13.033c0 .688-.199 1.2-.797 1.313-.477.237-.818.546-1.354.67-1.285.3-2.379.11-3.303-.909-.252-.152-.406-.337-.242-.658-.061-.379-.238-.729-.197-1.127l-.012.014c-.029-.008-.056-.019-.08-.028-.274-.157-.078-.351-.039-.528.017-.045.03-.091.047-.136-.006-3.771-.021-7.537-.008-11.306.002-.448-.127-.575-.57-.565-1.117.023-2.238-.004-3.356-.01l-.14.123a.075.075 0 0 1 .057.019c.107.188.079.397.079.601.002 3.96.002 7.918.001 11.881 0 .201.021.408-.077.602a.08.08 0 0 1-.053.018l.012.558c.009.063.019.126.026.188.038.16.078.32.111.482.396 1.85 1.166 3.432 3.004 4.262.358-.057.623.389 1.01.195.4-.105.795.043 1.195.029.644-.021 1.289 0 1.918-.174.164-.047.324-.072.47.053a3.493 3.493 0 0 0 1.271-.543c-.029-.36.18-.314.408-.242.301-.162.594-.333.794-.623.103-.146.238-.219.419-.132.236.127.108.272.022.418-.017.237-.015.478.096.694.017-.09.03-.182.047-.275.14.141.044.252-.03.365-.011.098.024.169.119.203.91-.208 1.832-.075 2.746-.08z"/><path d="M42.088 35.1c-.012.008-.023.018-.035.023-.219.234-.437.47-.654.704.359-.179.567-.427.689-.727z"/><path d="M42 34.516V21.482c0 .235.086.505.086.761-.004 4.01.096 8.019.092 12.028 0 .258.102.523-.046.766-.03.021-.036.042-.067.063-.123.303-.514.551-.873.729.597-.114.808-.629.808-1.313zm.148-12.827a.316.316 0 0 1 .095-.114.598.598 0 0 0 0-.215c-.032.041-.063.082-.097.123v.191c0 .006 0 .011.002.015z"/><path d="M42.243 21.575c.041-.034.077-.07.146-.094l-.146-.121a.598.598 0 0 1 0 .215zm-.08.669c.013 4.19-.015 8.381.015 12.57.034-.166.055-.344.053-.535-.017-3.928-.01-7.854-.008-11.78 0-.279-.007-.559.01-.837l.013-.087a.345.345 0 0 0-.097.114c.044.181.013.372.014.555z"/><path d="M42.23 21.662c-.017.278-.008.558-.008.837-.002 3.927-.1 7.854-.082 11.78.003.194-.14.369-.14.535v.006c0 .072.111.144.092.216.146-.24.139-.509.139-.767.004-4.011.023-8.02.027-12.027 0-.256-.045-.525.12-.761-.067.023-.101.06-.142.094-.004.029 0 .058-.006.087zm-.082.027c-.002-.005-.002-.01-.002-.015v.021c0-.002 0-.004.002-.006z"/><path d="M42 34.914c0-.033.098-.063.104-.1-.026-4.189.035-8.38.022-12.57a2.356 2.356 0 0 0-.069-.555c0 .002-.057.004-.057.006v13.219zm.178-.1c-.007.035-.021.064-.031.1v.01c.014.037.022.075.035.112a.354.354 0 0 0-.004-.216v-.006zm-10.24-.496c-.015.041-.025.082-.053.121.024.015.049.026.071.041l-.019-.104v-.058zm-.032-12.944c.004.008.008.015.009.021.003-.01.008-.017.01-.025l-.019.004zm.073 2.363c-.002.55-.008 1.1-.006 1.65.006 2.781.034 5.562.03 8.343l-.003.588v.058c0 .035-.02.069-.014.104.021.002.021-.004.037-.017-.007-3.574-.035-7.15-.044-10.726z"/><path d="M31.916 21.396c.012.025.027.048.035.074.023.594.027 1.188.027 1.782l-.004-1.089c0-.26.021-.521.03-.78a.075.075 0 0 0-.058-.019c-.008 0-.016.004-.022.006 0 .009-.005.016-.008.026zm.003 4.979c-.006-1.586.001-3.171-.003-4.756a6.564 6.564 0 0 0-.007-.2c.002-.009.006-.015.007-.023-.001-.007-.005-.014-.009-.021-.013.004-.026.005-.039.01.005 4.353.012 8.705.019 13.057.024-.039.037-.08.053-.121-.045-2.65-.01-5.3-.021-7.946z"/><path d="M31.961 21.47c-.006-.026-.027-.049-.039-.074-.001.009-.009.015-.011.023.003.066.004.134.005.2.004 1.585-.002 3.17.003 4.756.011 2.646-.026 5.296.019 7.943.064-.19.033-.395.033-.588.004-2.781.018-5.563.012-8.343-.002-.55.019-1.1.019-1.65v-.485a46.017 46.017 0 0 0-.041-1.782zm-15.44-5.248a.434.434 0 0 0 .104-.234l.003-.252a.636.636 0 0 1-.134.367.774.774 0 0 0-.084.014.159.159 0 0 0 .015.105h.096zm.466-1.354h-.264c-.159.048-.144.164-.111.286-.001.126.014.254.021.381.018-.429.088-.601.354-.667zm4.785.12l-.066-.129-.285.001c.121.024.24.059.351.128z"/><path d="M16.987 14.868c-.267.065-.336.238-.354.667.004.067 0 .134-.006.2-.001.08-.002 0-.003.096-.007.094-.052.078-.104.078h.106c.126 0 .136-.195.112-.377-.078-.588.199-.645.74-.632 1.431.03 2.862.049 4.294.049-.111-.069-.231-.085-.351-.108-1.478.002-2.955.024-4.434.027zm-.239-.09a.342.342 0 0 1-.024.09.545.545 0 0 1 .137-.091l-.113.001zm4.605-.03c.12.025.238.063.354.111l-.147-.115-.2.001-.007.003z"/><path d="M17.792 14.842c1.059-.001 2.117.015 3.174.013.155 0 .307.055.455.055h.285c-.116 0-.234-.111-.354-.137-.07.014-.144.003-.218.003-.729.002-1.458-.007-2.188-.007-.696.006-1.392.027-2.087.032-.048.022-.094.108-.137.108h.264c.174 0 .422-.067.806-.067z"/><path d="M20.967 14.819c-1.058.003-2.115.001-3.174.002-.384 0-.632.004-.805.047l4.435-.008a2.25 2.25 0 0 0-.456-.041zm.379-.074l.007.003.006-.003h-.013zm-2.399.018c.729 0 1.458.002 2.188 0 .074 0 .147-.001.218-.015l-.007-.003-2.399.018zm19.584 25.555c.408.011.795-.094 1.171-.241-.511.002-1.005.146-1.507.231.114.005.225.01.336.01zm-2.237-.009c.054.041.104.082.157.123.04-.019.081-.035.121-.055.121-.029.244-.042.365-.057a3.541 3.541 0 0 0-.643-.011z"/><path d="M39.232 40.025c-.629.173-1.274.149-1.918.173-.4.014-.795-.138-1.195-.029l.175.14a3.17 3.17 0 0 1 .646.015c.418-.048.838-.025 1.258-.013.503-.086.994-.229 1.507-.231-.148-.128-.309-.101-.473-.055zm-13.604-.175c-.012-.008-.025-.013-.036-.021v.01l.036.011zm3.701.005h.31c-.01-.148-.019-.299-.027-.447-.021.238-.117.378-.283.447z"/><path d="M28.922 39.744c-1.11-.01-2.222-.003-3.332-.003l.002.088c.011.008.024.013.037.021 1.233.002 2.467.004 3.7.008.166-.069.262-.211.282-.447-.136.303-.393.336-.689.333zm-3.33.106h.036l-.036-.011v.011zm17.258.093l-.011.021h.198c-.062-.008-.126-.009-.187-.021zm3.291.02h.279l.098-.143a.334.334 0 0 1-.078-.146.522.522 0 0 1-.299.289z"/><path d="M46.141 39.909c.135 0 .239-.117.299-.261 0-.002-.004.01-.004.006a1.265 1.265 0 0 1 .006-.246l-.024-.118c-.095.451-.364.571-.821.574-.914.005-1.837-.154-2.744.052.063.011.125-.007.188-.007h3.1zm.341-.296l-.012-.062c-.013.041-.018.089-.031.123a.293.293 0 0 0 .078.146l.002-.034a.347.347 0 0 1-.037-.173z"/><path d="M46.436 39.668c0 .004.004.006.004.009.018-.034.021-.081.031-.122l-.029-.14c-.01.084-.012.169-.006.253zm-17.047.316h.123l.127-.129a.87.87 0 0 1-.326.095c.025.009.048.023.076.034z"/><path d="M25.658 39.909c-.037-.015-.058-.035-.07-.062l-.137.019.14.116c1.266.002 2.53.002 3.798.002a.374.374 0 0 0-.076-.034c-.053.006-.104.014-.155.013-1.168-.031-2.336.072-3.5-.054zm-.027-.059h-.003.003z"/><path d="M27.774 39.909c-.669.004-1.337.005-2.004-.021.014.002.025.008.039.01.656.015 1.31.013 1.965.011zm1.271 0a.838.838 0 0 1 .268.041.841.841 0 0 0 .326-.095h-.31a.675.675 0 0 1-.284.054z"/><path d="M25.631 39.909a.597.597 0 0 1 .14.01c.667.024 1.335.009 2.004.005.35 0 .702-.015 1.054-.015h.217c.114 0 .205.01.284-.022-1.233-.003-2.467.022-3.699.022-.001 0-.001 0 0 0z"/><path d="M27.774 39.907c-.655.002-1.31.015-1.965.001-.014-.002-.025.001-.039.001h-.182c.013 0 .033.016.07.03 1.164.125 2.332.006 3.496.037.054.002.104-.017.156-.021a.817.817 0 0 0-.268-.047h-.016c-.414.001-.833-.004-1.252-.001zm-2.003-.018a.745.745 0 0 1-.14-.039c.023.015.041.03.071.039h.069z"/><path d="M28.828 39.91c-.352-.003-.704-.001-1.054-.001.419-.002.838-.007 1.257.002l.014-.002c-.072 0-.146.002-.217.001zm-15.735-.025c.002-.004-.009-.012-.017-.02a.526.526 0 0 1-.141.033c-1.172-.013-2.345.072-3.515-.047a.641.641 0 0 1-.175-.111c-.06.121-.013.197.103.244l3.698-.017c.017-.026.036-.052.047-.082z"/><path d="M12.936 39.898a.76.76 0 0 0 .141-.033c-.006-.006-.009-.012-.014-.018-1.041.002-2.082.088-3.123.088-.202 0-.412-.026-.59-.026h-.104c.053 0 .11 0 .175.026 1.17.122 2.343-.046 3.515-.037zM26 39.836v-.013c-1-.104-.382-.284-.449-.446-.21-.503-.38-1.061-.679-1.529.199.668.347 1.338.545 2.006.051-.041.291-.052.354-.028.015.002.229.005.229.01z"/><path d="M25.582 39.823a.135.135 0 0 1 .008-.082c-.104-.296-.192-.601-.319-.886-.151-.345-.107-.787-.503-1.01.299.471.364 1.026.574 1.529.067.165.097.347.24.449zm.001.025l-.002-.012-.045-.013a.167.167 0 0 0-.17.028c.027.01.056.015.085.015.04-.046.085-.048.132-.018z"/><path d="M25.592 39.829l-.01-.006-.001.013.011.003v-.01zm-.002-.088a.121.121 0 0 0-.008.082l.01.006-.002-.088z"/><path d="M25.592 39.839l-.011-.003.002.012.009.002v-.011z"/><path d="M25.583 39.848c-.047-.029-.092-.024-.132.021l.137-.019-.005-.002z"/><path d="M25.592 39.85l-.009-.002.005.002h.004zm17.247.114a.862.862 0 0 0-.002.088h.185a.41.41 0 0 1-.183-.088zm3.584.095a.782.782 0 0 0-.003-.096.448.448 0 0 1-.204.096h.207zm-.704-.086c-.893-.06-1.789-.063-2.682-.063h-.198c.058 0 .118.1.183.113 1.064.002 2.131-.01 3.194-.008.072-.015.141-.105.204-.105h-.279c-.118-.001-.248.072-.422.063z"/><path d="M45.719 39.973c.174.012.307-.063.422-.063h-3.104a39.32 39.32 0 0 1 2.682.063zM14.351 23.267c.31-.518.401-1.115.62-1.666-.408.48-.462 1.092-.62 1.666z"/><path d="M14.351 23.267c.46-.461.568-1.053.62-1.666-.22.55-.311 1.148-.62 1.666zm1.62-4.804c-.323.21-.188.657-.46.894a.255.255 0 0 1 .079.11c.188-.307.269-.663.381-1.004z"/><path d="M15.508 19.804c.337-.384.486-.832.463-1.341-.111.341-.192.697-.381 1.004.035.112-.048.224-.082.337z"/><path d="M15.59 19.467a.255.255 0 0 0-.079-.11c.002.094-.039.187-.046.279.046-.053.087-.11.125-.169z"/><path d="M15.59 19.467c-.037.06-.079.116-.125.169-.008.06.008.12.043.168.034-.113.117-.225.082-.337zm11.557 12.549c.123.547.274 1.082.57 1.565-.164-.531-.304-1.071-.57-1.565z"/><path d="M27.147 32.016c.024.582.14 1.131.57 1.565-.295-.483-.446-1.018-.57-1.565zM10.441 35.59c.275-.404.312-.896.497-1.334-.355.374-.364.877-.497 1.334z"/><path d="M10.441 35.59c.39-.361.492-.829.497-1.334-.185.435-.221.93-.497 1.334zm17.826-.104c.128.447.197.918.476 1.301-.088-.46-.288-.878-.476-1.301z"/><path d="M28.755 36.829c-.003-.015-.01-.027-.013-.042-.278-.383-.348-.854-.476-1.301.011.52.134.998.44 1.412a.147.147 0 0 1 .049-.069z"/><path d="M28.707 36.898c.038.051.067.104.111.151l-.063-.223a.158.158 0 0 0-.048.072zM22.77 18.347c.107.43.201.865.469 1.234-.133-.422-.206-.864-.469-1.234z"/><path d="M22.77 18.347c.001.47.074.913.469 1.234-.268-.369-.363-.805-.469-1.234zm-7.677 15.241c-.31.355-.282.842-.472 1.243.356-.339.279-.842.472-1.243z"/><path d="M15.093 33.588c-.403.321-.435.784-.472 1.243.19-.401.162-.888.472-1.243zm-1.701 5.818c-.026-.271.084-.521.135-.778-.294.265-.222.636-.284.966l.149-.188z"/><path d="M13.2 39.646l.042-.054c.063-.329-.01-.7.284-.966-.331.27-.48.597-.326 1.02zm25.154.766h.004a.086.086 0 0 1 .088-.014l.087-.08c-.07.031-.142.039-.212.062.015.009.027.02.033.032zm-1.782-.035l.218.035c.013-.003.022-.003.035-.005a11.58 11.58 0 0 0-.253-.03z"/><path d="M37.254 40.354c-.105-.011-.21-.021-.314-.033-.123.016-.244.027-.367.058.086.008.171.021.255.03.14-.033.281-.048.426-.055zm.517.001c.179.008.354.015.533.011.008.004.008.01.016.014.07-.021.141-.028.211-.062-.111 0-.225-.006-.336-.01-.138.026-.281.04-.424.047z"/><path d="M37.771 40.355c.143-.01.285-.021.424-.047-.42-.015-.84-.035-1.258.012.104.013.211.021.314.033.177-.005.349-.001.52.002zm-.946.052c-.013.002-.022.002-.035.005h.08l-.045-.005zm1.529.005a.112.112 0 0 0-.033-.032l-.113.032h.146z"/><path d="M37.254 40.354a2.388 2.388 0 0 0-.429.055l.045.005h1.336l.114-.032c-.008-.004-.008-.01-.016-.014a7.9 7.9 0 0 1-.533-.012 2.58 2.58 0 0 1-.422.011 1.08 1.08 0 0 0-.095-.013z"/><path d="M37.254 40.354l.098.013c.144.014.281.001.422-.011-.174-.004-.346-.008-.52-.002zm-.925-5.424a.778.778 0 0 0 .269.658c-.09-.22-.179-.442-.269-.658z"/><path d="M36.598 35.588a.796.796 0 0 1-.269-.658c-.164.321.017.506.269.658zM16.612 15.154l-.077.087-.023.305-.018.557c.224-.293-.075-.652.118-.949z"/><path d="M16.634 15.535c-.007-.127-.022-.255-.021-.381-.193.297.105.655-.118.948a.643.643 0 0 0 .134-.367c0-.07.003-.139.005-.2z"/><path d="M16.634 15.535c-.002.061-.005.13-.006.2.006-.066.01-.132.006-.2zm24.341 23.999l.407-.242c-.166.03-.366.002-.407.242z"/><path d="M40.975 39.534c.041-.24.241-.212.407-.242-.23-.074-.439-.118-.407.242zm-4.87-6.395a1.03 1.03 0 0 1-.08-.017c.021.03.033.065.047.103.011-.03.02-.058.033-.086z"/><path d="M36.02 33.786c.025.012.056.021.082.03-.123-.198-.104-.396-.029-.594-.012-.035-.023-.07-.047-.103-.016.045-.028.091-.045.136.011.179.024.354.039.531z"/><path d="M36.086 33.254c-.012.141-.038.28-.004.421l.02.06c.002-.197.004-.396.004-.596-.014.028-.021.057-.033.086.003.009.01.018.013.029z"/><path d="M36.082 33.675c-.034-.141-.007-.28.004-.421-.003-.011-.01-.02-.014-.029-.076.196-.094.396.029.592v-.082c-.005-.021-.013-.042-.019-.06zm6.514 4.862l.021.418c.063-.142.113-.286-.021-.418z"/><path d="M42.596 38.537c.135.132.084.273.021.418.086-.144.214-.291-.021-.418zm.117 1.113a.084.084 0 0 0 .018.089c.078-.089.043-.197.057-.3-.011.079.008.163-.075.211z"/><path d="M42.76 39.374l-.047.276c.083-.049.064-.135.072-.211-.014.103.021.211-.057.3.075-.113.17-.225.032-.365zm-26.922-6.478c1.83-.004 3.659.014 5.489.014h.069c.578-.003 1.156-.002 1.734-.002-.07-.168-.222-.108-.34-.108-2.324-.004-4.649-.019-6.973-.019-.187 0-.376.129-.519.129h.165c.118-.001.25-.014.375-.014z"/><path d="M15.838 32.911c-.125 0-.257-.013-.374.028 1.954-.01 3.908-.021 5.863-.03-1.83 0-3.66-.001-5.489.002zm6.114-4.002c-.093 0-.206.159-.33.159-1.728-.01-3.458.08-5.185.017-.067-.021-.126-.037-.173-.09-.002-.01-.003-.154-.005-.164-.021.072-.043.078-.064.078h6.035-.278zm-5.815.155c-.012.037.008.086.051.141h.002c-.03-.049-.041-.096-.053-.141zm.041.141l.014.009-.002-.003-.012-.006z"/><path d="M16.189 28.985a.747.747 0 0 0-.189.002v.002c0 .01.133.018.135.026.047.053.17.09.238.11 1.727.063 3.49.017 5.218.024.123 0 .252-.02.345-.073l-5.41.021c-.104.003-.286.029-.337-.112zm-.001.22h-.01l.011.004-.001-.004zm.002.005z"/><path d="M21.855 29.268c-1.8.002-3.599.002-5.399 0-.123 0-.456.022-.456-.058v.002c0 .101.488-.303.651-.303h5.106c.168 0 .335.207.473.088-.112.094-.248.271-.375.271z"/><path d="M16.193 29.063c.109.08.237.131.359.131 1.768.002 3.535-.107 5.303-.109.127 0 .263-.173.375-.173h-6.035c-.001-.003-.001.149-.002.151zm-.007.144h.005v.002h-.005v-.002z"/><path d="M16.189 29.209l-.011-.004.012.006-.001-.002zm-3.853 10.587c.222.009.444-.002.666.004l.006.002-.027-.024.105-.022-3.736-.013c.993.123 1.991.021 2.986.053z"/><path d="M9.939 39.854c1.041 0 2.082-.004 3.123-.004l-.055-.048-.006-.002c-.221-.006-.444.005-.666-.004-.995-.032-1.993.07-2.986-.055.178.137.388.111.59.113zm3.069-.052c.023.001.042.011.063.017.006-.021.013-.043.016-.063-.035.009-.07.019-.105.022l.026.024zM13.008 39.802l.055.048c.004-.011.004-.021.008-.031-.021-.006-.04-.016-.063-.017zm5.916-20.217l.007-.003c-.099-.313.049-.585.185-.859-.389.29-.393.669-.247 1.082-.044-.089 0-.156.055-.22z"/><path d="M18.931 19.582l-.007.003c-.055.064-.099.131-.056.22l.092-.118c-.019-.037-.019-.07-.029-.105zm0 0c.012-.009.021-.009.032-.015.006-.289.133-.559.152-.845-.136.275-.283.547-.184.86z"/><path d="M18.931 19.582c.011.035.011.068.029.104-.005-.041.002-.08.003-.119-.012.006-.021.006-.032.015zm3.078 8.285c-.03-.295.007-.618-.333-.782.179.244.208.542.301.818l.032-.036z"/><path d="M21.977 27.903c-.093-.276-.122-.574-.301-.818-.053.332.196.586.23.895l.071-.077zm-2.618-8.435c.225-.315.206-.494-.057-.528.156.161.142.34.057.528z"/><path d="M19.303 18.939l.057.528c.084-.187.098-.366-.057-.528zm2.695 9.035c.077.22.167.437.125.678.197-.295.027-.537-.113-.784.027.064.016.092-.012.106z"/><path d="M21.906 27.979l.216.672c.042-.241-.048-.458-.125-.678a.142.142 0 0 1-.091.006z"/><path d="M21.985 27.934a.264.264 0 0 1 .012.04c.029-.014.04-.042.011-.106a1.164 1.164 0 0 0-.032.036l.009.03z"/><path d="M21.985 27.934l-.009-.03-.07.076c.041.008.07.004.091-.006a.264.264 0 0 0-.012-.04zm-3.897-5.789c-.111.175-.122.384-.102.59.127-.153.034-.407.238-.526-.033-.053-.058-.187-.136-.064z"/><path d="M17.986 22.734l.003-.002.011-.015-.014.017z"/><path d="M18 22.724c.212-.109.186-.327.225-.516-.204.119-.111.373-.238.526l.013-.017v.007z"/><path d="M17.989 22.732c-.179.23-.317.47-.133.767.004-.266.001-.532.141-.773l-.008.006z"/><path d="M17.997 22.726c-.14.241-.137.508-.141.773.127-.244.178-.502.144-.775l-.003.002zm.003-.009l-.011.015.008-.006.003-.009z"/><path d="M17.997 22.726l.003-.002v-.004l-.003.006zm-1.737 6.261c-.032-.189-.069-.378.054-.555-.122.201-.238.403-.177.632.01-.035.047-.061.123-.077zm-.068.227l.001-.002h-.002l.001.002z"/><path d="M16.26 28.987a1.05 1.05 0 0 0 .054-.555c-.124.177-.086.366-.054.555zm-.065.218l.064-.216v-.002c-.076.016-.112.042-.123.078.013.045.023.093.053.142l.006-.002zm.065-.218v.002-.002zm-.069.223l.001.003h-.001v-.003z"/><path d="M16.191 29.205h.003v.005h-.003v-.005zm.267-12.893c.011-.014.019-.028.031-.042a.202.202 0 0 1-.049-.009c.007.017.015.034.018.051z"/><path d="M16.488 16.27c-.012.014-.02.028-.031.042a.17.17 0 0 1-.027.133c.044.056.122.162.125.16.146-.102.04-.255.071-.384a.169.169 0 0 1-.138.049z"/><path d="M16.488 16.27c.012-.016.021-.032.032-.048h-.096c.009.013.009.025.015.039a.202.202 0 0 0 .049.009z"/><path d="M16.488 16.27a.164.164 0 0 0 .138-.049l-.106.001c-.011.015-.02.032-.032.048zm-.049-.009c-.005-.002-.009-.001-.014-.002l.003.096.029-.043a.155.155 0 0 0-.018-.051zm.019.051l-.029.043.002.09c.027-.039.037-.087.027-.133z"/><path d="M16.425 16.222l.001.037c.005.001.009 0 .014.002-.006-.014-.006-.027-.015-.039zm15.602 7.619c-.008 3.542.029 7.083-.021 10.625.101-.19.077-.397.077-.602.001-3.962.001-7.921-.001-11.881 0-.203.028-.412-.079-.601.058.82.026 1.64.024 2.459z"/><path d="M32 23.252v.485c0 3.576.01 7.152.02 10.729.049-3.542.006-7.083.016-10.625.002-.818.029-1.639-.023-2.458-.012.26-.021.521-.021.78-.004.363.008.727.008 1.089zm3.979 10.006c-.039.18-.233.371.039.528-.123-.168-.065-.348-.039-.528z"/><path d="M36.02 33.786c-.015-.177-.025-.353-.039-.528-.028.18-.086.36.039.528z"/></g></svg>