<svg xmlns="http://www.w3.org/2000/svg" width="57" height="57" viewBox="0 0 57 57"><path fill="#1E100D" d="M0 0v57h57V0H0zm54 54H3V3h51v51z"/><g fill="#1E100D"><path d="M28.469 38.797l-.026-.669c.153-.424.289-.847-.085-1.235-.036-.11-.072-.226-.11-.338.303-.375.301-1.31-.003-1.678l-.027-.667c.155-.426.291-.849-.085-1.237-.231-.3-.115-.646-.114-.97.004-.764-.014-1.522-.128-2.28.013-.125.065-.262-.089-.344l-.002-1.331-.005-.119-.014-.222c.008-.125.062-.262-.092-.344-.08-.93.122-1.87-.112-2.793.435-.573.127-1.222.174-1.834.004-.055-.119-.12-.184-.18L27.546 22c.254-.467.078-.971.122-1.456.017-.183.017-.378-.214-.453l-.021-.554c.221-.338.127-.703.091-1.063-.028.018-.058.031-.083.053-.014.01-.018.032-.025.049-.249-.02-.186.187-.213.311-1.523 6.86-3.297 13.661-4.868 20.511-.043.188-.021.422-.263.515-.139-.121-.309-.111-.475-.11l-3.059.018a24.694 24.694 0 0 0-.096-.336c.011-.014.031-.035.028-.043-.017-.023-.04-.045-.061-.066-.906-3.79-1.821-7.577-2.716-11.369-.588-2.485-1.148-4.978-1.721-7.467l-.061-.229c-.045-.222-.092-.443-.138-.665-.116-.421-.09-.877-.312-1.378l-.221 3.169c-.236 5.802-.801 11.582-1.234 17.369-.008.11-.031.223-.047.332-.174.061-.191.209-.2.36-.011.171-.091.298-.27.293-1.11-.03-2.226.135-3.329-.101a66.1 66.1 0 0 1-.008-.453l.047.015c.32-.336.33-.674.002-1.012a.152.152 0 0 1-.006-.107l.115-.118c.327-.334.328-.671.002-1.007a.15.15 0 0 1-.005-.104l.114-.121c.328-.334.328-.668.004-1.006a.134.134 0 0 1-.006-.104l.114-.12c.327-.335.327-.669.003-1.006a.146.146 0 0 1-.006-.105l.115-.121c.328-.334.327-.668.003-1.004a.144.144 0 0 1-.005-.106l.113-.119c.328-.334.328-.67.004-1.006a.13.13 0 0 1-.006-.104l.114-.121c.327-.336.331-.67-.001-1.006l-.005-.221a.495.495 0 0 1 .085-.011c.393-.32.349-.656.036-1.001a.147.147 0 0 1-.006-.105l.114-.119c.328-.334.328-.669.004-1.007a.14.14 0 0 1-.006-.106l.114-.12c.329-.334.328-.669.003-1.005a.152.152 0 0 1-.006-.107l.115-.119c.328-.334.326-.669.004-1.006a.144.144 0 0 1-.007-.106l.114-.12c.329-.334.328-.669.004-1.006a.14.14 0 0 1-.006-.106l.114-.12c.329-.333.327-.668.004-1.005a.15.15 0 0 1-.007-.106l.116-.12c.328-.334.326-.669.004-1.006a.155.155 0 0 1-.008-.106l.115-.119c.329-.334.328-.67.004-1.006a.142.142 0 0 1-.006-.107l.114-.119c.329-.334.327-.669.004-1.006a.152.152 0 0 1-.007-.107l.116-.119c.328-.334.326-.669.004-1.005a.147.147 0 0 1-.008-.107l.115-.119c.33-.334.326-.669.005-1.006a.14.14 0 0 1-.007-.106l.114-.12c.399-.348.187-.745.091-1.133a.213.213 0 0 1 .021-.099c.145-.048.219-.158.2-.299-.077-.594.289-.607.725-.602 1.192.015 2.386.024 3.578-.003.622-.014 1.204-.046 1.318.775.009.059.098.106.149.159.803 2.835 1.479 5.703 2.189 8.561.72 2.895 1.434 5.792 2.045 8.726.207-.133.166-.339.206-.51 1.284-5.427 2.719-10.815 4.092-16.221.018-.07.055-.137.084-.205.164-.185.354-.362.133-.628.021-.105.043-.211.063-.317l.086-.169.023-.164 5.379.003c-.076.382.053.745.105 1.114-.094.083-.086.16.012.234-.113.348.109.661.1.999-.094.081-.086.159.01.232-.08.381.055.742.105 1.11-.01.013-.029.027-.027.038.006.028.021.055.031.082-.076.381.053.743.107 1.112-.096.082-.086.16.01.234-.129.385.161.73.105 1.108-.01.013-.03.028-.027.038.005.029.02.056.031.083l-.006.038c-.004.067-.006.134-.008.2-.104.311.178.569.118.873-.01.013-.028.027-.026.038.006.028.021.055.031.082-.076.382.053.744.105 1.113-.012.012-.029.026-.027.037.006.027.021.055.031.081-.07.382.051.744.104 1.113-.094.079-.094.153.014.223a.136.136 0 0 0 .072-.002.432.432 0 0 0-.076.334c-.133.13-.063.192.076.231.014.371.023.742.035 1.113-.133.129-.063.191.078.23l.117.118a.144.144 0 0 1-.006.108c-.303.15-.24.352-.078.566-.123.314.154.58.104.885-.094.083-.084.16.013.234l.016.926a.325.325 0 0 0 .095.308c-.08.381.053.74.105 1.108-.01.013-.029.026-.027.037.006.028.021.055.031.082l.016.932c-.031.155-.021.302.104.417-.13.387.161.729.105 1.107-.013.013-.031.025-.028.037.006.027.021.057.032.082l-.008.039-.007.199c-.086.272.179.493.112.765-.092.079-.083.157.011.229-.075.381.052.743.104 1.111-.01.013-.028.027-.026.038.006.026.021.054.031.081l.018.025-.01.025-.007.188c-.102.311.164.57.115.875-.094.082-.086.16.011.232l-.009.035-.006.199c-.078.31.213.564.119.873-.011.016-.029.027-.027.039.007.027.021.057.031.082l.019.022-.021.019-.009.197v.41l.007.146.006-.006c-1.149-.004-2.301-.021-3.449-.006-.404.006-.652-.078-.604-.55.018-.178.028-.381-.206-.46zm6.558-17.58l.035-.005.006-.036 3.798-.004.006.037.038.008c.009 3.047.014 6.094.025 9.141.004.873.023 1.746.037 2.617-.037.721.09 1.416.361 2.078.406.98 1.152 1.489 2.215 1.506 1.229.021 2.25-.44 3.049-1.384.24-.149.172-.393.172-.606.002-4.418 0-8.833 0-13.251l.047.012c.971 0 1.939-.002 2.91-.001.772 0 .773.001.773.765.001 4.479-.001 8.956.006 13.437 0 .238-.123.539.203.693l.004.114c-.029.044-.063.088-.093.134.026.105-.054.258.124.305l-.002 1.011c-.131.114-.141.228.006.335l-.004.67c-.135.13-.063.191.074.23l.117.119a7.925 7.925 0 0 0-.004.219c-.246.529-.722.451-1.172.447-.535-.007-1.07-.019-1.604.004a1.506 1.506 0 0 1-.891-.228 12.47 12.47 0 0 1-.021-.334c.152-.283.242-.56-.082-.792-.229-.023-.313.182-.441.294-1.4 1.206-3.023 1.744-4.857 1.599-2.061-.164-3.459-1.244-4.229-3.154-.356-.893-.485-1.832-.61-2.774-.008-3.58-.021-7.16-.023-10.74 0-.827.018-1.646.027-2.466z"/><path d="M48.711 36.219c-.326-.154-.203-.453-.203-.693-.007-4.479-.005-8.956-.006-13.435 0-.764-.001-.765-.773-.765-.971-.001-1.939.001-2.912.001l.113-.182 3.674.004c.049.096.1.192.146.288-.008.817-.02 1.636-.021 2.453-.008 4.11-.012 8.219-.018 12.329zM16.299 15.866c-.051-.053-.141-.101-.149-.159-.114-.821-.696-.789-1.318-.775-1.192.027-2.386.018-3.578.003-.436-.006-.802.008-.725.602.019.141-.056.251-.2.299l-.038-.222c.11-.3-.155-.698.247-.919l5.26-.001c.505.245.354.773.501 1.172zm14.301-.925l-5.377-.003c-.001-.144.115-.185.212-.242l5.032.031-.006-.009.126.099a1.8 1.8 0 0 0 .013.124zm-2.131 23.856c.234.079.225.282.207.463-.049.471.199.555.604.549 1.148-.015 2.301.002 3.449.006l-.023.15c-1.338.01-2.678.02-4.015.027-.42-.335-.179-.791-.222-1.195zm16.801.784c.272.17.563.239.891.228.533-.021 1.068-.011 1.604-.006.45.006.926.083 1.172-.445.064.218-.045.401-.104.599-1.115.01-2.229.021-3.341.026-.111-.115-.286-.193-.222-.402zm-26.733.237l3.059-.018c.166-.001.336-.011.475.11a.149.149 0 0 0-.01.06l-3.467-.029-.057-.123zm-6.766.166c-1.197-.018-2.395-.032-3.592-.051l-.014-.013-.003-.23c1.104.232 2.219.067 3.329.1.179.005.259-.122.27-.293.009-.152.026-.303.2-.361-.006.296.058.606-.19.848zm15.795-17.427c.064.06.188.125.184.18-.047.612.261 1.261-.174 1.834l-.01-2.014zm-.114-2.465c.231.075.231.271.214.453-.044.485.132.989-.122 1.456-.182-.629-.073-1.272-.092-1.909zm.792 14.785c.305.368.307 1.303.003 1.678l-.003-1.678zm-.112-1.904c.376.389.24.813.085 1.237-.158-.403-.094-.821-.085-1.237zm.225 3.92c.374.391.238.813.085 1.235-.159-.401-.096-.819-.085-1.235zm-18.05-20.959c.096.388.309.785-.091 1.133-.013-.073-.024-.147-.036-.222l.035-.889.092-.022zm-.311 2.591c.322.336.324.671-.004 1.005a14.536 14.536 0 0 1-.037-.221l.041-.784zM8.987 29.613c.313.345.356.681-.036 1.001l-.004-.329.04-.672zm-.448 4.928c.324.337.324.671-.003 1.006-.013-.111-.024-.223-.039-.333l.042-.673zm-.111 1.23c.324.338.324.672-.004 1.006l-.037-.332.041-.674zm1.232-13.55c.322.337.324.672-.004 1.006l-.037-.333.041-.673zM8.314 37.005c.326.336.325.672-.002 1.006-.014-.11-.025-.223-.038-.334.014-.224.028-.448.04-.672zm1.794-19.712c.321.337.325.672-.005 1.006l-.037-.222c.014-.262.029-.522.042-.784zm-.56 6.16c.323.337.325.672-.004 1.005-.013-.11-.024-.222-.038-.333l.042-.672zm-.677 7.393c.332.334.328.67.001 1.006-.013-.11-.024-.224-.039-.334.014-.225.026-.45.038-.672zm-.107 1.231c.324.336.324.672-.004 1.006l-.037-.334.041-.672zm.447-4.928c.324.336.325.671-.003 1.005l-.036-.222.039-.783zm.113-1.232c.322.337.324.672-.004 1.006-.014-.111-.025-.223-.037-.334l.041-.672zm.56-6.16c.323.337.325.672-.004 1.006l-.037-.222.041-.784zm-.448 4.928c.324.337.325.672-.004 1.006l-.037-.333.041-.673zM9.1 28.381c.324.337.324.672-.004 1.006l-.037-.332.041-.674zm-.449 4.93c.324.336.325.67-.003 1.004a12.03 12.03 0 0 1-.037-.332l.04-.672zm1.12-12.322c.324.336.325.672-.004 1.006l-.037-.222.041-.784zM8.203 38.236c.328.339.318.677-.002 1.013l-.005-.563.008-.107-.001-.343zm36.961.219c.324.232.236.509.082.792a2.35 2.35 0 0 1-.082-.792zm-17.75-19.878c.008-.017.012-.039.025-.049.025-.021.055-.035.083-.053.036.359.13.725-.091 1.063-.044-.32-.085-.64-.017-.961zm4.307 9.25c-.162-.215-.225-.416.078-.566-.007.191.107.4-.078.566zm-6.672-12.238c.221.266.03.443-.133.628l.133-.628zm7.124 17.167c-.123-.117-.134-.262-.104-.417.185.1.107.268.104.417zm-.228-2.578a.318.318 0 0 1-.094-.306c.161.064.102.191.094.306zm-1.119-12.657c-.096-.073-.104-.151-.012-.232l.012.232zm1.01 11.425c-.096-.074-.105-.151-.011-.234l.011.234zm-.783-8.847c-.096-.074-.105-.152-.01-.234l.01.234zm1.566 17.695c-.096-.073-.104-.151-.01-.233.002.078.006.155.01.233zM30.717 16.29c-.097-.074-.105-.151-.012-.234l.012.234zm.783 8.837c-.105-.069-.105-.144-.012-.223l.012.223zm.893 10.09c-.094-.072-.102-.15-.011-.23l.011.23zm.212 2.812l.006-.2c.086.069.116.139-.006.2zm-.548-6.622c-.012-.027-.027-.054-.033-.082-.002-.011.02-.024.029-.037 0 .04.002.08.004.119zm-6.86-16.304l-.086.169.086-.169zm5.739 3.649c-.011-.027-.023-.054-.031-.082-.002-.011.02-.025.027-.038.002.04.004.08.004.12zm1.793 20.271a.913.913 0 0 1-.031-.082c-.002-.012.02-.024.027-.039.002.041.004.08.004.121zm-.012.241l.008-.197c.086.067.113.133-.008.197zm-1.555-17.936c-.012-.027-.025-.054-.031-.083-.003-.01.018-.025.027-.038l.004.121zM18.409 39.373c.021.021.044.043.061.068.003.006-.018.026-.028.041l-.033-.109zm12.739-17.807c.002-.066.004-.133.008-.2.086.07.114.137-.008.2zm1.575 18.252l-.006-.146c.101.047.115.096.006.146zm-.23-3.132l.007-.187c.096.065.107.129-.007.187zm-.211-2.702c-.011-.027-.026-.055-.032-.084-.002-.01.018-.024.027-.037l.005.121zM31.271 22.56a.372.372 0 0 1-.031-.082c-.002-.011.019-.025.027-.038.003.039.004.08.004.12zm.999 11.663l.006-.199c.085.068.115.135-.006.199zm-.887-10.432c-.012-.026-.025-.054-.031-.081-.002-.011.02-.025.027-.037l.004.118zm1.118 12.656c-.01-.027-.024-.055-.03-.081-.003-.011.018-.025.026-.038.003.04.004.079.004.119zm-.892-9.643c.115.047.096.139.076.23-.138-.039-.208-.101-.076-.23zm-.111-1.345c.115.048.096.14.077.231-.141-.039-.21-.101-.077-.231zm17.248 13.328c.113.048.096.14.076.23-.14-.038-.209-.1-.076-.23zm-.002-1.005c.002.11.003.224.006.335-.145-.108-.137-.221-.006-.335zm-.012-1.337l-.11.021c.03-.045.062-.089.093-.133l.017.112z"/></g></svg>