<svg xmlns="http://www.w3.org/2000/svg" width="52" height="52" viewBox="214.75 0 52 52"><path d="M235.4 20.939v-9.264c0-.55.39-.775.866-.5l6.29 3.632 1.732 1 6.29 3.632c.477.275.477.725 0 1l-6.29 3.632-1.732 1-6.29 3.635c-.477.274-.866.05-.866-.5v-7.267z" opacity=".4"/><radialGradient id="a" cx="957.82" cy="-9056.397" r="17.061" gradientTransform="matrix(1.1083 0 0 -.1273 -820.952 -1103.082)" gradientUnits="userSpaceOnUse"><stop offset="0" stop-color="#ffe120"/><stop offset=".417" stop-color="#ffe120" stop-opacity=".584"/><stop offset="1" stop-color="#ffe120" stop-opacity=".003"/></radialGradient><path opacity=".9" fill="url(#a)" d="M240.602 47.594c10.289 0 18.631.986 18.631 2.203S250.891 52 240.602 52c-10.293 0-18.635-.986-18.635-2.203s8.342-2.203 18.635-2.203z"/><path fill="none" stroke="#000" stroke-miterlimit="10" d="M259.545 33.591a2.91 2.91 0 0 1-2.909 2.909H225.61a2.91 2.91 0 0 1-2.908-2.909V3.535A2.91 2.91 0 0 1 225.61.626h31.026a2.91 2.91 0 0 1 2.909 2.909v30.056z"/><path fill="#FFF" stroke="#000" stroke-linejoin="round" stroke-miterlimit="10" d="M234.451 18.563V9.299l8.022 4.632 8.023 4.632-8.023 4.632-8.022 4.634z"/></svg>