<svg xmlns="http://www.w3.org/2000/svg" width="36.793" height="36.792" viewBox="0 0 36.793 36.792"><path fill="#1E100D" d="M35.793 31.539a4.252 4.252 0 0 1-4.252 4.254H5.252A4.253 4.253 0 0 1 1 31.539V5.254A4.253 4.253 0 0 1 5.252 1h26.287a4.253 4.253 0 0 1 4.254 4.252v26.287z"/><linearGradient id="a" gradientUnits="userSpaceOnUse" x1="309.852" y1="-163.268" x2="342.152" y2="-195.57" gradientTransform="matrix(1 0 0 -1 -307.606 -161.023)"><stop offset="0" stop-color="#fff" stop-opacity=".3"/><stop offset="1" stop-color="#ffd820" stop-opacity="0"/></linearGradient><path fill="url(#a)" d="M35.793 31.539a4.252 4.252 0 0 1-4.252 4.254H5.252A4.253 4.253 0 0 1 1 31.539V5.254A4.253 4.253 0 0 1 5.252 1h26.287a4.253 4.253 0 0 1 4.254 4.252v26.287z"/><path fill="none" stroke="#FC3" stroke-width="2" stroke-miterlimit="10" d="M35.793 31.539a4.252 4.252 0 0 1-4.252 4.254H5.252A4.253 4.253 0 0 1 1 31.539V5.254A4.253 4.253 0 0 1 5.252 1h26.287a4.253 4.253 0 0 1 4.254 4.252v26.287z"/><path fill="#FC3" d="M33.043 10.32a16.855 16.855 0 0 0-6.156-6.155c-2.593-1.513-5.42-2.269-8.49-2.269-3.068 0-5.899.756-8.491 2.269a16.852 16.852 0 0 0-6.155 6.155c-1.513 2.592-2.269 5.422-2.269 8.491 0 3.685 1.076 7 3.226 9.943 2.151 2.943 4.93 4.981 8.336 6.11.396.074.69.023.88-.152a.864.864 0 0 0 .287-.661l-.011-1.189c-.008-.748-.012-1.401-.012-1.96l-.505.088c-.324.06-.731.086-1.222.078a9.42 9.42 0 0 1-1.531-.156 3.406 3.406 0 0 1-1.476-.659 2.792 2.792 0 0 1-.969-1.354l-.22-.508c-.146-.338-.378-.711-.693-1.123-.316-.411-.636-.689-.958-.838l-.155-.11a1.576 1.576 0 0 1-.286-.265 1.194 1.194 0 0 1-.198-.308c-.044-.104-.008-.188.109-.253.117-.067.331-.1.639-.1l.44.065c.294.06.658.235 1.091.528a3.57 3.57 0 0 1 1.068 1.146c.338.603.744 1.06 1.222 1.377.478.315.958.472 1.442.472s.903-.036 1.255-.109c.353-.073.683-.184.991-.33.133-.984.493-1.74 1.079-2.269a15.212 15.212 0 0 1-2.257-.397 8.899 8.899 0 0 1-2.07-.859 5.937 5.937 0 0 1-1.774-1.474c-.469-.588-.855-1.359-1.155-2.313-.301-.956-.451-2.058-.451-3.304 0-1.777.58-3.29 1.74-4.538-.543-1.334-.491-2.83.156-4.49.425-.133 1.057-.032 1.894.297.837.33 1.449.614 1.838.848.39.234.701.434.936.595a15.669 15.669 0 0 1 4.229-.572c1.453 0 2.862.191 4.23.572l.836-.529a11.9 11.9 0 0 1 2.026-.969c.777-.293 1.371-.373 1.784-.242.66 1.66.72 3.156.176 4.494 1.16 1.247 1.74 2.76 1.74 4.537 0 1.246-.151 2.352-.453 3.313-.301.963-.688 1.733-1.166 2.313a6.176 6.176 0 0 1-1.784 1.465 8.911 8.911 0 0 1-2.07.858c-.668.177-1.42.309-2.258.397.764.661 1.146 1.703 1.146 3.127v4.647c0 .264.093.484.276.66s.473.228.869.153c3.407-1.13 6.186-3.167 8.335-6.111 2.151-2.943 3.228-6.258 3.228-9.943-.001-3.067-.758-5.897-2.269-8.489zm0 0"/></svg>