<svg xmlns="http://www.w3.org/2000/svg" width="52" height="52" viewBox="0 0 52 52"><path d="M30.811 16.348l-3.396 3.398 3.268 3.267-.868.868-3.268-3.268-3.425 3.427-.926-.926 3.427-3.426-3.268-3.269.866-.866 3.268 3.268 3.399-3.398.923.925z" opacity=".4"/><radialGradient id="a" cx="764.056" cy="-9056.397" r="17.061" gradientTransform="matrix(1.1083 0 0 -.1273 -820.952 -1103.082)" gradientUnits="userSpaceOnUse"><stop offset="0" stop-color="#ffe120"/><stop offset=".417" stop-color="#ffe120" stop-opacity=".584"/><stop offset="1" stop-color="#ffe120" stop-opacity=".003"/></radialGradient><path opacity=".9" fill="url(#a)" d="M25.852 47.594c10.289 0 18.631.986 18.631 2.203S36.141 52 25.852 52c-10.293 0-18.635-.986-18.635-2.203s8.342-2.203 18.635-2.203z"/><path d="M26.5 36.938c-10.184 0-18.469-8.285-18.469-18.469S16.316 0 26.5 0s18.469 8.285 18.469 18.469S36.684 36.938 26.5 36.938zm0-35.642C17.03 1.296 9.327 9 9.327 18.469c0 9.469 7.703 17.173 17.173 17.173s17.173-7.704 17.173-17.173C43.673 9 35.97 1.296 26.5 1.296z"/><path d="M30.811 15.527l-3.396 3.398 3.268 3.267-.868.868-3.268-3.268-3.425 3.428-.926-.927 3.427-3.426-3.268-3.27.866-.866L26.487 18l3.399-3.398.925.925z"/></svg>