<svg xmlns="http://www.w3.org/2000/svg" width="456" height="427" viewBox="0 0 456 427"><path d="M112.725 247.19a6.173 6.173 0 0 0-.791-2.032 5.307 5.307 0 0 0-1.367-1.454 5.952 5.952 0 0 0-1.824-.877 7.718 7.718 0 0 0-2.138-.288c-1.309 0-2.424.247-3.355.736a6.567 6.567 0 0 0-2.292 1.972c-.607.825-1.045 1.771-1.332 2.83a12.501 12.501 0 0 0-.428 3.306 14 14 0 0 0 .428 3.535c.287 1.115.725 2.084 1.332 2.905a6.464 6.464 0 0 0 2.31 1.977c.934.492 2.061.738 3.365.738.96 0 1.811-.16 2.557-.478a5.742 5.742 0 0 0 1.933-1.313 6.262 6.262 0 0 0 1.273-2.011 8.35 8.35 0 0 0 .548-2.502h2.904c-.282 2.732-1.242 4.877-2.863 6.424-1.626 1.556-3.823 2.328-6.592 2.328-1.691 0-3.173-.294-4.443-.889-1.258-.593-2.313-1.396-3.156-2.417-.834-1.022-1.465-2.225-1.876-3.613-.415-1.387-.628-2.872-.628-4.466 0-1.599.22-3.088.676-4.487.446-1.4 1.102-2.615 1.97-3.658.865-1.041 1.943-1.862 3.23-2.46 1.287-.605 2.772-.905 4.467-.905 1.145 0 2.219.152 3.243.46a8.617 8.617 0 0 1 2.728 1.344 7.435 7.435 0 0 1 1.989 2.222c.529.882.878 1.908 1.039 3.073h-2.907zm20.895 15.529c-.468.272-1.085.414-1.849.414-.671 0-1.2-.189-1.598-.553-.384-.371-.59-.962-.59-1.778-.701.816-1.523 1.407-2.462 1.778a8.341 8.341 0 0 1-3.041.553 8.28 8.28 0 0 1-2.016-.238 4.64 4.64 0 0 1-1.65-.739 3.7 3.7 0 0 1-1.108-1.313c-.271-.53-.408-1.175-.408-1.932 0-.853.149-1.55.454-2.091.31-.545.704-.983 1.199-1.313a5.987 5.987 0 0 1 1.694-.772 17.963 17.963 0 0 1 1.957-.448 21.494 21.494 0 0 1 2.005-.302c.639-.073 1.2-.169 1.686-.296.484-.124.868-.305 1.15-.553.289-.241.425-.595.425-1.059 0-.547-.107-.983-.324-1.31a2.041 2.041 0 0 0-.815-.757 3.223 3.223 0 0 0-1.116-.347 8.113 8.113 0 0 0-1.228-.091c-1.088 0-1.999.201-2.725.598-.722.396-1.119 1.149-1.183 2.257h-2.573c.046-.931.24-1.719.606-2.363a4.499 4.499 0 0 1 1.459-1.554 6.252 6.252 0 0 1 2.085-.86 11.45 11.45 0 0 1 2.479-.256c.709 0 1.413.047 2.107.143a5.814 5.814 0 0 1 1.893.595 3.612 3.612 0 0 1 1.36 1.266c.346.545.514 1.252.514 2.127v7.732c0 .584.038 1.008.104 1.281.074.269.314.407.719.407.238 0 .502-.047.789-.145v1.919zm-4.182-7.705a2.876 2.876 0 0 1-.899.407c-.373.096-.757.174-1.154.244-.408.071-.834.134-1.294.178-.447.049-.89.114-1.315.19-.425.078-.83.167-1.217.287a3.594 3.594 0 0 0-.993.48 2.368 2.368 0 0 0-.681.776c-.175.307-.262.694-.262 1.158 0 .41.087.753.262 1.036.174.283.397.509.67.684.269.173.585.3.948.375.366.078.75.117 1.15.117.848 0 1.574-.11 2.184-.333.604-.224 1.096-.506 1.485-.842.381-.343.663-.705.841-1.104.182-.403.275-.774.275-1.122v-2.531zm6.895-7.711h2.476v2.848h.066c.562-.952 1.276-1.658 2.156-2.118.871-.454 1.894-.684 3.054-.684 1.058 0 1.93.141 2.63.415.701.279 1.273.671 1.706 1.167.442.495.736 1.086.921 1.77.17.684.262 1.444.262 2.275v10.125h-2.641v-10.423c0-.945-.286-1.702-.865-2.26-.578-.557-1.377-.832-2.385-.832-.806 0-1.503.117-2.097.357a3.884 3.884 0 0 0-1.468 1.012 4.256 4.256 0 0 0-.883 1.533c-.202.587-.29 1.224-.29 1.922v8.691h-2.643v-15.798zm30.646 15.362c-.46.276-1.077.404-1.848.404-.66 0-1.19-.177-1.585-.552-.393-.365-.589-.956-.589-1.77-.704.814-1.527 1.405-2.469 1.77-.935.375-1.946.552-3.038.552a8.3 8.3 0 0 1-2.008-.233 4.483 4.483 0 0 1-1.654-.738 3.726 3.726 0 0 1-1.099-1.304c-.271-.536-.411-1.179-.411-1.936 0-.851.153-1.55.457-2.092.3-.544.704-.98 1.193-1.31a6.245 6.245 0 0 1 1.69-.771 21.46 21.46 0 0 1 1.949-.447 24.741 24.741 0 0 1 2.021-.31c.631-.058 1.188-.16 1.677-.284.485-.128.864-.31 1.144-.555.286-.241.43-.598.43-1.059 0-.546-.108-.976-.32-1.306a2.116 2.116 0 0 0-.816-.76 3.505 3.505 0 0 0-1.116-.347 8.9 8.9 0 0 0-1.228-.089c-1.092 0-1.995.199-2.728.595-.719.399-1.113 1.154-1.176 2.255h-2.566c.039-.931.236-1.716.6-2.351a4.502 4.502 0 0 1 1.45-1.558 6.273 6.273 0 0 1 2.094-.856 11.267 11.267 0 0 1 2.476-.265c.708 0 1.41.051 2.104.148.7.092 1.325.295 1.891.595a3.578 3.578 0 0 1 1.359 1.264c.353.544.516 1.252.516 2.122v7.725c0 .584.036 1.01.109 1.282.065.272.3.407.711.407.24 0 .502-.049.781-.145v1.919zm-4.171-7.697c-.24.17-.545.301-.911.404-.355.098-.742.18-1.147.245-.404.07-.829.13-1.283.173-.456.054-.896.116-1.314.195a9.346 9.346 0 0 0-1.21.29 3.183 3.183 0 0 0-.997.478c-.29.199-.514.457-.681.771-.171.309-.262.694-.262 1.161 0 .408.091.75.262 1.03.167.279.391.506.655.682.279.178.597.301.96.378a5.64 5.64 0 0 0 1.15.118c.848 0 1.573-.112 2.177-.339.603-.216 1.095-.499 1.482-.839.383-.336.666-.708.851-1.107.178-.394.269-.769.269-1.116v-2.524zm6.87-7.64h2.473v3.691h.057c.638-1.246 1.422-2.169 2.347-2.757.924-.594 2.092-.868 3.513-.832v2.671c-1.05 0-1.94.134-2.683.406-.736.281-1.336.688-1.789 1.221-.453.528-.778 1.186-.99 1.955-.199.771-.304 1.637-.304 2.603v6.813h-2.623v-15.771zm13.783-3.197h-2.71v-3.181h2.71v3.181zm-2.71 3.129h2.71v15.783h-2.71V247.26zm20.134 15.459c-.46.272-1.08.414-1.845.414-.666 0-1.203-.189-1.594-.553-.397-.371-.593-.962-.593-1.778-.708.816-1.527 1.407-2.463 1.778a8.363 8.363 0 0 1-3.048.553c-.707 0-1.37-.079-2.013-.238a4.65 4.65 0 0 1-1.649-.739 3.7 3.7 0 0 1-1.108-1.313c-.269-.53-.401-1.175-.401-1.932 0-.853.146-1.55.45-2.091a3.718 3.718 0 0 1 1.195-1.313 5.987 5.987 0 0 1 1.698-.772 18.182 18.182 0 0 1 1.951-.448 21.608 21.608 0 0 1 2.011-.302 12.205 12.205 0 0 0 1.686-.296c.484-.124.868-.305 1.151-.553.285-.241.425-.595.425-1.059 0-.547-.111-.983-.317-1.31a2.115 2.115 0 0 0-.823-.757 3.234 3.234 0 0 0-1.123-.347 7.984 7.984 0 0 0-1.221-.091c-1.088 0-1.998.201-2.728.598-.725.396-1.119 1.149-1.171 2.257h-2.581c.041-.931.24-1.719.604-2.363a4.52 4.52 0 0 1 1.45-1.554 6.357 6.357 0 0 1 2.093-.86 11.46 11.46 0 0 1 2.483-.256c.708 0 1.409.047 2.106.143a5.797 5.797 0 0 1 1.89.595 3.594 3.594 0 0 1 1.364 1.266c.342.545.513 1.252.513 2.127v7.732c0 .584.031 1.008.112 1.281.066.269.306.407.707.407.241 0 .507-.047.788-.145v1.919zm-4.179-7.705a2.833 2.833 0 0 1-.909.407 17.293 17.293 0 0 1-2.441.422c-.45.049-.89.114-1.315.19-.421.078-.83.167-1.21.287a3.473 3.473 0 0 0-.997.48 2.366 2.366 0 0 0-.688.776c-.167.307-.254.694-.254 1.158 0 .41.087.753.254 1.036.175.283.401.509.674.684.271.173.586.3.952.375.362.078.743.117 1.147.117.848 0 1.576-.11 2.18-.333.606-.224 1.099-.506 1.488-.842.377-.343.666-.705.852-1.104.175-.403.268-.774.268-1.122v-2.531zm9.553 3.008c.018.568.15 1.033.395 1.404.245.368.559.662.955.885a4.3 4.3 0 0 0 1.337.481 7.707 7.707 0 0 0 1.538.148c.397 0 .823-.031 1.273-.092a4.87 4.87 0 0 0 1.229-.316c.374-.159.681-.381.925-.685.24-.305.363-.69.363-1.151 0-.484-.146-.884-.443-1.182-.289-.307-.673-.551-1.147-.743a9.169 9.169 0 0 0-1.639-.485c-.622-.123-1.256-.254-1.908-.392-.646-.13-1.272-.3-1.88-.499a6.753 6.753 0 0 1-1.636-.76 3.59 3.59 0 0 1-1.171-1.196c-.294-.481-.438-1.083-.438-1.801 0-.755.179-1.409.534-1.955a4.181 4.181 0 0 1 1.368-1.323 6.093 6.093 0 0 1 1.88-.76 8.789 8.789 0 0 1 2.077-.251c.869 0 1.682.075 2.442.223.76.141 1.423.396 1.998.753a3.937 3.937 0 0 1 1.384 1.465c.35.616.552 1.374.614 2.286h-2.587c-.032-.485-.175-.895-.409-1.21a2.745 2.745 0 0 0-.844-.774 3.878 3.878 0 0 0-1.129-.422 6.067 6.067 0 0 0-1.257-.13c-.383 0-.777.028-1.171.085a4.148 4.148 0 0 0-1.075.309 2.089 2.089 0 0 0-.787.605c-.202.251-.304.565-.304.94 0 .446.15.808.464 1.086.317.271.714.5 1.2.688.494.185 1.035.343 1.639.47.61.127 1.225.262 1.824.393.645.138 1.283.302 1.897.492a6.401 6.401 0 0 1 1.639.772 3.82 3.82 0 0 1 1.154 1.21c.293.478.439 1.083.439 1.798 0 .898-.195 1.644-.597 2.256a4.396 4.396 0 0 1-1.545 1.466 7.003 7.003 0 0 1-2.151.785c-.799.159-1.598.238-2.386.238-.893 0-1.727-.096-2.504-.283-.785-.185-1.476-.471-2.079-.872a4.471 4.471 0 0 1-1.454-1.575c-.366-.647-.565-1.444-.61-2.38h2.583z" fill="#D44C91"/><g fill="#D44C91"><path d="M260.102 230.84v-1.165c0-.317-.303-.356-.303-.356l-.949-.1c-.771-.088-.732-.103-1.008-.209-.461-.176-.492-.389-.716-.65-.265-.315-.313-1.447-.323-2.546l.01.005V209.943c-.027-.531-.182-1.798-.275-2.382-.221-1.352-.712-1.997-1.479-3.28-.75-1.26-1.618-1.749-2.563-2.474-.956-.736-2.326-1.167-3.767-1.528a59.69 59.69 0 0 0-1.322-.227 8.884 8.884 0 0 0-1.073-.089l-.046-.01c-.028 0-.063.007-.095.007a1.463 1.463 0 0 0-.177-.011c-.363 0-.715.028-1.068.066-1.472.139-2.775.591-4.171 1.247a18.06 18.06 0 0 0-2.641 1.536c-.963.667-1.813 1.442-2.584 2.115l-.359-.481a8.843 8.843 0 0 0-1.523-1.758 10.597 10.597 0 0 0-2.139-1.498 13.168 13.168 0 0 0-2.444-.994 8.905 8.905 0 0 0-2.476-.361c-2.041 0-4.057.3-5.825 1.228-1.925 1.008-3.373 2.173-4.815 3.451l.023-4.053c0-.785-.422-.785-.781-.785-.269 0-.854.159-1.555.466-.705.312-1.462.666-2.274 1.065-.816.397-1.583.787-2.302 1.162-.729.378-.858.526-1.168.701 0 0-2.344 1.469.069 2.71.391.192.753.385 1.099.563.331.176.488.333.621.464.224.265.453.884.547 1.878l-.021 15.292h-.008l-.014 2.949c-.035.675-.114 1.241-.296 1.447-.224.262-.426.474-.882.65-.276.106-.412.121-1.176.209l-.698.1s-.306.039-.306.356v1.165s-.039.312.306.312h11.92c.343 0 .305-.312.305-.312v-1.165c0-.317-.305-.356-.305-.356l-.955-.1c-.764-.088-.899-.103-1.176-.209-.45-.176-.655-.389-.879-.65-.181-.206-.261-.772-.296-1.451l-.008-1.113h.011v-15.326c.038-5.291 4.903-6.333 4.903-6.333s10.031-2.45 10.327 5.636v14.871l-.014-.004c0 1.313.035 3.231-.353 3.69-.219.267-.426.478-.879.652-.279.106-.24.12-1.007.212l-.454.098s-.304.033-.304.35v1.176s-.041.312.304.312h6.71l.021.021h5.157c.091 0 .049-.312.049-.312v-1.165c0-.317-.303-.356-.303-.356l-.945-.1c-.774-.088-.572-.103-.844-.209-.457-.176-.579-.389-.802-.65-.266-.323-.363-1.459-.374-2.563v-.757l.011-14.594c.015-1.667.474-2.912 1.096-3.829a6.731 6.731 0 0 1 1.998-1.857c.84-.495 1.523-.648 1.523-.648s.464-.121 1.19-.222c.177-.012.358-.026.554-.033 2.742-.269 7.771.047 7.977 5.917v12.056l-.015 2.255v.323l.011.265c0 1.31.018 3.228-.362 3.688-.224.262-.426.474-.883.65-.274.106-.24.121-1.007.209l-.87.1s-.3.039-.3.356v1.165s-.044.312.3.312h11.608c.348.001.307-.311.307-.311zm36.266-28.505l.294-.254c4.146-.49 7.655-1.286 10.536-2.396l.589.42c-.24 2.788-.366 6.689-.366 11.72v1.512l.098 10.184c0 3.515-.289 6.755-.879 9.735-.589 2.987-1.904 5.528-3.958 7.645-2.047 2.122-4.411 3.181-7.094 3.181-.149 0-.383-.01-.69-.035l-.332-1.819.301-.416c.478.047.861.065 1.144.065.719 0 1.427-.195 2.125-.591.693-.392 1.335-1.002 1.896-1.836.565-.825.98-1.859 1.246-3.08.262-1.228.443-3.139.541-5.741.098-2.614.142-4.353.142-5.226v-14.219c0-.856-.031-2.008-.107-3.465-.08-1.461-.144-2.374-.216-2.731-.066-.365-.244-.623-.541-.769-.296-.146-.84-.22-1.653-.22l-2.779-.031-.294-.258v-1.375zm8.211-15.334c1.001 0 1.862.347 2.588 1.034.711.69 1.07 1.55 1.07 2.569 0 .979-.359 1.822-1.07 2.53-.726.694-1.587 1.048-2.588 1.048-1.025 0-1.897-.354-2.62-1.048-.71-.708-1.07-1.551-1.07-2.53 0-.998.36-1.851 1.07-2.547.723-.706 1.595-1.056 2.62-1.056zm34.182 38.527l-1.025 2.29c-2.222 1.43-4.191 2.347-5.929 2.771-1.74.426-3.293.644-4.655.644-2.551 0-4.974-.502-7.269-1.503-2.295-.99-4.158-2.686-5.595-5.057-1.443-2.375-2.162-5.242-2.162-8.596 0-2.23.282-4.24.83-6.033.562-1.787 1.137-3.125 1.748-3.993.605-.871 1.635-1.836 3.086-2.898a20.366 20.366 0 0 1 4.607-2.544c1.618-.64 3.361-.959 5.238-.959 2.561 0 4.81.605 6.763 1.802 1.946 1.2 3.313 2.736 4.104 4.6.792 1.862 1.183 3.85 1.183 5.95 0 .661-.028 1.292-.098 1.915l-.088.608c-1.437.197-3.658.269-6.11.375-2.451.106-4.073.162-4.865.162h-10.257c.046 4.393 1.151 7.628 3.324 9.705 2.169 2.083 4.837 3.122 7.993 3.122 1.489 0 2.923-.254 4.294-.766 1.381-.506 2.831-1.217 4.369-2.129l.514.534zm-20.493-13.015c.381.061 1.855.141 4.419.223 2.577.082 4.485.127 5.717.127 2.964 0 4.764-.06 5.395-.162.028-.504.035-.896.035-1.179 0-3.283-.666-5.733-2.009-7.333-1.35-1.606-3.181-2.406-5.503-2.406-2.532 0-4.51.903-5.929 2.705-1.416 1.804-2.125 4.479-2.125 8.025z"/><path d="M297.366 230.84v-1.338c0-.354-.296-.396-.296-.396l-2.106-.182c-.739-.077-1.503-.166-1.779-.279-.271-.109-.509-.326-.718-.643-.21-.316-.373-2.206-.381-3.688h.008c-.105-4.909-.157-7.526-.157-7.846v-5.641c0-4.314.115-7.87.362-10.665l-.628-.418c-2.832 1.104-6.319 1.897-10.448 2.392a1.155 1.155 0 0 0-.318.068c-.369.145-.627.485-.627.88 0 .41.261.757.652.895.072.022.156.047.247.054.01 0 .032.004.046.004h.097l2.603.027c.857 0 1.416.082 1.698.241.286.159.453.417.514.757.048.344.125 1.247.205 2.722.095 1.472.136 2.644.136 3.489v3.461l-.098 3.594c-.041 1.766-.133 2.846-.261 3.235-.126.381-.639 1.126-1.524 2.237a8.855 8.855 0 0 1-3.285 2.579c-1.305.612-2.756.914-4.354.914-1.437 0-2.682-.281-3.721-.846-1.054-.57-1.786-1.384-2.211-2.45-.43-1.071-.646-2.971-.646-5.701v-7.47c0-4.314.126-7.87.363-10.665l-.622-.418c-2.855 1.114-6.148 1.897-10.309 2.396h-.007c-.095.01-.185.031-.276.064-.358.145-.623.485-.623.88 0 .41.274.757.651.895.112.036.228.058.36.058l2.458.027c.847 0 1.415.082 1.701.241.276.159.446.417.503.757.053.344.129 1.247.209 2.722.091 1.472.136 2.644.136 3.489v6.25l-.035 2.53c0 3.266.286 5.569.852 6.907.569 1.334 1.531 2.382 2.895 3.146 1.367.753 3.261 1.128 5.713 1.128 1.607 0 3.049-.225 4.314-.675.45-.159.868-.333 1.244-.522.005 0 3.673-1.569 6.418-4.982l-.031 5.219s-.077.848.443.924h10.337c.335.004.296-.357.296-.357zm67.277-31.095c-.049 0-.101 0-.149.007-.049-.007-.098-.007-.15-.007-.872 0-1.719.155-2.546.46a6.725 6.725 0 0 0-2.183 1.289c-.618.558-1.337 1.345-2.146 2.37l-2.448 3.107c.066-3.224.16-5.467.292-6.731l-.62-.43c-2.855 1.135-6.368 1.953-10.536 2.458l-.254.262v1.405l.289.259 2.755.035c.845 0 1.416.085 1.699.244.282.16.446.422.508.765.054.354.115 1.276.21 2.782.084 1.503.125 2.7.125 3.559v6.445c0 1.221-.045 3.026-.143 5.408-.069 1.609-.126 2.774-.185 3.486-.066.547-.14.956-.227 1.086-.213.324-.45.537-.722.643-.271.114-1.043.206-1.775.283l-2.106.182s-.297.039-.297.403v1.344s-.045.357.297.357h.015l.01.021.083-.021h15.628c.342 0 .301-.357.301-.357v-1.344c0-.364-.301-.403-.301-.403l-2.099-.182c-.74-.077-1.511-.169-1.785-.283-.27-.106-.504-.319-.716-.643-.049-.068-.098-.237-.144-.471-.083-.578-.16-1.986-.236-4.211-.092-2.555-.129-4.152-.129-4.809v-3.627c0-1.986.17-3.627.505-4.919a6.205 6.205 0 0 1 2.006-3.238 5.26 5.26 0 0 1 3.03-1.273 4.37 4.37 0 0 0 4.144 2.944c2.42 0 4.381-1.936 4.381-4.322-.001-2.394-1.961-4.333-4.381-4.333z"/></g><path fill="#D44C91" d="M181.212 220.763h1.328c.206 0 .279.296.279.296.042 1.773.966 6.483 4.063 7.46 1.605.506 2.658.474 4.183.474 2.187 0 3.926-.601 5.237-1.808 1.306-1.214 1.964-2.651 1.964-4.318 0-.914-.24-1.705-.715-2.372-.471-.665-1.192-1.217-2.148-1.651-.955-.433-2.668-.953-5.133-1.537-2.132-.516-3.607-.91-4.455-1.193-.84-.29-1.655-.771-2.437-1.444a6.777 6.777 0 0 1-1.793-2.499c-.412-.986-.621-2.069-.621-3.255 0-2.837 1.096-5.109 3.293-6.818 2.192-1.706 4.928-2.559 8.198-2.559 1.382 0 2.885.201 4.51.59 1.621.391 2.863.769 3.708 1.13l.274.444c-.159.846-.265 3.069-.303 6.669l-.279.286h-1.241c-.241-.134-.282-.396-.282-.396-.192-3.058-1.444-4.282-1.444-4.282-.597-.605-1.437-1.115-2.532-1.528a9.572 9.572 0 0 0-3.456-.621c-1.263 0-2.313.188-3.167.577a4.765 4.765 0 0 0-2.067 1.728c-.53.767-.789 1.709-.789 2.809 0 .804.157 1.522.475 2.163a3.72 3.72 0 0 0 1.469 1.54c.659.389 1.35.671 2.071.839l3.362.891c2.884.722 4.945 1.348 6.201 1.873 1.245.53 2.208 1.333 2.884 2.401.677 1.069 1.015 2.372 1.015 3.891 0 2.93-1.172 5.428-3.519 7.533-2.348 2.096-5.368 3.139-9.051 3.139-1.298 0-2.333-.017-4.262-.314-1.921-.294-3.121-.69-3.927-1.419 0 0-1.238-.907-1.228-3.189v-1.032c.018-.666.038-1.61.059-3.744 0-.001-.07-.741.276-.754zm-19.325-25.81l4.632-5.491c1.21-1.434 2.19-2.612 2.926-3.528 1.523-1.568 2.741-2.351 3.654-2.351.517 0 .983.23 1.396.684.408.461.62.949.62 1.472 0 .914-.543 1.744-1.624 2.488l-9.968 6.726h-1.636zm17.466 35.922v-1.181c0-.309-.259-.343-.259-.343l-1.831-.157c-.645-.069-1.084-.151-1.321-.244-.236-.101-.443-.29-.62-.568-.185-.281-.276-1.702-.276-3.015v-9.615l.158-6.483c0-1.85-.36-3.469-1.089-4.858-.732-1.385-1.907-2.548-3.547-3.468-1.625-.928-3.672-1.39-6.135-1.39-3.167 0-6.41 1.09-9.734 3.28l-.558.393a6.23 6.23 0 0 0-.667.619c-.554.588-1.111 1.214-1.174 2.461.003.045 0 .109.003.158.174 1.674 1.67 2.984 3.501 2.984 1.939 0 3.509-1.474 3.509-3.303 0-1.008-.481-1.908-1.234-2.517.14-.052.286-.11.45-.165 1.015-.372 2.148-.55 3.394-.55 2.382 0 4.279.648 5.695 1.948 1.416 1.304 2.12 3.544 2.12 6.732-8.796 1.25-14.177 2.757-16.144 4.534-1.981 1.77-2.966 4.246-2.966 7.402 0 1.59.332 2.949.98 4.066.653 1.12 1.598 1.994 2.828 2.616 1.231.626 2.71.931 4.43.931 1.276 0 2.462-.206 3.561-.619 0 0 4.297-1.42 7.311-5.607l-.027 5.464s-.074.743.38.811h9.004c.296-.001.258-.316.258-.316zm-9.616-8.602c-2.79 3.313-5.608 4.972-8.461 4.972-3.32 0-4.983-1.681-4.983-5.035 0-2.436.742-4.234 2.215-5.39 1.485-1.165 5.22-2.252 11.229-3.267v8.72zm-21.337 8.588v-1.17c0-.319-.29-.354-.29-.354l-.935-.096c-.746-.092-.722-.104-.986-.206-.447-.183-.476-.392-.701-.661-.259-.316-.311-1.444-.314-2.551h.004V209.912c-.021-.536-.171-1.809-.262-2.396-.209-1.345-.698-2-1.443-3.278-.74-1.273-1.591-1.754-2.519-2.49-.932-.729-2.261-1.165-3.683-1.526a37.213 37.213 0 0 0-1.29-.227 8.67 8.67 0 0 0-1.051-.092l-.045-.007c-.031 0-.063.004-.088.004-.069 0-.122-.004-.181-.004-.362 0-.702.023-1.043.068-1.44.138-2.714.588-4.088 1.249-.924.451-1.754.949-2.57 1.53-.945.676-1.788 1.451-2.539 2.127l-.345-.484a8.738 8.738 0 0 0-1.5-1.76 10.23 10.23 0 0 0-2.096-1.5 12.571 12.571 0 0 0-2.386-.999 8.558 8.558 0 0 0-2.424-.368c-1.995 0-3.973.301-5.706 1.232-1.876 1.011-3.289 2.173-4.701 3.463l.018-4.064c-.004-.784-.411-.784-.761-.784-.268 0-.847.155-1.527.464-.691.316-1.429.668-2.225 1.065-.799.403-1.552.789-2.253 1.167-.718.377-.833.536-1.147.708 0 0-2.288 1.469.077 2.712.381.193.732.389 1.064.569.328.174.484.329.617.467.216.256.443.882.53 1.88l-.007 15.326h-.014l-.015 2.959c-.042.682-.115 1.238-.29 1.451-.22.269-.418.478-.865.661-.269.103-.405.114-1.151.206l-.687.096s-.297.035-.297.354v1.17s-.038.319.297.319h11.669c.338 0 .297-.319.297-.319v-1.17a.343.343 0 0 0-.297-.354l-.931-.096c-.75-.092-.886-.104-1.151-.206-.446-.183-.648-.392-.868-.661-.172-.213-.251-.776-.286-1.451l-.007-1.126.007.01v-15.368c.045-5.305 4.803-6.35 4.803-6.35s9.817-2.455 10.104 5.652v14.913l-.004-.007c0 1.316.032 3.238-.349 3.697-.219.267-.418.481-.864.663-.269.103-.237.113-.983.206l-.443.097s-.297.033-.297.351v1.179s-.035.312.297.312h6.563l.024.028h5.04c.094 0 .056-.319.056-.319v-1.17a.343.343 0 0 0-.297-.354l-.935-.096c-.75-.092-.551-.104-.816-.206-.453-.183-.564-.392-.787-.661-.263-.316-.36-1.461-.363-2.57v-.754l.003-14.635c.015-1.671.468-2.916 1.078-3.844a6.618 6.618 0 0 1 1.96-1.858c.819-.499 1.486-.65 1.486-.65s.456-.121 1.168-.22c.174-.014.349-.031.533-.035 2.682-.269 7.613.049 7.809 5.934v12.088l-.007 2.262h.004l-.004.326.004.258c0 1.313.028 3.235-.346 3.699-.223.269-.425.478-.868.661-.271.103-.24.114-.99.206l-.848.096s-.293.035-.293.354v1.17s-.046.319.293.319h11.362c.337-.001.292-.32.292-.32z"/></svg>