<svg xmlns="http://www.w3.org/2000/svg" xmlns:xlink="http://www.w3.org/1999/xlink" width="187" height="186.932" viewBox="0 0 187 186.932"><circle fill="#FAFAFA" cx="95.434" cy="94.706" r="89.575"/><image overflow="visible" opacity=".3" width="195" height="195" xlink:href="9EE5E0EA.png" transform="translate(-4.322 -4.253)"/><path fill="#FFF" d="M93.5 2.5C43.289 2.5 2.501 43.165 2.501 93.373c0 50.21 40.563 91.059 91.172 91.059 27.25 0 52.92-11.964 70.306-33.142 13.311-16.215 20.52-37.112 20.52-57.551C184.498 42.157 143.708 2.5 93.5 2.5zm63.99 143.466c-15.781 19.229-39.484 30.073-63.816 30.073-47.689 0-82.781-36.99-82.781-82.573 0-45.585 36.968-82.572 82.548-82.572 45.584 0 82.667 36.13 82.667 82.848-.003 19.462-6.54 37.507-18.618 52.224z"/><path fill="#FFD820" d="M186.966 93.288c0 52-41.971 93.678-93.562 93.678-51.587 0-93.37-41.909-93.37-93.5 0-51.587 40.747-93.5 93.747-93.5v8.623c-48 0-85.123 38.102-85.123 84.938 0 46.833 38.004 84.816 84.842 84.816 46.836 0 84.843-36.058 84.843-85.057h8.623v.002z"/><path fill="none" d="M14.79 86.953h160.874v16.146H14.79z"/><path d="M51.3 99.115h-2.383V87.692h6.547v1.984H51.3v2.945h3.875v1.977H51.3v4.517zm11.086-8.9c.323 0 .591.022.805.07l-.18 2.233a2.735 2.735 0 0 0-.703-.078c-.761 0-1.353.195-1.777.586-.425.392-.637.938-.637 1.642v4.444h-2.383v-8.733h1.805l.352 1.469h.117a3.295 3.295 0 0 1 1.098-1.184 2.707 2.707 0 0 1 1.503-.449zm7.938 8.9l-.461-1.188H69.8c-.401.505-.814.855-1.238 1.051-.425.195-.978.293-1.66.293-.839 0-1.499-.238-1.98-.719-.482-.479-.723-1.161-.723-2.047 0-.927.324-1.61.973-2.051.649-.441 1.626-.685 2.934-.73l1.516-.047v-.383c0-.886-.453-1.328-1.359-1.328-.698 0-1.519.211-2.461.633l-.789-1.609c1.005-.525 2.12-.788 3.344-.788 1.172 0 2.07.255 2.695.766s.938 1.286.938 2.328v5.819h-1.666zm-.703-4.048l-.922.031c-.693.021-1.208.146-1.547.375-.339.229-.508.578-.508 1.047 0 .672.385 1.008 1.156 1.008.552 0 .993-.158 1.324-.477.331-.317.496-.739.496-1.266l.001-.718zm12.882 4.048H80.12v-5.103c0-.63-.112-1.103-.336-1.418-.224-.315-.581-.473-1.07-.473-.667 0-1.148.223-1.445.668-.297.444-.445 1.184-.445 2.215v4.108h-2.383v-8.733h1.82l.32 1.117h.133a2.515 2.515 0 0 1 1.098-.957c.466-.216.996-.324 1.59-.324 1.016 0 1.786.274 2.313.824.526.55.789 1.343.789 2.379l-.001 5.697zm6 .155c-2.719 0-4.078-1.492-4.078-4.477 0-1.484.37-2.618 1.109-3.402.739-.784 1.799-1.176 3.18-1.176 1.01 0 1.917.198 2.719.594l-.703 1.844c-.375-.15-.724-.273-1.047-.37a3.32 3.32 0 0 0-.969-.146c-1.24 0-1.859.88-1.859 2.641 0 1.708.62 2.563 1.859 2.563a4.28 4.28 0 0 0 1.273-.184c.39-.122.781-.313 1.172-.574v2.039a3.85 3.85 0 0 1-1.168.508c-.393.093-.889.14-1.488.14zm8.634 0c-1.406 0-2.507-.388-3.298-1.164-.792-.775-1.188-1.875-1.188-3.297 0-1.464.366-2.595 1.098-3.395.731-.8 1.743-1.199 3.035-1.199 1.233 0 2.194.352 2.883 1.055s1.03 1.675 1.03 2.914v1.156h-5.633c.025.677.228 1.206.603 1.586s.899.57 1.578.57c.524 0 1.022-.056 1.491-.164.47-.109.959-.284 1.47-.523v1.844a5.681 5.681 0 0 1-1.336.466c-.474.1-1.052.151-1.733.151zm-.337-7.36c-.506 0-.901.159-1.188.479-.286.32-.45.774-.491 1.363h3.344c-.011-.589-.164-1.043-.461-1.363s-.699-.479-1.204-.479zm-1.375-2.492v-.211c.896-1.042 1.509-1.825 1.837-2.353h2.672v.164c-.271.271-.733.673-1.388 1.207-.653.534-1.166.932-1.534 1.191l-1.587.002zm13.305 7.102c0 .896-.313 1.578-.935 2.047-.623.47-1.554.703-2.793.703a8.755 8.755 0 0 1-1.625-.129 6.156 6.156 0 0 1-1.258-.379v-1.969c.442.208.94.383 1.496.522.555.141 1.043.211 1.465.211.864 0 1.297-.25 1.297-.75a.627.627 0 0 0-.172-.457c-.115-.116-.313-.25-.595-.397-.28-.148-.655-.321-1.125-.521-.672-.28-1.166-.542-1.479-.78a2.209 2.209 0 0 1-.688-.824c-.144-.311-.215-.691-.215-1.146 0-.775.301-1.376.902-1.801s1.454-.637 2.559-.637c1.053 0 2.076.229 3.07.688l-.719 1.72a13.044 13.044 0 0 0-1.227-.461 3.859 3.859 0 0 0-1.164-.181c-.703 0-1.055.19-1.055.57 0 .214.112.398.34.555.227.157.723.389 1.487.695.683.276 1.183.534 1.5.773.317.238.552.516.703.827.155.316.231.688.231 1.121zm5.243-.719v-1.953h4.194v1.953h-4.194zm17.257 3.314l-.828-2.72h-4.164l-.828 2.72h-2.61l4.031-11.47h2.961l4.047 11.47h-2.609zm-1.406-4.75a695.285 695.285 0 0 1-1.293-4.181 10.4 10.4 0 0 1-.207-.766c-.172.667-.664 2.314-1.477 4.944h2.977v.003zm10.625 4.75h-2.414v-6.609l.023-1.086.039-1.188a13.31 13.31 0 0 1-.836.789l-1.314 1.056-1.163-1.453 3.68-2.931h1.983v11.423h.002zM186.966 93.288h-8.623c0-25-11.141-49.354-30.898-65.569C132.323 15.309 113.783 8.59 93.783 8.59V-.031c21 0 42.472 7.408 59.132 21.084 21.758 17.86 34.051 44.235 34.051 72.235z"/></svg>