<?xml version="1.0" encoding="utf-8"?>
<!-- Generator: Adobe Illustrator 16.0.0, SVG Export Plug-In . SVG Version: 6.00 Build 0)  -->
<!DOCTYPE svg PUBLIC "-//W3C//DTD SVG 1.1//EN" "http://www.w3.org/Graphics/SVG/1.1/DTD/svg11.dtd">
<svg version="1.1" id="Capa_1" xmlns="http://www.w3.org/2000/svg" xmlns:xlink="http://www.w3.org/1999/xlink" x="0px" y="0px"
	 width="57px" height="57px" viewBox="0 0 57 57" enable-background="new 0 0 57 57" xml:space="preserve">
<path fill="#1E100D" d="M0,0v57h57V0H0z M54,54H3V3h51V54z"/>
<g>
	<path fill="#1E100D" d="M28.469,38.797l-0.026-0.669c0.153-0.424,0.289-0.847-0.085-1.235c-0.036-0.11-0.072-0.226-0.11-0.338
		c0.303-0.375,0.301-1.31-0.003-1.678l-0.027-0.667c0.155-0.426,0.291-0.849-0.085-1.237c-0.231-0.3-0.115-0.646-0.114-0.97
		c0.004-0.764-0.014-1.522-0.128-2.28c0.013-0.125,0.065-0.262-0.089-0.344L27.8,28.048l-0.005-0.119l-0.014-0.222
		c0.008-0.125,0.062-0.262-0.092-0.344c-0.08-0.93,0.122-1.87-0.112-2.793c0.435-0.573,0.127-1.222,0.174-1.834
		c0.004-0.055-0.119-0.12-0.184-0.18L27.546,22c0.254-0.467,0.078-0.971,0.122-1.456c0.017-0.183,0.017-0.378-0.214-0.453
		l-0.021-0.554c0.221-0.338,0.127-0.703,0.091-1.063c-0.028,0.018-0.058,0.031-0.083,0.053c-0.014,0.01-0.018,0.032-0.025,0.049
		c-0.249-0.02-0.186,0.187-0.213,0.311c-1.523,6.86-3.297,13.661-4.868,20.511c-0.043,0.188-0.021,0.422-0.263,0.515
		c-0.139-0.121-0.309-0.111-0.475-0.11l-3.059,0.018c-0.031-0.111-0.063-0.224-0.096-0.336c0.011-0.014,0.031-0.035,0.028-0.043
		c-0.017-0.023-0.04-0.045-0.061-0.066c-0.906-3.79-1.821-7.577-2.716-11.369c-0.588-2.485-1.148-4.978-1.721-7.467l-0.061-0.229
		c-0.045-0.222-0.092-0.443-0.138-0.665c-0.116-0.421-0.09-0.877-0.312-1.378l-0.221,3.169c-0.236,5.802-0.801,11.582-1.234,17.369
		c-0.008,0.11-0.031,0.223-0.047,0.332c-0.174,0.061-0.191,0.209-0.2,0.36c-0.011,0.171-0.091,0.298-0.27,0.293
		c-1.11-0.03-2.226,0.135-3.329-0.101c-0.003-0.15-0.006-0.301-0.008-0.453l0.047,0.015c0.32-0.336,0.33-0.674,0.002-1.012
		c-0.015-0.034-0.017-0.071-0.006-0.107l0.115-0.118c0.327-0.334,0.328-0.671,0.002-1.007c-0.014-0.033-0.016-0.07-0.005-0.104
		l0.114-0.121c0.328-0.334,0.328-0.668,0.004-1.006c-0.016-0.033-0.018-0.07-0.006-0.104l0.114-0.12
		c0.327-0.335,0.327-0.669,0.003-1.006c-0.015-0.033-0.017-0.07-0.006-0.105l0.115-0.121c0.328-0.334,0.327-0.668,0.003-1.004
		c-0.015-0.033-0.017-0.071-0.005-0.106l0.113-0.119c0.328-0.334,0.328-0.67,0.004-1.006c-0.016-0.032-0.019-0.071-0.006-0.104
		l0.114-0.121c0.327-0.336,0.331-0.67-0.001-1.006c-0.002-0.074-0.004-0.147-0.005-0.221c0.028-0.006,0.057-0.01,0.085-0.011
		c0.393-0.32,0.349-0.656,0.036-1.001c-0.015-0.033-0.017-0.071-0.006-0.105l0.114-0.119c0.328-0.334,0.328-0.669,0.004-1.007
		c-0.016-0.033-0.018-0.071-0.006-0.106l0.114-0.12c0.329-0.334,0.328-0.669,0.003-1.005c-0.015-0.034-0.017-0.072-0.006-0.107
		l0.115-0.119c0.328-0.334,0.326-0.669,0.004-1.006c-0.016-0.033-0.018-0.071-0.007-0.106l0.114-0.12
		c0.329-0.334,0.328-0.669,0.004-1.006c-0.016-0.033-0.018-0.071-0.006-0.106l0.114-0.12c0.329-0.333,0.327-0.668,0.004-1.005
		c-0.015-0.033-0.018-0.071-0.007-0.106l0.116-0.12c0.328-0.334,0.326-0.669,0.004-1.006c-0.015-0.033-0.018-0.071-0.008-0.106
		l0.115-0.119c0.329-0.334,0.328-0.67,0.004-1.006c-0.016-0.034-0.018-0.072-0.006-0.107l0.114-0.119
		c0.329-0.334,0.327-0.669,0.004-1.006c-0.015-0.034-0.018-0.072-0.007-0.107l0.116-0.119c0.328-0.334,0.326-0.669,0.004-1.005
		c-0.016-0.034-0.019-0.072-0.008-0.107l0.115-0.119c0.33-0.334,0.326-0.669,0.005-1.006c-0.016-0.033-0.019-0.071-0.007-0.106
		l0.114-0.12c0.399-0.348,0.187-0.745,0.091-1.133c-0.001-0.034,0.006-0.068,0.021-0.099c0.145-0.048,0.219-0.158,0.2-0.299
		c-0.077-0.594,0.289-0.607,0.725-0.602c1.192,0.015,2.386,0.024,3.578-0.003c0.622-0.014,1.204-0.046,1.318,0.775
		c0.009,0.059,0.098,0.106,0.149,0.159c0.803,2.835,1.479,5.703,2.189,8.561c0.72,2.895,1.434,5.792,2.045,8.726
		c0.207-0.133,0.166-0.339,0.206-0.51c1.284-5.427,2.719-10.815,4.092-16.221c0.018-0.07,0.055-0.137,0.084-0.205
		c0.164-0.185,0.354-0.362,0.133-0.628c0.021-0.105,0.043-0.211,0.063-0.317l0.086-0.169l0.023-0.164l5.379,0.003
		c-0.076,0.382,0.053,0.745,0.105,1.114c-0.094,0.083-0.086,0.16,0.012,0.234c-0.113,0.348,0.109,0.661,0.1,0.999
		c-0.094,0.081-0.086,0.159,0.01,0.232c-0.08,0.381,0.055,0.742,0.105,1.11c-0.01,0.013-0.029,0.027-0.027,0.038
		c0.006,0.028,0.021,0.055,0.031,0.082c-0.076,0.381,0.053,0.743,0.107,1.112c-0.096,0.082-0.086,0.16,0.01,0.234
		c-0.129,0.385,0.161,0.73,0.105,1.108c-0.01,0.013-0.03,0.028-0.027,0.038c0.005,0.029,0.02,0.056,0.031,0.083l-0.006,0.038
		c-0.004,0.067-0.006,0.134-0.008,0.2c-0.104,0.311,0.178,0.569,0.118,0.873c-0.01,0.013-0.028,0.027-0.026,0.038
		c0.006,0.028,0.021,0.055,0.031,0.082c-0.076,0.382,0.053,0.744,0.105,1.113c-0.012,0.012-0.029,0.026-0.027,0.037
		c0.006,0.027,0.021,0.055,0.031,0.081c-0.07,0.382,0.051,0.744,0.104,1.113c-0.094,0.079-0.094,0.153,0.014,0.223
		c0.023,0.006,0.049,0.005,0.072-0.002c-0.07,0.096-0.098,0.217-0.076,0.334c-0.133,0.13-0.063,0.192,0.076,0.231
		c0.014,0.371,0.023,0.742,0.035,1.113c-0.133,0.129-0.063,0.191,0.078,0.23l0.117,0.118c0.012,0.035,0.01,0.074-0.006,0.108
		c-0.303,0.15-0.24,0.352-0.078,0.566c-0.123,0.314,0.154,0.58,0.104,0.885c-0.094,0.083-0.084,0.16,0.013,0.234l0.016,0.926
		c-0.025,0.112,0.011,0.229,0.095,0.308c-0.08,0.381,0.053,0.74,0.105,1.108c-0.01,0.013-0.029,0.026-0.027,0.037
		c0.006,0.028,0.021,0.055,0.031,0.082l0.016,0.932c-0.031,0.155-0.021,0.302,0.104,0.417c-0.13,0.387,0.161,0.729,0.105,1.107
		c-0.013,0.013-0.031,0.025-0.028,0.037c0.006,0.027,0.021,0.057,0.032,0.082l-0.008,0.039l-0.007,0.199
		c-0.086,0.272,0.179,0.493,0.112,0.765c-0.092,0.079-0.083,0.157,0.011,0.229c-0.075,0.381,0.052,0.743,0.104,1.111
		c-0.01,0.013-0.028,0.027-0.026,0.038c0.006,0.026,0.021,0.054,0.031,0.081l0.018,0.025l-0.01,0.025l-0.007,0.188
		c-0.102,0.311,0.164,0.57,0.115,0.875c-0.094,0.082-0.086,0.16,0.011,0.232l-0.009,0.035l-0.006,0.199
		c-0.078,0.31,0.213,0.564,0.119,0.873c-0.011,0.016-0.029,0.027-0.027,0.039c0.007,0.027,0.021,0.057,0.031,0.082l0.019,0.022
		l-0.021,0.019l-0.009,0.197v0.41l0.007,0.146l0.006-0.006c-1.149-0.004-2.301-0.021-3.449-0.006
		c-0.404,0.006-0.652-0.078-0.604-0.55C28.693,39.079,28.703,38.876,28.469,38.797z M35.027,21.217l0.035-0.005l0.006-0.036
		l3.798-0.004l0.006,0.037l0.038,0.008c0.009,3.047,0.014,6.094,0.025,9.141c0.004,0.873,0.023,1.746,0.037,2.617
		c-0.037,0.721,0.09,1.416,0.361,2.078c0.406,0.98,1.152,1.489,2.215,1.506c1.229,0.021,2.25-0.44,3.049-1.384
		c0.24-0.149,0.172-0.393,0.172-0.606c0.002-4.418,0-8.833,0-13.251l0.047,0.012c0.971,0,1.939-0.002,2.91-0.001
		c0.772,0,0.773,0.001,0.773,0.765c0.001,4.479-0.001,8.956,0.006,13.437c0,0.238-0.123,0.539,0.203,0.693l0.004,0.114
		c-0.029,0.044-0.063,0.088-0.093,0.134c0.026,0.105-0.054,0.258,0.124,0.305l-0.002,1.011c-0.131,0.114-0.141,0.228,0.006,0.335
		l-0.004,0.67c-0.135,0.13-0.063,0.191,0.074,0.23l0.117,0.119c-0.002,0.072-0.004,0.146-0.004,0.219
		c-0.246,0.529-0.722,0.451-1.172,0.447c-0.535-0.007-1.07-0.019-1.604,0.004c-0.313,0.019-0.625-0.061-0.891-0.228
		c-0.008-0.111-0.016-0.223-0.021-0.334c0.152-0.283,0.242-0.56-0.082-0.792c-0.229-0.023-0.313,0.182-0.441,0.294
		c-1.4,1.206-3.023,1.744-4.857,1.599c-2.061-0.164-3.459-1.244-4.229-3.154c-0.356-0.893-0.485-1.832-0.61-2.774
		c-0.008-3.58-0.021-7.16-0.023-10.74C35,22.856,35.018,22.037,35.027,21.217z"/>
	<path fill="#1E100D" d="M48.711,36.219c-0.326-0.154-0.203-0.453-0.203-0.693c-0.007-4.479-0.005-8.956-0.006-13.435
		c0-0.764-0.001-0.765-0.773-0.765c-0.971-0.001-1.939,0.001-2.912,0.001l0.113-0.182l3.674,0.004
		c0.049,0.096,0.1,0.192,0.146,0.288c-0.008,0.817-0.02,1.636-0.021,2.453C48.721,28,48.717,32.109,48.711,36.219z M16.299,15.866
		c-0.051-0.053-0.141-0.101-0.149-0.159c-0.114-0.821-0.696-0.789-1.318-0.775c-1.192,0.027-2.386,0.018-3.578,0.003
		c-0.436-0.006-0.802,0.008-0.725,0.602c0.019,0.141-0.056,0.251-0.2,0.299l-0.038-0.222c0.11-0.3-0.155-0.698,0.247-0.919
		l5.26-0.001C16.303,14.939,16.152,15.467,16.299,15.866z M30.6,14.941l-5.377-0.003c-0.001-0.144,0.115-0.185,0.212-0.242
		l5.032,0.031l-0.006-0.009l0.126,0.099C30.59,14.858,30.594,14.899,30.6,14.941L30.6,14.941z M28.469,38.797
		c0.234,0.079,0.225,0.282,0.207,0.463c-0.049,0.471,0.199,0.555,0.604,0.549c1.148-0.015,2.301,0.002,3.449,0.006l-0.023,0.15
		c-1.338,0.01-2.678,0.02-4.015,0.027C28.271,39.657,28.512,39.201,28.469,38.797z M45.27,39.581
		c0.272,0.17,0.563,0.239,0.891,0.228c0.533-0.021,1.068-0.011,1.604-0.006c0.45,0.006,0.926,0.083,1.172-0.445
		c0.064,0.218-0.045,0.401-0.104,0.599c-1.115,0.01-2.229,0.021-3.341,0.026C45.381,39.868,45.206,39.79,45.27,39.581z
		 M18.537,39.818l3.059-0.018c0.166-0.001,0.336-0.011,0.475,0.11c-0.007,0.019-0.011,0.038-0.01,0.06l-3.467-0.029L18.537,39.818z
		 M11.771,39.984c-1.197-0.018-2.395-0.032-3.592-0.051L8.165,39.92l-0.003-0.23c1.104,0.232,2.219,0.067,3.329,0.1
		c0.179,0.005,0.259-0.122,0.27-0.293c0.009-0.152,0.026-0.303,0.2-0.361C11.955,39.432,12.019,39.742,11.771,39.984z
		 M27.566,22.557c0.064,0.06,0.188,0.125,0.184,0.18c-0.047,0.612,0.261,1.261-0.174,1.834L27.566,22.557z M27.452,20.092
		c0.231,0.075,0.231,0.271,0.214,0.453c-0.044,0.485,0.132,0.989-0.122,1.456C27.362,21.372,27.471,20.729,27.452,20.092z
		 M28.244,34.877c0.305,0.368,0.307,1.303,0.003,1.678L28.244,34.877z M28.132,32.973c0.376,0.389,0.24,0.813,0.085,1.237
		C28.059,33.807,28.123,33.389,28.132,32.973z M28.357,36.893c0.374,0.391,0.238,0.813,0.085,1.235
		C28.283,37.727,28.346,37.309,28.357,36.893z M10.307,15.934c0.096,0.388,0.309,0.785-0.091,1.133
		c-0.013-0.073-0.024-0.147-0.036-0.222l0.035-0.889C10.246,15.949,10.276,15.942,10.307,15.934z M9.996,18.525
		c0.322,0.336,0.324,0.671-0.004,1.005c-0.013-0.073-0.025-0.147-0.037-0.221L9.996,18.525z M8.987,29.613
		c0.313,0.345,0.356,0.681-0.036,1.001l-0.004-0.329L8.987,29.613z M8.539,34.541c0.324,0.337,0.324,0.671-0.003,1.006
		c-0.013-0.111-0.024-0.223-0.039-0.333L8.539,34.541z M8.428,35.771c0.324,0.338,0.324,0.672-0.004,1.006l-0.037-0.332
		L8.428,35.771z M9.66,22.221c0.322,0.337,0.324,0.672-0.004,1.006l-0.037-0.333L9.66,22.221z M8.314,37.005
		c0.326,0.336,0.325,0.672-0.002,1.006c-0.014-0.11-0.025-0.223-0.038-0.334C8.288,37.453,8.302,37.229,8.314,37.005z
		 M10.108,17.293c0.321,0.337,0.325,0.672-0.005,1.006c-0.012-0.074-0.024-0.148-0.037-0.222
		C10.08,17.815,10.095,17.555,10.108,17.293z M9.548,23.453c0.323,0.337,0.325,0.672-0.004,1.005
		c-0.013-0.11-0.024-0.222-0.038-0.333L9.548,23.453z M8.871,30.846c0.332,0.334,0.328,0.67,0.001,1.006
		c-0.013-0.11-0.024-0.224-0.039-0.334C8.847,31.293,8.859,31.068,8.871,30.846z M8.764,32.077c0.324,0.336,0.324,0.672-0.004,1.006
		l-0.037-0.334L8.764,32.077z M9.211,27.149c0.324,0.336,0.325,0.671-0.003,1.005c-0.012-0.074-0.024-0.148-0.036-0.222
		L9.211,27.149z M9.324,25.917c0.322,0.337,0.324,0.672-0.004,1.006c-0.014-0.111-0.025-0.223-0.037-0.334L9.324,25.917z
		 M9.884,19.757c0.323,0.337,0.325,0.672-0.004,1.006l-0.037-0.222L9.884,19.757z M9.436,24.685
		c0.324,0.337,0.325,0.672-0.004,1.006l-0.037-0.333L9.436,24.685z M9.1,28.381c0.324,0.337,0.324,0.672-0.004,1.006l-0.037-0.332
		L9.1,28.381z M8.651,33.311c0.324,0.336,0.325,0.67-0.003,1.004c-0.014-0.109-0.026-0.222-0.037-0.332L8.651,33.311z M9.771,20.989
		c0.324,0.336,0.325,0.672-0.004,1.006L9.73,21.773L9.771,20.989z M8.203,38.236c0.328,0.339,0.318,0.677-0.002,1.013l-0.005-0.563
		l0.008-0.107L8.203,38.236z M45.164,38.455c0.324,0.232,0.236,0.509,0.082,0.792C45.174,38.99,45.146,38.722,45.164,38.455z
		 M27.414,18.577c0.008-0.017,0.012-0.039,0.025-0.049c0.025-0.021,0.055-0.035,0.083-0.053c0.036,0.359,0.13,0.725-0.091,1.063
		C27.387,19.218,27.346,18.898,27.414,18.577z M31.721,27.827c-0.162-0.215-0.225-0.416,0.078-0.566
		C31.792,27.452,31.906,27.661,31.721,27.827z M25.049,15.589c0.221,0.266,0.03,0.443-0.133,0.628L25.049,15.589z M32.173,32.756
		c-0.123-0.117-0.134-0.262-0.104-0.417C32.254,32.439,32.176,32.607,32.173,32.756z M31.945,30.178
		c-0.084-0.078-0.12-0.194-0.094-0.306C32.012,29.936,31.953,30.063,31.945,30.178z M30.826,17.521
		c-0.096-0.073-0.104-0.151-0.012-0.232L30.826,17.521z M31.836,28.946c-0.096-0.074-0.105-0.151-0.011-0.234L31.836,28.946z
		 M31.053,20.099c-0.096-0.074-0.105-0.152-0.01-0.234L31.053,20.099z M32.619,37.794c-0.096-0.073-0.104-0.151-0.01-0.233
		C32.611,37.639,32.615,37.716,32.619,37.794z M30.717,16.29c-0.097-0.074-0.105-0.151-0.012-0.234L30.717,16.29z M31.5,25.127
		c-0.105-0.069-0.105-0.144-0.012-0.223L31.5,25.127z M32.393,35.217c-0.094-0.072-0.102-0.15-0.011-0.23L32.393,35.217z
		 M32.605,38.029l0.006-0.2C32.697,37.898,32.727,37.968,32.605,38.029z M32.057,31.407c-0.012-0.027-0.027-0.054-0.033-0.082
		c-0.002-0.011,0.02-0.024,0.029-0.037C32.053,31.328,32.055,31.368,32.057,31.407z M25.197,15.103l-0.086,0.169L25.197,15.103z
		 M30.936,18.752c-0.011-0.027-0.023-0.054-0.031-0.082c-0.002-0.011,0.02-0.025,0.027-0.038
		C30.934,18.672,30.936,18.712,30.936,18.752z M32.729,39.023c-0.011-0.026-0.023-0.056-0.031-0.082
		c-0.002-0.012,0.02-0.024,0.027-0.039C32.727,38.943,32.729,38.982,32.729,39.023z M32.717,39.264l0.008-0.197
		C32.811,39.134,32.838,39.2,32.717,39.264z M31.162,21.328c-0.012-0.027-0.025-0.054-0.031-0.083
		c-0.003-0.01,0.018-0.025,0.027-0.038L31.162,21.328z M18.409,39.373c0.021,0.021,0.044,0.043,0.061,0.068
		c0.003,0.006-0.018,0.026-0.028,0.041L18.409,39.373z M31.148,21.566c0.002-0.066,0.004-0.133,0.008-0.2
		C31.242,21.436,31.27,21.503,31.148,21.566z M32.723,39.818l-0.006-0.146C32.818,39.719,32.832,39.768,32.723,39.818z
		 M32.493,36.686l0.007-0.187C32.596,36.564,32.607,36.628,32.493,36.686z M32.282,33.984c-0.011-0.027-0.026-0.055-0.032-0.084
		c-0.002-0.01,0.018-0.024,0.027-0.037L32.282,33.984z M31.271,22.56c-0.013-0.027-0.025-0.054-0.031-0.082
		c-0.002-0.011,0.019-0.025,0.027-0.038C31.27,22.479,31.271,22.52,31.271,22.56z M32.27,34.223l0.006-0.199
		C32.361,34.092,32.391,34.159,32.27,34.223z M31.383,23.791c-0.012-0.026-0.025-0.054-0.031-0.081
		c-0.002-0.011,0.02-0.025,0.027-0.037L31.383,23.791z M32.501,36.447c-0.01-0.027-0.024-0.055-0.03-0.081
		c-0.003-0.011,0.018-0.025,0.026-0.038C32.5,36.368,32.501,36.407,32.501,36.447z M31.609,26.804
		c0.115,0.047,0.096,0.139,0.076,0.23C31.547,26.995,31.477,26.933,31.609,26.804z M31.498,25.459
		c0.115,0.048,0.096,0.14,0.077,0.231C31.434,25.651,31.365,25.589,31.498,25.459z M48.746,38.787
		c0.113,0.048,0.096,0.14,0.076,0.23C48.682,38.979,48.613,38.917,48.746,38.787z M48.744,37.782
		c0.002,0.11,0.003,0.224,0.006,0.335C48.605,38.009,48.613,37.896,48.744,37.782z M48.732,36.445l-0.11,0.021
		c0.03-0.045,0.062-0.089,0.093-0.133L48.732,36.445z"/>
</g>
</svg>
