<?xml version="1.0" encoding="utf-8"?>
<!-- Generator: Adobe Illustrator 16.0.0, SVG Export Plug-In . SVG Version: 6.00 Build 0)  -->
<!DOCTYPE svg PUBLIC "-//W3C//DTD SVG 1.1//EN" "http://www.w3.org/Graphics/SVG/1.1/DTD/svg11.dtd">
<svg version="1.1" xmlns="http://www.w3.org/2000/svg" xmlns:xlink="http://www.w3.org/1999/xlink" x="0px" y="0px" width="52px"
	 height="52px" viewBox="71.5 0 52 52" enable-background="new 71.5 0 52 52" xml:space="preserve">
<g id="Capa_2">
</g>
<g id="Capa_1">
	<path opacity="0.4" d="M115.096,4.06L99.935,24.203l-0.542,6.054l5.339-2.298c0,0,5.704-7.868,10.281-13.982L115.096,4.06z"/>
	
		<radialGradient id="SVGID_1_" cx="828.5684" cy="-9056.3965" r="17.0614" gradientTransform="matrix(1.1083 0 0 -0.1273 -820.9525 -1103.0824)" gradientUnits="userSpaceOnUse">
		<stop  offset="0" style="stop-color:#FFE120"/>
		<stop  offset="0.417" style="stop-color:#FFE120;stop-opacity:0.584"/>
		<stop  offset="1" style="stop-color:#FFE120;stop-opacity:0.003"/>
	</radialGradient>
	<path opacity="0.9" fill="url(#SVGID_1_)" d="M97.352,47.594c10.289,0,18.631,0.986,18.631,2.203S107.641,52,97.352,52
		c-10.293,0-18.635-0.986-18.635-2.203S87.059,47.594,97.352,47.594z"/>
	<path fill="none" stroke="#000000" stroke-miterlimit="10" d="M114.673,33.778c0,1.503-1.22,2.722-2.722,2.722H82.929
		c-1.502,0-2.72-1.219-2.72-2.722V5.664c0-1.503,1.218-2.721,2.72-2.721h29.022c1.502,0,2.722,1.218,2.722,2.721V33.778z"/>
	<g>
		<line fill="none" stroke="#000000" stroke-miterlimit="10" x1="85.121" y1="8.838" x2="109.761" y2="8.838"/>
		<line fill="none" stroke="#000000" stroke-miterlimit="10" x1="85.121" y1="29.878" x2="99.355" y2="29.878"/>
		<line fill="none" stroke="#000000" stroke-miterlimit="10" x1="85.121" y1="25.663" x2="109.761" y2="25.663"/>
		<line fill="none" stroke="#000000" stroke-miterlimit="10" x1="85.121" y1="21.46" x2="109.761" y2="21.46"/>
		<line fill="none" stroke="#000000" stroke-miterlimit="10" x1="85.121" y1="17.256" x2="109.761" y2="17.256"/>
		<line fill="none" stroke="#000000" stroke-miterlimit="10" x1="85.121" y1="13.042" x2="109.761" y2="13.042"/>
	</g>
	<g>
		<path fill="#FFFFFF" stroke="#000000" stroke-linejoin="round" stroke-miterlimit="10" d="M99.393,23.672L112.7,2.259
			c0,0,1.517-2.758,4.03-1.104c1.891,1.242,2.326,1.957,1.451,3.66c-0.909,1.769-13.676,22.173-13.676,22.173l-5.113,2.763V23.672z"
			/>
		
			<line fill="#FFFFFF" stroke="#000000" stroke-linejoin="round" stroke-miterlimit="10" x1="111.178" y1="4.708" x2="116.531" y2="7.771"/>
		
			<line fill="#FFFFFF" stroke="#000000" stroke-linejoin="round" stroke-miterlimit="10" x1="109.1" y1="8.123" x2="114.453" y2="11.186"/>
	</g>
</g>
</svg>
