<?xml version="1.0" encoding="utf-8"?>
<!-- Generator: Adobe Illustrator 16.0.0, SVG Export Plug-In . SVG Version: 6.00 Build 0)  -->
<!DOCTYPE svg PUBLIC "-//W3C//DTD SVG 1.1//EN" "http://www.w3.org/Graphics/SVG/1.1/DTD/svg11.dtd">
<svg version="1.1" id="Capa_1" xmlns="http://www.w3.org/2000/svg" xmlns:xlink="http://www.w3.org/1999/xlink" x="0px" y="0px"
	 width="57px" height="57px" viewBox="0 0 57 57" enable-background="new 0 0 57 57" xml:space="preserve">
<path fill="#1E100D" d="M0,0v57h57V0H0z M54,54H3V3h51V54z"/>
<path fill="#1E100D" d="M30.225,40.057c-0.486,0-0.975-0.031-1.455,0.01c-0.469,0.039-0.652-0.166-0.779-0.588
	c-0.598-1.981-1.242-3.951-1.827-5.937c-0.134-0.451-0.337-0.558-0.78-0.554c-2.146,0.025-4.292,0.025-6.438,0
	c-0.43-0.004-0.614,0.123-0.733,0.535c-0.58,2.008-1.2,4.002-1.784,6.008c-0.111,0.384-0.272,0.55-0.693,0.535
	c-0.933-0.031-1.867-0.008-2.8-0.012c-0.61-0.003-0.646-0.049-0.46-0.652c1.738-5.672,3.476-11.341,5.219-17.009
	c0.493-1.604,0.995-3.206,1.512-4.803c0.236-0.749,0.361-1.528,0.373-2.313c0.01-0.35,0.141-0.49,0.505-0.486
	c1.362,0.017,2.725,0.023,4.086-0.003c0.443-0.008,0.516,0.263,0.612,0.575c1.387,4.49,2.773,8.98,4.166,13.469
	c1.089,3.509,2.185,7.016,3.277,10.523c0.215,0.689,0.209,0.696-0.49,0.699C31.23,40.059,30.729,40.057,30.225,40.057z
	 M22.105,18.708c-0.113,0.497-0.186,0.836-0.268,1.172c-0.718,2.953-1.616,5.855-2.445,8.777c-0.133,0.47-0.029,0.559,0.429,0.552
	c1.585-0.023,3.169-0.021,4.755-0.001c0.412,0.005,0.504-0.08,0.382-0.498C24.011,25.437,23.086,22.156,22.105,18.708z
	 M40.432,30.657c0,2.891,0,5.78-0.002,8.671c0,0.729-0.002,0.729-0.75,0.729h-2.518c-0.745,0-0.747-0.002-0.747-0.733V24.948
	c0-1.045,0.015-2.089-0.007-3.133c-0.008-0.426,0.109-0.599,0.568-0.583c0.969,0.032,1.938,0.034,2.906-0.001
	c0.471-0.017,0.559,0.176,0.557,0.59C40.426,24.766,40.432,27.713,40.432,30.657L40.432,30.657z M40.625,16.279
	c-0.005,1.452-0.882,2.388-2.236,2.384c-1.34-0.003-2.224-0.963-2.216-2.408c0.009-1.401,0.944-2.395,2.261-2.398
	C39.768,13.853,40.629,14.806,40.625,16.279z"/>
</svg>
