<?xml version="1.0" encoding="utf-8"?>
<!-- Generator: Adobe Illustrator 16.0.0, SVG Export Plug-In . SVG Version: 6.00 Build 0)  -->
<!DOCTYPE svg PUBLIC "-//W3C//DTD SVG 1.1//EN" "http://www.w3.org/Graphics/SVG/1.1/DTD/svg11.dtd">
<svg version="1.1" id="Capa_1" xmlns="http://www.w3.org/2000/svg" xmlns:xlink="http://www.w3.org/1999/xlink" x="0px" y="0px"
	 width="57px" height="57px" viewBox="0 0 57 57" enable-background="new 0 0 57 57" xml:space="preserve">
<path fill="#1E100D" d="M0,0v57h57V0H0z M54,54H3V3h51V54z"/>
<path fill="#1E100D" d="M16.5,15h4v26h-4V15z M40.5,15h-4v8.344c-1-0.27-2.014-0.502-4.182,0.053
	c-3.583,0.916-8.801,4.551-6.801,12.719c2,8.166,11.982,6.303,14.982,4.136V39L40.5,15z M29.932,36.001
	c-2.093-3.864,0.568-11.148,6.568-8.859v10.723l-0.277,0.053C36.223,37.917,32.098,40.001,29.932,36.001z"/>
</svg>
