<?xml version="1.0" encoding="utf-8"?>
<!-- Generator: Adobe Illustrator 16.0.0, SVG Export Plug-In . SVG Version: 6.00 Build 0)  -->
<!DOCTYPE svg PUBLIC "-//W3C//DTD SVG 1.1//EN" "http://www.w3.org/Graphics/SVG/1.1/DTD/svg11.dtd">
<svg version="1.1" id="Capa_1" xmlns="http://www.w3.org/2000/svg" xmlns:xlink="http://www.w3.org/1999/xlink" x="0px" y="0px"
	 width="57px" height="57px" viewBox="0 0 57 57" enable-background="new 0 0 57 57" xml:space="preserve">
<path fill="#1E100D" d="M0,0v57h57V0H0z M54,54H3V3h51V54z"/>
<g>
	<path fill="#1E100D" d="M38.357,40.412h-0.004l0.004,0.003V40.412z M25.271,38.855c0.127,0.285,0.215,0.59,0.319,0.886
		c1.11,0,2.222-0.007,3.332,0.003c0.296,0.003,0.553-0.03,0.689-0.336l-0.357-1.333c-0.27-0.287-0.191-0.726-0.437-1.023
		c-0.037-0.051-0.127-0.087-0.111-0.153c-0.306-0.414-0.429-0.893-0.44-1.409c-0.029-0.681-0.32-1.284-0.549-1.906
		c-0.431-0.437-0.546-0.981-0.57-1.563c0.082-0.215-0.028-0.4-0.089-0.593c-0.32-1.008-0.656-2.01-0.965-3.021
		c-0.466-1.522-1.033-3.014-1.407-4.564c-0.355-0.667-0.507-1.4-0.699-2.121l-0.749-2.137c-0.395-0.321-0.468-0.765-0.469-1.234
		l0.037,0.008l-0.499-1.9l-0.535-1.466c-1.432,0-2.863,0.021-4.294-0.01c-0.541-0.013-0.818,0.122-0.74,0.71
		c0.024,0.182,0.015,0.373-0.112,0.532c-0.031,0.129,0.076,0.282-0.071,0.384c-0.003,0.002-0.081-0.104-0.125-0.16l-0.033,0.109
		c0.044,0.229-0.071,0.431-0.113,0.645c-0.085,0.426-0.37,0.803-0.313,1.265c0.023,0.509-0.126,0.957-0.463,1.341
		c-0.34,0.3-0.191,0.834-0.54,1.129l0.003,0.668c-0.052,0.613-0.16,1.205-0.62,1.666c-0.03,0.066-0.067,0.131-0.09,0.199
		c-1.048,3.292-2.098,6.584-3.139,9.879c-0.094,0.295-0.276,0.575-0.184,0.91c-0.005,0.506-0.107,0.975-0.497,1.334
		c-0.396,1.219-0.797,2.52-1.183,3.741c-0.047,0.149-0.011,0.578-0.013,0.578h0.104c1.245,0,2.491-0.076,3.736-0.072
		c0.038-0.034,0.076-0.112,0.114-0.147c-0.154-0.424-0.005-0.771,0.326-1.039c0.311-0.961,0.626-1.932,0.929-2.896
		c0.093-0.294,0.245-0.588,0.166-0.916c0.037-0.459,0.068-0.925,0.472-1.244l0.183-0.365l0.037-0.188
		c-0.009-0.03-0.014-0.063-0.014-0.095c0.143-0.156,0.332-0.146,0.519-0.146c2.324,0,4.649-0.001,6.973,0.004
		c0.119,0,0.27-0.061,0.34,0.107c0.013,0.031,0.017,0.064,0.01,0.098l-0.012,0.014c0.146,0.137,0.154,0.33,0.212,0.502
		c0.479,1.441,0.952,2.887,1.427,4.326C25.163,38.068,25.119,38.514,25.271,38.855z M21.758,28.909h-5.106
		c-0.163,0-0.651,0.403-0.651,0.303v0.002l0.178-0.305h0.01c-0.043,0-0.063,0.045-0.051,0.008c-0.062-0.229,0.055-0.357,0.177-0.559
		c0.219-0.08,0.192-0.259,0.245-0.424c0.291-0.93,0.575-1.843,0.861-2.772c0.051-0.354,0.15-0.685,0.318-1.003l0.118-0.665
		c-0.185-0.297-0.046-0.534,0.133-0.765l-0.003,0.004c-0.021-0.206-0.01-0.414,0.102-0.59c0.078-0.121,0.104,0.013,0.137,0.064
		c0.274-0.785,0.486-1.587,0.644-2.403c-0.146-0.413-0.142-0.792,0.247-1.082l0.188,0.217c0.263,0.034,0.282,0.213,0.057,0.528
		l0.073,0.225l0.013,0.106c0.223,0.577,0.375,1.179,0.453,1.792c0.099,0.03,0.147,0.108,0.174,0.199
		c0.383,1.317,0.766,2.635,1.147,3.951l0.25,0.848l0.206,0.496c0.34,0.164,0.303,0.487,0.333,0.782
		c0.141,0.247,0.311,0.489,0.113,0.784l-0.004,0.226l0.086,0.201c0.009,0.042,0.018-0.124,0.026-0.081
		C22.093,29.116,21.926,28.909,21.758,28.909z"/>
	<path fill="#1E100D" d="M28.806,36.864c-0.021-0.025-0.044-0.052-0.063-0.077c0.003,0.015,0.009,0.027,0.013,0.042
		C28.773,36.835,28.787,36.855,28.806,36.864z M16.19,29.211l0.002,0.003L16.19,29.211L16.19,29.211z M45.594,39.866
		c0.457-0.002,0.729-0.122,0.822-0.572l0.016-0.672l-0.033-0.519c-0.152-1.729-0.078-3.459-0.084-5.188
		c-0.012-3.688-0.012-7.375,0.006-11.062c0.002-0.456-0.113-0.625-0.59-0.603c-0.779,0.037-1.563-0.005-2.347,0.016
		c-0.38,0.011-0.97-0.109-1.335,0.094C42.098,21.4,42,21.441,42,21.481v13.033c0,0.688-0.199,1.2-0.797,1.313
		c-0.477,0.237-0.818,0.546-1.354,0.67c-1.285,0.3-2.379,0.11-3.303-0.909c-0.252-0.152-0.406-0.337-0.242-0.658
		c-0.061-0.379-0.238-0.729-0.197-1.127l-0.012,0.014c-0.029-0.008-0.056-0.019-0.08-0.028c-0.274-0.157-0.078-0.351-0.039-0.528
		c0.017-0.045,0.03-0.091,0.047-0.136c-0.006-3.771-0.021-7.537-0.008-11.306c0.002-0.448-0.127-0.575-0.57-0.565
		c-1.117,0.023-2.238-0.004-3.356-0.01l-0.14,0.123c0.021-0.002,0.041,0.005,0.057,0.019c0.107,0.188,0.079,0.397,0.079,0.601
		c0.002,3.96,0.002,7.918,0.001,11.881c0,0.201,0.021,0.408-0.077,0.602c-0.015,0.012-0.034,0.019-0.053,0.018l0.012,0.558
		c0.009,0.063,0.019,0.126,0.026,0.188c0.038,0.16,0.078,0.32,0.111,0.482c0.396,1.85,1.166,3.432,3.004,4.262
		c0.358-0.057,0.623,0.389,1.01,0.195c0.4-0.105,0.795,0.043,1.195,0.029c0.644-0.021,1.289,0,1.918-0.174
		c0.164-0.047,0.324-0.072,0.47,0.053c0.456-0.095,0.888-0.279,1.271-0.543c-0.029-0.36,0.18-0.314,0.408-0.242
		c0.301-0.162,0.594-0.333,0.794-0.623c0.103-0.146,0.238-0.219,0.419-0.132c0.236,0.127,0.108,0.272,0.022,0.418
		c-0.017,0.237-0.015,0.478,0.096,0.694c0.017-0.09,0.03-0.182,0.047-0.275c0.14,0.141,0.044,0.252-0.03,0.365
		c-0.011,0.098,0.024,0.169,0.119,0.203C43.758,39.738,44.68,39.871,45.594,39.866z"/>
	<path fill="#1E100D" d="M42.088,35.1c-0.012,0.008-0.023,0.018-0.035,0.023c-0.219,0.234-0.437,0.47-0.654,0.704
		C41.758,35.648,41.966,35.4,42.088,35.1z"/>
	<path fill="#1E100D" d="M42,34.516V21.482c0,0.235,0.086,0.505,0.086,0.761c-0.004,4.01,0.096,8.019,0.092,12.028
		c0,0.258,0.102,0.523-0.046,0.766c-0.03,0.021-0.036,0.042-0.067,0.063c-0.123,0.303-0.514,0.551-0.873,0.729
		C41.789,35.715,42,35.2,42,34.516z M42.148,21.689c0.021-0.045,0.055-0.083,0.095-0.114c0.013-0.071,0.013-0.144,0-0.215
		c-0.032,0.041-0.063,0.082-0.097,0.123v0.191C42.146,21.68,42.146,21.685,42.148,21.689z"/>
	<path fill="#1E100D" d="M42.243,21.575c0.041-0.034,0.077-0.07,0.146-0.094l-0.146-0.121
		C42.256,21.431,42.256,21.504,42.243,21.575z M42.163,22.244c0.013,4.19-0.015,8.381,0.015,12.57
		c0.034-0.166,0.055-0.344,0.053-0.535c-0.017-3.928-0.01-7.854-0.008-11.78c0-0.279-0.007-0.559,0.01-0.837l0.013-0.087
		c-0.04,0.03-0.073,0.069-0.097,0.114C42.193,21.87,42.162,22.061,42.163,22.244L42.163,22.244z"/>
	<path fill="#1E100D" d="M42.23,21.662c-0.017,0.278-0.008,0.558-0.008,0.837c-0.002,3.927-0.1,7.854-0.082,11.78
		C42.143,34.473,42,34.648,42,34.814v0.006c0,0.072,0.111,0.144,0.092,0.216c0.146-0.24,0.139-0.509,0.139-0.767
		c0.004-4.011,0.023-8.02,0.027-12.027c0-0.256-0.045-0.525,0.12-0.761c-0.067,0.023-0.101,0.06-0.142,0.094
		C42.232,21.604,42.236,21.633,42.23,21.662z M42.148,21.689c-0.002-0.005-0.002-0.01-0.002-0.015v0.021
		C42.146,21.693,42.146,21.691,42.148,21.689z"/>
	<path fill="#1E100D" d="M42,34.914c0-0.033,0.098-0.063,0.104-0.1c-0.026-4.189,0.035-8.38,0.022-12.57
		c-0.001-0.187-0.024-0.374-0.069-0.555c0,0.002-0.057,0.004-0.057,0.006V34.914z M42.178,34.814
		c-0.007,0.035-0.021,0.064-0.031,0.1v0.01c0.014,0.037,0.022,0.075,0.035,0.112c0.021-0.071,0.02-0.146-0.004-0.216V34.814z
		 M31.938,34.318c-0.015,0.041-0.025,0.082-0.053,0.121c0.024,0.015,0.049,0.026,0.071,0.041l-0.019-0.104V34.318z M31.906,21.374
		c0.004,0.008,0.008,0.015,0.009,0.021c0.003-0.01,0.008-0.017,0.01-0.025L31.906,21.374z M31.979,23.737
		c-0.002,0.55-0.008,1.1-0.006,1.65c0.006,2.781,0.034,5.562,0.03,8.343L32,34.318v0.058c0,0.035-0.02,0.069-0.014,0.104
		c0.021,0.002,0.021-0.004,0.037-0.017C32.016,30.889,31.988,27.313,31.979,23.737z"/>
	<path fill="#1E100D" d="M31.916,21.396c0.012,0.025,0.027,0.048,0.035,0.074c0.023,0.594,0.027,1.188,0.027,1.782l-0.004-1.089
		c0-0.26,0.021-0.521,0.03-0.78c-0.015-0.014-0.036-0.021-0.058-0.019c-0.008,0-0.016,0.004-0.022,0.006
		C31.924,21.379,31.919,21.386,31.916,21.396z M31.919,26.375c-0.006-1.586,0.001-3.171-0.003-4.756
		c-0.001-0.067-0.004-0.134-0.007-0.2c0.002-0.009,0.006-0.015,0.007-0.023c-0.001-0.007-0.005-0.014-0.009-0.021
		c-0.013,0.004-0.026,0.005-0.039,0.01c0.005,4.353,0.012,8.705,0.019,13.057c0.024-0.039,0.037-0.08,0.053-0.121
		C31.895,31.671,31.93,29.021,31.919,26.375z"/>
	<path fill="#1E100D" d="M31.961,21.47c-0.006-0.026-0.027-0.049-0.039-0.074c-0.001,0.009-0.009,0.015-0.011,0.023
		c0.003,0.066,0.004,0.134,0.005,0.2c0.004,1.585-0.002,3.17,0.003,4.756c0.011,2.646-0.026,5.296,0.019,7.943
		c0.064-0.19,0.033-0.395,0.033-0.588c0.004-2.781,0.018-5.563,0.012-8.343c-0.002-0.55,0.019-1.1,0.019-1.65v-0.485
		C32,22.658,31.986,22.063,31.961,21.47z M16.521,16.222c0.057-0.066,0.094-0.147,0.104-0.234l0.003-0.252
		c-0.005,0.133-0.052,0.262-0.134,0.367c-0.028,0.003-0.057,0.008-0.084,0.014c-0.007,0.036-0.002,0.073,0.015,0.105H16.521z
		 M16.987,14.868h-0.264c-0.159,0.048-0.144,0.164-0.111,0.286c-0.001,0.126,0.014,0.254,0.021,0.381
		C16.651,15.106,16.721,14.934,16.987,14.868z M21.772,14.988l-0.066-0.129l-0.285,0.001C21.542,14.884,21.661,14.919,21.772,14.988
		z"/>
	<path fill="#1E100D" d="M16.987,14.868c-0.267,0.065-0.336,0.238-0.354,0.667c0.004,0.067,0,0.134-0.006,0.2
		c-0.001,0.08-0.002,0-0.003,0.096c-0.007,0.094-0.052,0.078-0.104,0.078h0.106c0.126,0,0.136-0.195,0.112-0.377
		c-0.078-0.588,0.199-0.645,0.74-0.632c1.431,0.03,2.862,0.049,4.294,0.049c-0.111-0.069-0.231-0.085-0.351-0.108
		C19.943,14.843,18.466,14.865,16.987,14.868z M16.748,14.778c-0.004,0.031-0.012,0.062-0.024,0.09
		c0.041-0.037,0.087-0.068,0.137-0.091L16.748,14.778z M21.353,14.748c0.12,0.025,0.238,0.063,0.354,0.111l-0.147-0.115l-0.2,0.001
		L21.353,14.748z"/>
	<path fill="#1E100D" d="M17.792,14.842c1.059-0.001,2.117,0.015,3.174,0.013c0.155,0,0.307,0.055,0.455,0.055h0.285
		c-0.116,0-0.234-0.111-0.354-0.137c-0.07,0.014-0.144,0.003-0.218,0.003c-0.729,0.002-1.458-0.007-2.188-0.007
		c-0.696,0.006-1.392,0.027-2.087,0.032c-0.048,0.022-0.094,0.108-0.137,0.108h0.264C17.16,14.909,17.408,14.842,17.792,14.842z"/>
	<path fill="#1E100D" d="M20.967,14.819c-1.058,0.003-2.115,0.001-3.174,0.002c-0.384,0-0.632,0.004-0.805,0.047l4.435-0.008
		C21.273,14.831,21.12,14.817,20.967,14.819z M21.346,14.745l0.007,0.003l0.006-0.003H21.346z M18.947,14.763
		c0.729,0,1.458,0.002,2.188,0c0.074,0,0.147-0.001,0.218-0.015l-0.007-0.003L18.947,14.763z M38.531,40.318
		c0.408,0.011,0.795-0.094,1.171-0.241c-0.511,0.002-1.005,0.146-1.507,0.231C38.309,40.313,38.42,40.318,38.531,40.318z
		 M36.294,40.309c0.054,0.041,0.104,0.082,0.157,0.123c0.04-0.019,0.081-0.035,0.121-0.055c0.121-0.029,0.244-0.042,0.365-0.057
		C36.724,40.297,36.508,40.293,36.294,40.309z"/>
	<path fill="#1E100D" d="M39.232,40.025c-0.629,0.173-1.274,0.149-1.918,0.173c-0.4,0.014-0.795-0.138-1.195-0.029l0.175,0.14
		c0.216-0.017,0.431-0.012,0.646,0.015c0.418-0.048,0.838-0.025,1.258-0.013c0.503-0.086,0.994-0.229,1.507-0.231
		C39.557,39.952,39.396,39.979,39.232,40.025z M25.628,39.85c-0.012-0.008-0.025-0.013-0.036-0.021v0.01L25.628,39.85z
		 M29.329,39.855h0.31c-0.01-0.148-0.019-0.299-0.027-0.447C29.591,39.646,29.495,39.786,29.329,39.855z"/>
	<path fill="#1E100D" d="M28.922,39.744c-1.11-0.01-2.222-0.003-3.332-0.003l0.002,0.088c0.011,0.008,0.024,0.013,0.037,0.021
		c1.233,0.002,2.467,0.004,3.7,0.008c0.166-0.069,0.262-0.211,0.282-0.447C29.475,39.714,29.218,39.747,28.922,39.744z
		 M25.592,39.85h0.036l-0.036-0.011V39.85z M42.85,39.943l-0.011,0.021h0.198C42.975,39.956,42.911,39.955,42.85,39.943z
		 M46.141,39.963h0.279l0.098-0.143c-0.038-0.041-0.064-0.091-0.078-0.146C46.385,39.809,46.275,39.912,46.141,39.963L46.141,39.963
		z"/>
	<path fill="#1E100D" d="M46.141,39.909c0.135,0,0.239-0.117,0.299-0.261c0-0.002-0.004,0.01-0.004,0.006
		c-0.006-0.082-0.004-0.164,0.006-0.246l-0.024-0.118c-0.095,0.451-0.364,0.571-0.821,0.574c-0.914,0.005-1.837-0.154-2.744,0.052
		c0.063,0.011,0.125-0.007,0.188-0.007H46.141z M46.482,39.613l-0.012-0.062c-0.013,0.041-0.018,0.089-0.031,0.123
		c0.012,0.056,0.038,0.105,0.078,0.146l0.002-0.034C46.492,39.732,46.479,39.673,46.482,39.613z"/>
	<path fill="#1E100D" d="M46.436,39.668c0,0.004,0.004,0.006,0.004,0.009c0.018-0.034,0.021-0.081,0.031-0.122l-0.029-0.14
		C46.432,39.499,46.43,39.584,46.436,39.668z M29.389,39.984h0.123l0.127-0.129c-0.102,0.053-0.212,0.085-0.326,0.095
		C29.338,39.959,29.361,39.973,29.389,39.984z"/>
	<path fill="#1E100D" d="M25.658,39.909c-0.037-0.015-0.058-0.035-0.07-0.062c-0.045,0.006-0.091,0.012-0.137,0.019l0.14,0.116
		c1.266,0.002,2.53,0.002,3.798,0.002c-0.023-0.014-0.049-0.025-0.076-0.034c-0.053,0.006-0.104,0.014-0.155,0.013
		C27.99,39.932,26.822,40.035,25.658,39.909z M25.631,39.85h-0.003H25.631z"/>
	<path fill="#1E100D" d="M27.774,39.909c-0.669,0.004-1.337,0.005-2.004-0.021c0.014,0.002,0.025,0.008,0.039,0.01
		C26.465,39.913,27.119,39.911,27.774,39.909z M29.045,39.909c0.091-0.001,0.182,0.013,0.268,0.041
		c0.114-0.009,0.226-0.042,0.326-0.095h-0.31C29.239,39.893,29.143,39.912,29.045,39.909z"/>
	<path fill="#1E100D" d="M25.631,39.909c0.047-0.002,0.094,0.001,0.14,0.01c0.667,0.024,1.335,0.009,2.004,0.005
		c0.35,0,0.702-0.015,1.054-0.015h0.217c0.114,0,0.205,0.01,0.284-0.022C28.097,39.884,26.863,39.909,25.631,39.909
		C25.63,39.909,25.63,39.909,25.631,39.909z"/>
	<path fill="#1E100D" d="M27.774,39.907c-0.655,0.002-1.31,0.015-1.965,0.001c-0.014-0.002-0.025,0.001-0.039,0.001h-0.182
		c0.013,0,0.033,0.016,0.07,0.03c1.164,0.125,2.332,0.006,3.496,0.037c0.054,0.002,0.104-0.017,0.156-0.021
		c-0.086-0.03-0.177-0.047-0.268-0.047h-0.016C28.612,39.909,28.193,39.904,27.774,39.907L27.774,39.907z M25.771,39.889
		c-0.048-0.009-0.095-0.021-0.14-0.039c0.023,0.015,0.041,0.03,0.071,0.039H25.771z"/>
	<path fill="#1E100D" d="M28.828,39.91c-0.352-0.003-0.704-0.001-1.054-0.001c0.419-0.002,0.838-0.007,1.257,0.002l0.014-0.002
		C28.973,39.909,28.899,39.911,28.828,39.91z M13.093,39.885c0.002-0.004-0.009-0.012-0.017-0.02
		c-0.045,0.018-0.093,0.028-0.141,0.033c-1.172-0.013-2.345,0.072-3.515-0.047c-0.064-0.027-0.123-0.065-0.175-0.111
		c-0.06,0.121-0.013,0.197,0.103,0.244l3.698-0.017C13.063,39.941,13.082,39.915,13.093,39.885z"/>
	<path fill="#1E100D" d="M12.936,39.898c0.048-0.006,0.095-0.018,0.141-0.033c-0.006-0.006-0.009-0.012-0.014-0.018
		c-1.041,0.002-2.082,0.088-3.123,0.088c-0.202,0-0.412-0.026-0.59-0.026H9.246c0.053,0,0.11,0,0.175,0.026
		C10.591,40.057,11.764,39.889,12.936,39.898z M26,39.836v-0.013c-1-0.104-0.382-0.284-0.449-0.446
		c-0.21-0.503-0.38-1.061-0.679-1.529c0.199,0.668,0.347,1.338,0.545,2.006c0.051-0.041,0.291-0.052,0.354-0.028
		C25.786,39.828,26,39.831,26,39.836z"/>
	<path fill="#1E100D" d="M25.582,39.823c-0.006-0.028-0.003-0.057,0.008-0.082c-0.104-0.296-0.192-0.601-0.319-0.886
		c-0.151-0.345-0.107-0.787-0.503-1.01c0.299,0.471,0.364,1.026,0.574,1.529C25.409,39.539,25.439,39.721,25.582,39.823z
		 M25.583,39.848l-0.002-0.012l-0.045-0.013c-0.058-0.022-0.123-0.013-0.17,0.028c0.027,0.01,0.056,0.015,0.085,0.015
		C25.491,39.82,25.536,39.818,25.583,39.848L25.583,39.848z"/>
	<path fill="#1E100D" d="M25.592,39.829l-0.01-0.006l-0.001,0.013l0.011,0.003V39.829z M25.59,39.741
		c-0.012,0.025-0.015,0.054-0.008,0.082l0.01,0.006L25.59,39.741z"/>
	<path fill="#1E100D" d="M25.592,39.839l-0.011-0.003l0.002,0.012l0.009,0.002V39.839z"/>
	<path fill="#1E100D" d="M25.583,39.848c-0.047-0.029-0.092-0.024-0.132,0.021l0.137-0.019L25.583,39.848z"/>
	<path fill="#1E100D" d="M25.592,39.85l-0.009-0.002l0.005,0.002H25.592z M42.839,39.964c-0.002,0.029-0.003,0.059-0.002,0.088
		h0.185C42.955,40.039,42.892,40.008,42.839,39.964L42.839,39.964z M46.423,40.059c0.001-0.031,0-0.063-0.003-0.096
		c-0.059,0.049-0.129,0.082-0.204,0.096H46.423z M45.719,39.973c-0.893-0.06-1.789-0.063-2.682-0.063h-0.198
		c0.058,0,0.118,0.1,0.183,0.113c1.064,0.002,2.131-0.01,3.194-0.008C46.288,40,46.357,39.91,46.42,39.91h-0.279
		C46.023,39.909,45.893,39.982,45.719,39.973z"/>
	<path fill="#1E100D" d="M45.719,39.973c0.174,0.012,0.307-0.063,0.422-0.063h-3.104C43.932,39.9,44.826,39.922,45.719,39.973z
		 M14.351,23.267c0.31-0.518,0.401-1.115,0.62-1.666C14.563,22.081,14.509,22.693,14.351,23.267z"/>
	<path fill="#1E100D" d="M14.351,23.267c0.46-0.461,0.568-1.053,0.62-1.666C14.751,22.151,14.66,22.749,14.351,23.267z
		 M15.971,18.463c-0.323,0.21-0.188,0.657-0.46,0.894c0.036,0.029,0.063,0.067,0.079,0.11C15.778,19.16,15.859,18.804,15.971,18.463
		z"/>
	<path fill="#1E100D" d="M15.508,19.804c0.337-0.384,0.486-0.832,0.463-1.341c-0.111,0.341-0.192,0.697-0.381,1.004
		C15.625,19.579,15.542,19.691,15.508,19.804z"/>
	<path fill="#1E100D" d="M15.59,19.467c-0.016-0.043-0.043-0.081-0.079-0.11c0.002,0.094-0.039,0.187-0.046,0.279
		C15.511,19.583,15.552,19.526,15.59,19.467z"/>
	<path fill="#1E100D" d="M15.59,19.467c-0.037,0.06-0.079,0.116-0.125,0.169c-0.008,0.06,0.008,0.12,0.043,0.168
		C15.542,19.691,15.625,19.579,15.59,19.467z M27.147,32.016c0.123,0.547,0.274,1.082,0.57,1.565
		C27.553,33.05,27.413,32.51,27.147,32.016z"/>
	<path fill="#1E100D" d="M27.147,32.016c0.024,0.582,0.14,1.131,0.57,1.565C27.422,33.098,27.271,32.563,27.147,32.016z
		 M10.441,35.59c0.275-0.404,0.312-0.896,0.497-1.334C10.583,34.63,10.574,35.133,10.441,35.59z"/>
	<path fill="#1E100D" d="M10.441,35.59c0.39-0.361,0.492-0.829,0.497-1.334C10.753,34.691,10.717,35.186,10.441,35.59z
		 M28.267,35.486c0.128,0.447,0.197,0.918,0.476,1.301C28.655,36.327,28.455,35.909,28.267,35.486z"/>
	<path fill="#1E100D" d="M28.755,36.829c-0.003-0.015-0.01-0.027-0.013-0.042c-0.278-0.383-0.348-0.854-0.476-1.301
		c0.011,0.52,0.134,0.998,0.44,1.412C28.715,36.871,28.732,36.847,28.755,36.829z"/>
	<path fill="#1E100D" d="M28.707,36.898c0.038,0.051,0.067,0.104,0.111,0.151l-0.063-0.223
		C28.732,36.846,28.716,36.87,28.707,36.898z M22.77,18.347c0.107,0.43,0.201,0.865,0.469,1.234
		C23.106,19.159,23.033,18.717,22.77,18.347z"/>
	<path fill="#1E100D" d="M22.77,18.347c0.001,0.47,0.074,0.913,0.469,1.234C22.971,19.212,22.876,18.776,22.77,18.347z
		 M15.093,33.588c-0.31,0.355-0.282,0.842-0.472,1.243C14.977,34.492,14.9,33.989,15.093,33.588z"/>
	<path fill="#1E100D" d="M15.093,33.588c-0.403,0.321-0.435,0.784-0.472,1.243C14.811,34.43,14.783,33.943,15.093,33.588z
		 M13.392,39.406c-0.026-0.271,0.084-0.521,0.135-0.778c-0.294,0.265-0.222,0.636-0.284,0.966L13.392,39.406z"/>
	<path fill="#1E100D" d="M13.2,39.646l0.042-0.054c0.063-0.329-0.01-0.7,0.284-0.966C13.195,38.896,13.046,39.223,13.2,39.646z
		 M38.354,40.412h0.004c0.025-0.021,0.059-0.026,0.088-0.014l0.087-0.08c-0.07,0.031-0.142,0.039-0.212,0.062
		C38.336,40.389,38.348,40.4,38.354,40.412z M36.572,40.377l0.218,0.035c0.013-0.003,0.022-0.003,0.035-0.005
		C36.74,40.396,36.656,40.386,36.572,40.377z"/>
	<path fill="#1E100D" d="M37.254,40.354c-0.105-0.011-0.21-0.021-0.314-0.033c-0.123,0.016-0.244,0.027-0.367,0.058
		c0.086,0.008,0.171,0.021,0.255,0.03C36.968,40.376,37.109,40.361,37.254,40.354z M37.771,40.355
		c0.179,0.008,0.354,0.015,0.533,0.011c0.008,0.004,0.008,0.01,0.016,0.014c0.07-0.021,0.141-0.028,0.211-0.062
		c-0.111,0-0.225-0.006-0.336-0.01C38.057,40.334,37.914,40.348,37.771,40.355z"/>
	<path fill="#1E100D" d="M37.771,40.355c0.143-0.01,0.285-0.021,0.424-0.047c-0.42-0.015-0.84-0.035-1.258,0.012
		c0.104,0.013,0.211,0.021,0.314,0.033C37.428,40.348,37.6,40.352,37.771,40.355z M36.825,40.407
		c-0.013,0.002-0.022,0.002-0.035,0.005h0.08L36.825,40.407L36.825,40.407z M38.354,40.412c-0.008-0.013-0.02-0.023-0.033-0.032
		l-0.113,0.032H38.354z"/>
	<path fill="#1E100D" d="M37.254,40.354c-0.145,0.006-0.287,0.023-0.429,0.055l0.045,0.005h1.336l0.114-0.032
		c-0.008-0.004-0.008-0.01-0.016-0.014c-0.178,0.002-0.355-0.002-0.533-0.012c-0.141,0.012-0.278,0.022-0.422,0.011
		C37.317,40.361,37.285,40.357,37.254,40.354z"/>
	<path fill="#1E100D" d="M37.254,40.354l0.098,0.013c0.144,0.014,0.281,0.001,0.422-0.011C37.6,40.352,37.428,40.348,37.254,40.354z
		 M36.329,34.93c-0.022,0.25,0.079,0.495,0.269,0.658C36.508,35.368,36.419,35.146,36.329,34.93z"/>
	<path fill="#1E100D" d="M36.598,35.588c-0.188-0.164-0.287-0.408-0.269-0.658C36.165,35.251,36.346,35.436,36.598,35.588z
		 M16.612,15.154l-0.077,0.087l-0.023,0.305l-0.018,0.557C16.718,15.81,16.419,15.451,16.612,15.154z"/>
	<path fill="#1E100D" d="M16.634,15.535c-0.007-0.127-0.022-0.255-0.021-0.381c-0.193,0.297,0.105,0.655-0.118,0.948
		c0.082-0.105,0.128-0.234,0.134-0.367C16.629,15.665,16.632,15.596,16.634,15.535z"/>
	<path fill="#1E100D" d="M16.634,15.535c-0.002,0.061-0.005,0.13-0.006,0.2C16.634,15.669,16.638,15.603,16.634,15.535z
		 M40.975,39.534l0.407-0.242C41.216,39.322,41.016,39.294,40.975,39.534z"/>
	<path fill="#1E100D" d="M40.975,39.534c0.041-0.24,0.241-0.212,0.407-0.242C41.152,39.218,40.943,39.174,40.975,39.534z
		 M36.105,33.139c-0.027-0.005-0.054-0.01-0.08-0.017c0.021,0.03,0.033,0.065,0.047,0.103
		C36.083,33.195,36.092,33.167,36.105,33.139z"/>
	<path fill="#1E100D" d="M36.02,33.786c0.025,0.012,0.056,0.021,0.082,0.03c-0.123-0.198-0.104-0.396-0.029-0.594
		c-0.012-0.035-0.023-0.07-0.047-0.103c-0.016,0.045-0.028,0.091-0.045,0.136C35.992,33.434,36.005,33.609,36.02,33.786z"/>
	<path fill="#1E100D" d="M36.086,33.254c-0.012,0.141-0.038,0.28-0.004,0.421l0.02,0.06c0.002-0.197,0.004-0.396,0.004-0.596
		c-0.014,0.028-0.021,0.057-0.033,0.086C36.076,33.234,36.083,33.243,36.086,33.254z"/>
	<path fill="#1E100D" d="M36.082,33.675c-0.034-0.141-0.007-0.28,0.004-0.421c-0.003-0.011-0.01-0.02-0.014-0.029
		c-0.076,0.196-0.094,0.396,0.029,0.592v-0.082C36.096,33.714,36.088,33.693,36.082,33.675z M42.596,38.537l0.021,0.418
		C42.68,38.813,42.73,38.669,42.596,38.537z"/>
	<path fill="#1E100D" d="M42.596,38.537c0.135,0.132,0.084,0.273,0.021,0.418C42.703,38.811,42.831,38.664,42.596,38.537z
		 M42.713,39.65c-0.012,0.03-0.005,0.064,0.018,0.089c0.078-0.089,0.043-0.197,0.057-0.3C42.777,39.518,42.796,39.602,42.713,39.65z
		"/>
	<path fill="#1E100D" d="M42.76,39.374l-0.047,0.276c0.083-0.049,0.064-0.135,0.072-0.211c-0.014,0.103,0.021,0.211-0.057,0.3
		C42.803,39.626,42.898,39.514,42.76,39.374z M15.838,32.896c1.83-0.004,3.659,0.014,5.489,0.014h0.069
		c0.578-0.003,1.156-0.002,1.734-0.002c-0.07-0.168-0.222-0.108-0.34-0.108c-2.324-0.004-4.649-0.019-6.973-0.019
		c-0.187,0-0.376,0.129-0.519,0.129h0.165C15.581,32.909,15.713,32.896,15.838,32.896z"/>
	<path fill="#1E100D" d="M15.838,32.911c-0.125,0-0.257-0.013-0.374,0.028c1.954-0.01,3.908-0.021,5.863-0.03
		C19.497,32.909,17.667,32.908,15.838,32.911z M21.952,28.909c-0.093,0-0.206,0.159-0.33,0.159c-1.728-0.01-3.458,0.08-5.185,0.017
		c-0.067-0.021-0.126-0.037-0.173-0.09c-0.002-0.01-0.003-0.154-0.005-0.164c-0.021,0.072-0.043,0.078-0.064,0.078h6.035H21.952z
		 M16.137,29.064c-0.012,0.037,0.008,0.086,0.051,0.141h0.002C16.16,29.156,16.149,29.109,16.137,29.064z M16.178,29.205
		l0.014,0.009l-0.002-0.003L16.178,29.205z"/>
	<path fill="#1E100D" d="M16.189,28.985c-0.063-0.007-0.126-0.007-0.189,0.002v0.002c0,0.01,0.133,0.018,0.135,0.026
		c0.047,0.053,0.17,0.09,0.238,0.11c1.727,0.063,3.49,0.017,5.218,0.024c0.123,0,0.252-0.02,0.345-0.073l-5.41,0.021
		C16.422,29.1,16.24,29.126,16.189,28.985L16.189,28.985z M16.188,29.205h-0.01l0.011,0.004L16.188,29.205z M16.19,29.21
		L16.19,29.21L16.19,29.21L16.19,29.21L16.19,29.21z"/>
	<path fill="#1E100D" d="M21.855,29.268c-1.8,0.002-3.599,0.002-5.399,0C16.333,29.268,16,29.29,16,29.21v0.002
		c0,0.101,0.488-0.303,0.651-0.303h5.106c0.168,0,0.335,0.207,0.473,0.088C22.118,29.091,21.982,29.268,21.855,29.268z"/>
	<path fill="#1E100D" d="M16.193,29.063c0.109,0.08,0.237,0.131,0.359,0.131c1.768,0.002,3.535-0.107,5.303-0.109
		c0.127,0,0.263-0.173,0.375-0.173h-6.035C16.194,28.909,16.194,29.061,16.193,29.063z M16.186,29.207h0.005v0.002h-0.005V29.207z"
		/>
	<path fill="#1E100D" d="M16.189,29.209l-0.011-0.004l0.012,0.006L16.189,29.209z M12.336,39.796
		c0.222,0.009,0.444-0.002,0.666,0.004l0.006,0.002l-0.027-0.024l0.105-0.022L9.35,39.743
		C10.343,39.866,11.341,39.764,12.336,39.796z"/>
	<path fill="#1E100D" d="M9.939,39.854c1.041,0,2.082-0.004,3.123-0.004l-0.055-0.048L13.001,39.8
		c-0.221-0.006-0.444,0.005-0.666-0.004c-0.995-0.032-1.993,0.07-2.986-0.055C9.527,39.878,9.737,39.852,9.939,39.854z
		 M13.008,39.802c0.023,0.001,0.042,0.011,0.063,0.017c0.006-0.021,0.013-0.043,0.016-0.063c-0.035,0.009-0.07,0.019-0.105,0.022
		L13.008,39.802z"/>
	<path fill="#1E100D" d="M13.008,39.802l0.055,0.048c0.004-0.011,0.004-0.021,0.008-0.031C13.05,39.813,13.031,39.803,13.008,39.802
		z M18.924,19.585l0.007-0.003c-0.099-0.313,0.049-0.585,0.185-0.859c-0.389,0.29-0.393,0.669-0.247,1.082
		C18.825,19.716,18.869,19.649,18.924,19.585z"/>
	<path fill="#1E100D" d="M18.931,19.582l-0.007,0.003c-0.055,0.064-0.099,0.131-0.056,0.22l0.092-0.118
		C18.941,19.65,18.941,19.617,18.931,19.582z M18.931,19.582c0.012-0.009,0.021-0.009,0.032-0.015
		c0.006-0.289,0.133-0.559,0.152-0.845C18.979,18.997,18.832,19.269,18.931,19.582z"/>
	<path fill="#1E100D" d="M18.931,19.582c0.011,0.035,0.011,0.068,0.029,0.104c-0.005-0.041,0.002-0.08,0.003-0.119
		C18.951,19.573,18.942,19.573,18.931,19.582z M22.009,27.867c-0.03-0.295,0.007-0.618-0.333-0.782
		c0.179,0.244,0.208,0.542,0.301,0.818L22.009,27.867z"/>
	<path fill="#1E100D" d="M21.977,27.903c-0.093-0.276-0.122-0.574-0.301-0.818c-0.053,0.332,0.196,0.586,0.23,0.895L21.977,27.903
		L21.977,27.903z M19.359,19.468c0.225-0.315,0.206-0.494-0.057-0.528C19.458,19.101,19.444,19.28,19.359,19.468z"/>
	<path fill="#1E100D" d="M19.303,18.939l0.057,0.528C19.444,19.28,19.458,19.101,19.303,18.939z M21.998,27.974
		c0.077,0.22,0.167,0.437,0.125,0.678c0.197-0.295,0.027-0.537-0.113-0.784C22.037,27.932,22.026,27.96,21.998,27.974z"/>
	<path fill="#1E100D" d="M21.906,27.979l0.216,0.672c0.042-0.241-0.048-0.458-0.125-0.678
		C21.968,27.985,21.936,27.987,21.906,27.979z"/>
	<path fill="#1E100D" d="M21.985,27.934c0.005,0.013,0.009,0.026,0.012,0.04c0.029-0.014,0.04-0.042,0.011-0.106
		c-0.011,0.012-0.021,0.023-0.032,0.036L21.985,27.934z"/>
	<path fill="#1E100D" d="M21.985,27.934l-0.009-0.03l-0.07,0.076c0.041,0.008,0.07,0.004,0.091-0.006
		C21.994,27.96,21.99,27.947,21.985,27.934z M18.088,22.145c-0.111,0.175-0.122,0.384-0.102,0.59
		c0.127-0.153,0.034-0.407,0.238-0.526C18.191,22.156,18.166,22.022,18.088,22.145z"/>
	<path fill="#1E100D" d="M17.986,22.734l0.003-0.002L18,22.717L17.986,22.734z"/>
	<path fill="#1E100D" d="M18,22.724c0.212-0.109,0.186-0.327,0.225-0.516c-0.204,0.119-0.111,0.373-0.238,0.526L18,22.717V22.724z"
		/>
	<path fill="#1E100D" d="M17.989,22.732c-0.179,0.23-0.317,0.47-0.133,0.767c0.004-0.266,0.001-0.532,0.141-0.773L17.989,22.732z"/>
	<path fill="#1E100D" d="M17.997,22.726c-0.14,0.241-0.137,0.508-0.141,0.773c0.127-0.244,0.178-0.502,0.144-0.775L17.997,22.726z
		 M18,22.717l-0.011,0.015l0.008-0.006L18,22.717z"/>
	<path fill="#1E100D" d="M17.997,22.726L18,22.724V22.72L17.997,22.726z M16.26,28.987c-0.032-0.189-0.069-0.378,0.054-0.555
		c-0.122,0.201-0.238,0.403-0.177,0.632C16.147,29.029,16.184,29.003,16.26,28.987z M16.192,29.214l0.001-0.002h-0.002
		L16.192,29.214z"/>
	<path fill="#1E100D" d="M16.26,28.987c0.068-0.176,0.086-0.368,0.054-0.555C16.19,28.609,16.228,28.798,16.26,28.987z
		 M16.195,29.205l0.064-0.216v-0.002c-0.076,0.016-0.112,0.042-0.123,0.078c0.013,0.045,0.023,0.093,0.053,0.142L16.195,29.205z
		 M16.26,28.987v0.002V28.987L16.26,28.987z M16.191,29.21L16.191,29.21l0.001,0.003h-0.001V29.21z"/>
	<path fill="#1E100D" d="M16.191,29.205h0.003v0.005h-0.003V29.205z M16.458,16.312c0.011-0.014,0.019-0.028,0.031-0.042
		c-0.017-0.001-0.033-0.004-0.049-0.009C16.447,16.278,16.455,16.295,16.458,16.312z"/>
	<path fill="#1E100D" d="M16.488,16.27c-0.012,0.014-0.02,0.028-0.031,0.042c0.01,0.046,0,0.094-0.027,0.133
		c0.044,0.056,0.122,0.162,0.125,0.16c0.146-0.102,0.04-0.255,0.071-0.384C16.59,16.258,16.539,16.275,16.488,16.27z"/>
	<path fill="#1E100D" d="M16.488,16.27c0.012-0.016,0.021-0.032,0.032-0.048h-0.096c0.009,0.013,0.009,0.025,0.015,0.039
		C16.455,16.266,16.471,16.269,16.488,16.27z"/>
	<path fill="#1E100D" d="M16.488,16.27c0.051,0.006,0.103-0.012,0.138-0.049l-0.106,0.001C16.509,16.237,16.5,16.254,16.488,16.27z
		 M16.439,16.261c-0.005-0.002-0.009-0.001-0.014-0.002l0.003,0.096l0.029-0.043C16.454,16.294,16.448,16.277,16.439,16.261z
		 M16.458,16.312l-0.029,0.043l0.002,0.09C16.458,16.406,16.468,16.358,16.458,16.312z"/>
	<path fill="#1E100D" d="M16.425,16.222l0.001,0.037c0.005,0.001,0.009,0,0.014,0.002C16.434,16.247,16.434,16.234,16.425,16.222
		L16.425,16.222z M32.027,23.841c-0.008,3.542,0.029,7.083-0.021,10.625c0.101-0.19,0.077-0.397,0.077-0.602
		c0.001-3.962,0.001-7.921-0.001-11.881c0-0.203,0.028-0.412-0.079-0.601C32.061,22.202,32.029,23.022,32.027,23.841z"/>
	<path fill="#1E100D" d="M32,23.252v0.485c0,3.576,0.01,7.152,0.02,10.729c0.049-3.542,0.006-7.083,0.016-10.625
		c0.002-0.818,0.029-1.639-0.023-2.458c-0.012,0.26-0.021,0.521-0.021,0.78C31.988,22.526,32,22.89,32,23.252z M35.979,33.258
		c-0.039,0.18-0.233,0.371,0.039,0.528C35.895,33.618,35.953,33.438,35.979,33.258z"/>
	<path fill="#1E100D" d="M36.02,33.786c-0.015-0.177-0.025-0.353-0.039-0.528C35.953,33.438,35.895,33.618,36.02,33.786z"/>
</g>
</svg>
