<?xml version="1.0" encoding="utf-8"?>
<!-- Generator: Adobe Illustrator 16.0.0, SVG Export Plug-In . SVG Version: 6.00 Build 0)  -->
<!DOCTYPE svg PUBLIC "-//W3C//DTD SVG 1.1//EN" "http://www.w3.org/Graphics/SVG/1.1/DTD/svg11.dtd">
<svg version="1.1" id="Capa_1" xmlns="http://www.w3.org/2000/svg" xmlns:xlink="http://www.w3.org/1999/xlink" x="0px" y="0px"
	 width="57px" height="57px" viewBox="0 0 57 57" enable-background="new 0 0 57 57" xml:space="preserve">
<path fill="#1E100D" d="M0,0v57h57V0H0z M54,54H3V3h51V54z"/>
<g>
	<path fill="#1E100D" d="M29.977,23.252c-0.099-0.193-0.098-0.402-0.092-0.612c-0.009-0.072-0.017-0.145-0.023-0.217
		c-0.135-0.474-0.266-0.947-0.4-1.42c-0.293-1.014-0.876-1.879-1.545-2.652c-0.422-0.492-1.05-0.808-1.585-1.201l-0.966-0.453
		l-0.924-0.305l-0.614-0.144l-0.225,0.021c-0.2,0.162-0.437,0.072-0.657,0.095c-0.452-0.201-0.932-0.09-1.397-0.102
		c-0.745-0.02-1.49-0.008-2.236-0.008c-1.263,0-2.529,0.023-3.792-0.009c-0.495-0.013-0.617,0.159-0.616,0.634
		c0.014,7.973,0.011,15.965,0.011,23.919h3.627c0-2.409,0-4.784,0.004-7.179c0.001-0.208-0.06-0.439,0.107-0.607l-0.014-0.033v0.004
		c0.336-0.217,0.642-0.11,0.954-0.104c0.669,0.018,1.352-0.111,2.014,0.074c0.044,0.018,0.093,0.031,0.138,0.047
		c0.179-0.007,0.36-0.01,0.539-0.016c0.062-0.01,0.125-0.019,0.187-0.025c0.37-0.184,0.826-0.018,1.177-0.287l-0.131-0.078
		c0.211-0.049,0.406-0.248,0.64-0.056l0.439-0.136c0.36-0.404,0.846-0.531,1.352-0.62c2.207-1.093,3.332-2.962,3.81-5.296
		c-0.086-0.146-0.213-0.295,0.016-0.432c0.217-0.143,0.068-0.411,0.197-0.585c0.008-0.064,0.018-0.128,0.021-0.19
		C29.984,24.604,29.982,23.929,29.977,23.252z M26.027,24.177c-0.039,0.584-0.063,1.162-0.179,1.738
		c-0.423,2.104-2.372,3.465-4.447,3.433c-0.623,0.079-1.246,0.045-1.869-0.002l-0.756-0.016c-0.031,0.012-0.064,0.018-0.098,0.018
		c-0.18-0.131-0.136-0.326-0.136-0.501c-0.002-2.867-0.002-5.734-0.002-8.603c0-0.162-0.025-0.333,0.11-0.463
		c0.035-0.012,0.072-0.013,0.107-0.002c0.038-0.005,0.076-0.009,0.114-0.011l0.022-0.024l0.027,0.016l0.003-0.001l0.081-0.075
		c-0.027-0.036-0.176-0.07-0.063-0.101c0.189-0.051,0.411-0.076,0.585,0.084l2.207-0.005c0.185-0.153,0.396-0.104,0.758-0.064
		c-0.248,0.047-0.351,0.065-0.456,0.084l0.083,0.078c0.219-0.043,0.38,0.194,0.605,0.12c0.16-0.021,0.312-0.001,0.439,0.109
		c0.324,0.163,0.699,0.214,0.989,0.448c0.968,0.674,1.569,1.581,1.753,2.754c0.024,0.162,0.063,0.319,0.097,0.479l0.033-0.314
		C26.099,23.632,26.222,23.91,26.027,24.177z M42.415,22.298c-0.362,0.013-0.728,0.024-1.091,0.038
		c-0.333,0.099-0.665,0.196-0.998,0.296l-0.744,0.348c-0.917,0.61-1.809,1.248-2.459,2.211l-0.087-1.125
		c-0.009-0.062-0.019-0.123-0.027-0.188c-0.157-0.325-0.055-0.729-0.307-1.029c-0.974,0.004-1.947,0.016-2.923,0.006
		c-0.323-0.002-0.537,0.062-0.492,0.443c0.113,0.2,0.104,0.421,0.111,0.641c0.182,5.506,0.086,11.015,0.107,16.522
		c0,0.257,0.001,0.514,0.003,0.77c1.007,0.002,2.015-0.021,3.019,0.015c0.488,0.017,0.621-0.146,0.619-0.624
		c-0.019-3.714-0.014-7.43-0.008-11.143c0.002-0.227-0.092-0.481,0.139-0.667c0.027-0.009,0.056-0.012,0.082-0.009
		c0.033-0.023,0.065-0.045,0.103-0.067c0.156-0.151,0.321-0.3,0.474-0.459c0.864-0.908,1.94-1.389,3.174-1.549l0.011-0.029
		l-0.028-0.012c0-0.064-0.217-0.132-0.021-0.184c0.152-0.042,0.33-0.046,0.466,0.086c0.333,0.006,0.661,0.008,0.993,0.013
		c0.115-0.107,0.145-0.242,0.145-0.394c-0.005-1.16-0.005-2.319,0-3.479C42.672,22.522,42.604,22.381,42.415,22.298z M14.799,40.906
		c0.036-0.004,0.072-0.007,0.108-0.008l0.001-0.002l0.001-0.035c-0.013-0.01-0.025-0.02-0.037-0.029
		c-0.036-0.043-0.063-0.091-0.083-0.143c-0.002,0.067-0.002,0.14-0.002,0.207C14.792,40.898,14.796,40.902,14.799,40.906z"/>
	<path fill="#1E100D" d="M15.424,16.191c0.175-0.025,0.349-0.044,0.523-0.06h-0.309c-0.278-0.033-0.555-0.051-0.829,0.031v0.211
		C14.885,16.253,15.053,16.243,15.424,16.191z"/>
	<path fill="#1E100D" d="M18.52,16.155c-0.857-0.015-1.714-0.017-2.572-0.023c-0.175,0.015-0.349,0.035-0.523,0.06
		c-0.371,0.052-0.539,0.062-0.614,0.183L14.8,39.928c0,0.254-0.004,0.51-0.009,0.764c0.02,0.053,0.047,0.102,0.083,0.144
		c0.012,0.015,0.025,0.021,0.037,0.029l0.002-0.069c0-7.972,0.003-15.943-0.011-23.916c-0.001-0.475,0.121-0.643,0.616-0.63
		c1.263,0.032,2.529,0.009,3.792,0.009C19.066,16.069,18.783,16.159,18.52,16.155z M14.754,40.877
		c-0.005-0.006-0.007-0.016-0.011-0.021c-0.002,0.02-0.006,0.033-0.01,0.054c0.018,0.005,0.036,0.007,0.054,0.007v-0.014
		C14.777,40.893,14.766,40.884,14.754,40.877z M14.81,16.163c-0.027-0.006-0.055-0.008-0.083-0.004
		c0.007,0.033,0.01,0.068,0.014,0.102C14.758,16.225,14.782,16.191,14.81,16.163z"/>
	<path fill="#1E100D" d="M14.771,40.798c0,0.021-0.014,0.038-0.015,0.06c0.003,0.007,0,0.016,0.003,0.021
		c0.012,0.007,0.019,0.014,0.03,0.021c0.002-0.067,0.014-0.14,0.015-0.207c-0.026-0.082-0.038-0.167-0.033-0.252V40.798z
		 M14.745,16.654v23.665l0.003-0.172c-0.003-7.734-0.003-15.466-0.002-23.203c0-0.31,0.003-0.473,0.063-0.57v-0.211
		c-0.028,0.028-0.052,0.062-0.069,0.098C14.751,16.392,14.745,16.523,14.745,16.654z"/>
	<path fill="#1E100D" d="M14.804,40.689c0.003-0.254,0.002-0.51,0.002-0.765c0.004-7.852,0.003-15.702,0.007-23.553
		c-0.059,0.098-0.064,0.261-0.064,0.57c-0.002,7.735,0.01,15.467,0.014,23.203c0,0.058,0.009,0.113,0.009,0.172v0.119
		C14.766,40.521,14.776,40.607,14.804,40.689z M14.74,16.261c-0.004-0.033-0.007-0.068-0.014-0.102
		c-0.004,0.063-0.012,0.123-0.019,0.183C14.716,16.314,14.727,16.287,14.74,16.261z M14.743,40.855
		c-0.028-0.057-0.043-0.117-0.047-0.179c0-0.391,0-0.78-0.002-1.173v1.391l0.039,0.014C14.737,40.891,14.741,40.873,14.743,40.855
		L14.743,40.855z"/>
	<path fill="#1E100D" d="M14.757,40.855c0.001-0.021,0.015-0.039,0.015-0.06v-0.358c0-0.041-0.015-0.08-0.015-0.119
		c0.001-7.887-0.006-15.776-0.006-23.666c0-0.131,0.005-0.263-0.008-0.394c-0.015,0.026-0.026,0.053-0.033,0.081
		c-0.008,0.086-0.018,0.171-0.018,0.255c0,7.637,0,15.272,0.004,22.909c0,0.393,0.006,0.782,0.006,1.173
		C14.708,40.74,14.726,40.801,14.757,40.855z M14.771,40.438v-0.119V40.438z M36.307,41.396c-0.729,0.004-1.461,0.004-2.193,0
		c-0.217-0.002-0.439,0.015-0.629-0.133l-0.026-0.033l-0.056,0.002c0,0.033-0.004,0.063-0.006,0.097
		c0.045,0.034,0.09,0.071,0.138,0.104c1.188-0.002,2.382-0.004,3.569-0.004l0.17-0.179v-0.286
		C37.207,41.361,36.995,41.396,36.307,41.396L36.307,41.396z"/>
	<path fill="#1E100D" d="M33.482,41.264c0.188,0.147,0.412,0.133,0.629,0.135c0.731,0.002,1.464,0.002,2.195,0
		c0.688-0.002,0.898-0.037,0.965-0.432l0.004-12.155c-0.229,0.184-0.137,0.44-0.139,0.667c-0.006,3.713-0.011,7.429,0.008,11.143
		c0.002,0.479-0.131,0.641-0.619,0.624c-1.004-0.036-2.012-0.013-3.019-0.015c-0.021,0.002-0.032,0.002-0.052,0.002
		C33.466,41.241,33.475,41.252,33.482,41.264z M33.307,27.052c-0.01-0.846,0.006-1.695-0.017-2.542
		c-0.011,0.199-0.026,0.397-0.022,0.596c0.01,0.646,0.021,1.288,0.03,1.935C33.303,27.044,33.307,27.049,33.307,27.052z
		 M33.434,41.195c-0.012-0.021-0.021-0.035-0.031-0.055v0.062C33.412,41.197,33.424,41.195,33.434,41.195z M33.227,25.063
		l-0.031-0.031v0.022C33.204,25.052,33.216,25.057,33.227,25.063z M33.234,23.346v-0.024h-0.062
		c0.005,0.055,0.007,0.136,0.009,0.211c0.036,0.092,0.063,0.184,0.082,0.276C33.256,23.654,33.246,23.5,33.234,23.346z"/>
	<path fill="#1E100D" d="M33.234,23.346c0.011,0.154,0.021,0.303,0.029,0.457c0.047,0.235,0.041,0.471,0.024,0.71
		c0.021,0.847,0.007,1.695,0.019,2.541c0.146,0.211,0.084,0.451,0.084,0.679c0.006,4.47,0.008,8.938,0.01,13.408
		c0.01,0.021,0.021,0.036,0.031,0.058c0.026,0,0.053,0.012,0.075,0.032c-0.002-0.256-0.003-0.513-0.003-0.77
		c-0.021-5.508,0.073-11.004-0.107-16.51c-0.008-0.222,0.002-0.463-0.111-0.63h-0.051V23.346z"/>
	<path fill="#1E100D" d="M33.4,41.202v0.03l0.056-0.002c-0.009-0.01-0.015-0.021-0.024-0.035
		C33.421,41.195,33.41,41.198,33.4,41.202z"/>
	<path fill="#1E100D" d="M33.434,41.195c0.008,0.014,0.014,0.025,0.023,0.035h0.052C33.484,41.208,33.46,41.195,33.434,41.195z
		 M33.359,41.253c0.006-0.028,0.014-0.041,0.021-0.041c-0.021-0.022-0.04-0.048-0.058-0.073c-0.012,0.035-0.029,0.067-0.053,0.096
		c0.041,0.031,0.084,0.063,0.123,0.097C33.365,41.307,33.354,41.281,33.359,41.253z"/>
	<path fill="#1E100D" d="M33.382,41.212c-0.008,0-0.017,0.013-0.022,0.041c-0.004,0.028,0.008,0.054,0.037,0.076
		c0.002-0.033,0.006-0.063,0.006-0.097C33.395,41.227,33.389,41.219,33.382,41.212z M33.338,29.509
		c0.001,3.718,0.001,7.435-0.002,11.152c0.004-0.063,0.008-0.126,0.008-0.188C33.339,36.816,33.372,33.163,33.338,29.509z
		 M33.425,41.202v-0.062c-0.055-0.053-0.054-0.104-0.063-0.158c0,0.053-0.01,0.105-0.028,0.156c0.017,0.024,0.034,0.049,0.054,0.071
		l0.012-0.001C33.402,41.208,33.37,41.204,33.425,41.202z M33.309,27.063c0,0,0-0.006-0.002-0.011c0-0.003-0.004-0.008-0.009-0.012
		C33.303,27.049,33.307,27.056,33.309,27.063L33.309,27.063z"/>
	<path fill="#1E100D" d="M33.338,27.473v2.036c0.034,3.654-0.009,7.31-0.006,10.966c0,0.063-0.018,0.123-0.018,0.188v0.096
		c0,0.074,0.021,0.149,0.021,0.228c0.013,0.055,0.034,0.107,0.062,0.158c-0.002-4.472,0-8.939-0.008-13.41
		c0-0.229,0.063-0.47-0.082-0.681v0.007C33.359,27.196,33.338,27.336,33.338,27.473z M33.383,41.211
		C33.383,41.211,33.383,41.212,33.383,41.211c0.006,0.008,0.012,0.016,0.02,0.021v-0.03C33.396,41.204,33.389,41.208,33.383,41.211z
		 M33.271,41.04v0.192c0.021-0.029,0.04-0.061,0.054-0.094C33.306,41.106,33.287,41.073,33.271,41.04z"/>
	<path fill="#1E100D" d="M33.348,40.982c-0.016-0.106-0.02-0.215-0.012-0.321c0.003-3.718,0.003-7.437,0.002-11.152
		c-0.006-0.726-0.014-1.452-0.025-2.178c-0.002-0.09-0.004-0.179-0.004-0.269c-0.002-0.008-0.006-0.015-0.011-0.022
		c-0.005,0.2-0.014,0.402-0.014,0.601L33.271,41.04c0.016,0.033,0.03,0.065,0.054,0.099C33.342,41.088,33.35,41.035,33.348,40.982z"
		/>
	<path fill="#1E100D" d="M33.309,27.063c0,0.09,0.002,0.179,0.004,0.269c0.014,0.726,0.021,1.452,0.025,2.178v-2.036
		C33.338,27.336,33.359,27.196,33.309,27.063L33.309,27.063z M33.313,40.661c0,0.106-0.008,0.216,0.014,0.321
		c0-0.076-0.014-0.151-0.014-0.228V40.661z M37.271,41.253c0.027-0.003,0.055-0.011,0.082-0.021
		c-0.018-0.026-0.029-0.055-0.037-0.084C37.307,41.186,37.291,41.221,37.271,41.253z M37.357,28.803
		c-0.028-0.003-0.057,0-0.082,0.009c0.016,0.025,0.029,0.053,0.039,0.081C37.324,28.861,37.338,28.831,37.357,28.803z"/>
	<path fill="#1E100D" d="M37.303,40.807c-0.002-3.646,0-7.299,0-10.947c-0.007,3.516,0,7.026-0.003,10.539
		c-0.001,0.244-0.005,0.431-0.026,0.568v0.286c0.021-0.034,0.031-0.067,0.045-0.104C37.279,41.04,37.303,40.921,37.303,40.807z"/>
	<path fill="#1E100D" d="M37.3,40.396c0.003-3.513-0.004-7.023,0.003-10.539v-0.629c0-0.111-0.021-0.229,0.014-0.336
		c-0.012-0.026-0.021-0.054-0.039-0.081c-0.002,4.05-0.004,8.104-0.004,12.155C37.295,40.827,37.299,40.643,37.3,40.396L37.3,40.396
		z M37.354,40.662v0.085c0.004-3.845,0.004-7.688,0.004-11.53c0,0.063-0.004,0.124-0.004,0.186
		C37.357,33.157,37.357,36.909,37.354,40.662z M37.348,29.15v-0.253c0,0.017-0.017,0.033-0.025,0.051
		C37.34,29.014,37.348,29.082,37.348,29.15z M37.311,41.148c0.008,0.028,0.037,0.059,0.037,0.084v-0.315
		C37.348,40.996,37.336,41.073,37.311,41.148z"/>
	<path fill="#1E100D" d="M37.328,28.948c0.009-0.018,0.02-0.034,0.02-0.051v-0.095c0,0.029-0.029,0.058-0.039,0.09
		C37.314,28.911,37.322,28.931,37.328,28.948z M37.327,28.962c-0.015,0.062-0.022,0.125-0.024,0.188v0.707
		c0,3.648-0.002,7.301,0,10.947c0,0.114-0.025,0.233,0.01,0.344c0.025-0.074,0.037-0.152,0.035-0.231v-0.17
		c0-0.029,0.004-0.058,0.004-0.085c0.002-3.753-0.002-7.505-0.004-11.26c-0.002-0.063,0-0.123,0-0.188V29.15
		c0.002-0.068-0.004-0.137-0.02-0.202C37.326,28.953,37.329,28.958,37.327,28.962z"/>
	<path fill="#1E100D" d="M37.327,28.962l0.007-0.014l-0.02-0.056C37.282,29,37.3,29.117,37.3,29.229v0.629
		c0.003-0.234,0.003-0.472,0.003-0.707C37.305,29.089,37.313,29.025,37.327,28.962z M21.71,33.077
		c0.013-0.024,0.024-0.05,0.034-0.076c-0.05,0.026-0.104,0.043-0.16,0.049C21.626,33.059,21.668,33.066,21.71,33.077z
		 M18.656,40.868c0.006,0.004,0.013,0.007,0.019,0.009c-0.006-0.018-0.011-0.036-0.014-0.055l-0.001-0.129l-0.004,0.008V40.868
		L18.656,40.868z M18.661,32.979l-0.011,0.013l0.001-0.001L18.661,32.979z"/>
	<path fill="#1E100D" d="M19.271,32.98c0.769,0.043,1.546-0.086,2.313,0.067c0.056-0.005,0.111-0.021,0.16-0.049
		c-0.045-0.017-0.09-0.028-0.134-0.047C20.831,32.965,20.05,32.975,19.271,32.98z M18.656,40.701l0.004-0.008l-0.003-0.385
		L18.656,40.701z M18.983,32.986l-0.322,0.005v0.332C18.694,33.124,18.797,33.02,18.983,32.986z"/>
	<path fill="#1E100D" d="M21.57,33.05c-0.909,0.009-1.823-0.092-2.729,0.058c-0.049,0.043-0.085,0.098-0.107,0.158
		c-0.064,2.264-0.008,4.526-0.03,6.791c-0.002,0.211,0.039,0.438-0.043,0.639l0.001,0.129c0.002,0.019,0.007,0.037,0.014,0.055
		c0.025,0.009,0.052,0.011,0.077,0.005c0.002-2.438,0.011-4.877-0.005-7.315c-0.003-0.383,0.098-0.5,0.488-0.487
		c0.824,0.024,1.649,0.002,2.476,0c-0.042-0.011-0.083-0.021-0.126-0.026C21.579,33.05,21.575,33.05,21.57,33.05z"/>
	<path fill="#1E100D" d="M18.661,33.323l-0.004,6.985l0.003,0.385c0.082-0.201,0.041-0.428,0.043-0.639
		c0.022-2.265-0.034-4.525,0.03-6.791c0.021-0.062,0.058-0.115,0.107-0.156c0.907-0.149,1.82-0.049,2.729-0.06h0.014
		c-0.768-0.153-1.544-0.024-2.313-0.067l-0.287,0.006C18.797,33.02,18.694,33.124,18.661,33.323z M15.72,16.06
		c-0.028,0.022-0.055,0.047-0.081,0.072c0.073-0.031,0.148-0.057,0.223-0.076C15.814,16.057,15.767,16.058,15.72,16.06z
		 M22.837,16.132c-0.123-0.051-0.287,0.005-0.395-0.087c-0.128-0.005-0.255-0.013-0.382-0.019h-2.89
		c0.03,0.016,0.056,0.039,0.077,0.065h0.01C20.451,16.118,21.646,16.041,22.837,16.132z"/>
	<path fill="#1E100D" d="M22.837,16.132c-1.191-0.091-2.386-0.014-3.579-0.04h-0.01c0.03,0.04,0.05,0.091,0.061,0.163
		c0.746,0,1.491-0.012,2.236,0.008c0.466,0.012,0.945-0.1,1.397,0.102l0.006-0.123C22.926,16.192,22.887,16.153,22.837,16.132z
		 M19.248,16.092c-0.021-0.027-0.047-0.049-0.077-0.065h-1.289c-0.293,0-0.589,0.003-0.884,0.004l-1.136,0.025
		c-0.074,0.02-0.149,0.045-0.223,0.076h0.309C17.047,16.043,18.149,16.132,19.248,16.092z"/>
	<path fill="#1E100D" d="M15.947,16.132c0.858,0.007,1.715,0.009,2.572,0.023c0.264,0.004,0.547-0.086,0.789,0.1
		c-0.006-0.059-0.027-0.115-0.061-0.163C18.149,16.132,17.047,16.043,15.947,16.132z M33.234,23.249
		c0.004-0.307,0.021-0.441,0.152-0.501c-0.072,0.002-0.145,0.002-0.214,0.002c-0.112,0.183-0.026,0.365,0,0.548
		C33.195,23.261,33.216,23.245,33.234,23.249z M36.384,22.731c0.112,0.027,0.216,0.067,0.323,0.117
		c-0.035-0.039-0.061-0.078-0.094-0.117h0.007H36.384z"/>
	<path fill="#1E100D" d="M33.387,22.748c-0.13,0.06-0.146,0.194-0.15,0.501c0.018,0.002,0.031,0.018,0.051,0.049
		c-0.045-0.382,0.169-0.445,0.492-0.443c0.976,0.01,1.947-0.002,2.923-0.006c-0.105-0.05-0.216-0.089-0.328-0.117L33.387,22.748z
		 M33.234,23.298v-0.049c-0.021-0.004-0.039,0.012-0.062,0.049H33.234z"/>
	<path fill="#1E100D" d="M33.234,23.249v0.049h0.051C33.268,23.267,33.252,23.251,33.234,23.249z M33.176,22.651
		c-0.002,0.033-0.003,0.066-0.001,0.099c0.05-0.043,0.109-0.074,0.173-0.09L33.176,22.651z M36.6,22.731
		c-0.004-0.029-0.008-0.059-0.014-0.088c-0.129,0.01-0.258,0.018-0.385,0.026C36.334,22.684,36.467,22.703,36.6,22.731z"/>
	<path fill="#1E100D" d="M35.633,22.694c0.127-0.001,0.258-0.001,0.385-0.004c0.123,0,0.252,0.015,0.366,0.041h0.235
		c-0.168-0.028-0.273-0.048-0.408-0.062C36.021,22.679,35.82,22.688,35.633,22.694z M33.83,22.698
		c0.128-0.003,0.255-0.003,0.382-0.004c-0.288-0.008-0.576-0.019-0.864-0.034c-0.063,0.016-0.123,0.047-0.173,0.09
		c0.069,0,0.14,0,0.212-0.002C33.475,22.707,33.611,22.701,33.83,22.698z"/>
	<path fill="#1E100D" d="M36.018,22.69c-0.127,0.003-0.258,0.003-0.385,0.004c-0.475,0.014-0.947,0.013-1.421,0
		c-0.127,0.001-0.254,0.001-0.382,0.004c-0.219,0.003-0.355,0.009-0.443,0.05l2.986-0.017C36.256,22.704,36.138,22.69,36.018,22.69z
		 M33.389,22.65l-0.213,0.001l0.172,0.009C33.361,22.656,33.375,22.652,33.389,22.65z M34.245,22.649l-0.358,0.001
		C34.006,22.651,34.126,22.65,34.245,22.649z M36.201,22.67l0.385-0.026l-0.652,0.001C36.021,22.651,36.111,22.658,36.201,22.67
		L36.201,22.67z"/>
	<path fill="#1E100D" d="M35.633,22.694c0.188-0.006,0.379-0.016,0.568-0.024c-0.09-0.011-0.18-0.02-0.27-0.025l-1.688,0.005
		c-0.12,0.001-0.239,0.002-0.359,0.001h-0.497c-0.015,0.003-0.028,0.006-0.041,0.01c0.288,0.016,0.575,0.026,0.864,0.034
		C34.686,22.692,35.158,22.695,35.633,22.694z"/>
	<path fill="#1E100D" d="M35.633,22.694c-0.475,0.001-0.947-0.002-1.421,0C34.686,22.707,35.158,22.708,35.633,22.694z
		 M25.944,31.783c-0.471,0.159-0.924,0.367-1.352,0.619C25.071,32.259,25.535,32.078,25.944,31.783z"/>
	<path fill="#1E100D" d="M24.593,32.402c0.427-0.26,0.883-0.452,1.352-0.619C25.438,31.872,24.953,31.999,24.593,32.402z
		 M33.182,23.52c-0.002,0.367-0.007,0.733-0.009,1.101c0.012,0.015,0.021,0.032,0.028,0.05
		C33.234,24.287,33.271,23.904,33.182,23.52z"/>
	<path fill="#1E100D" d="M33.201,24.67c0.056,0.118,0.033,0.237-0.008,0.361c0.011,0.009,0.021,0.021,0.031,0.031
		c0.018,0.011,0.031,0.025,0.043,0.043c-0.004-0.198,0.01-0.396,0.021-0.596c-0.005-0.238-0.013-0.476-0.024-0.714
		c-0.02-0.094-0.047-0.187-0.082-0.276C33.271,23.904,33.234,24.287,33.201,24.67L33.201,24.67z"/>
	<path fill="#1E100D" d="M33.266,23.796c0.01,0.239,0.021,0.476,0.024,0.714C33.314,24.272,33.307,24.032,33.266,23.796z
		 M33.227,25.063c0.017,0.015,0.028,0.026,0.041,0.043C33.258,25.089,33.244,25.074,33.227,25.063z M33.201,24.67
		c-0.008-0.018-0.018-0.033-0.028-0.05c0.003,0.084,0.009,0.168,0.013,0.253C33.189,24.806,33.195,24.739,33.201,24.67z"/>
	<path fill="#1E100D" d="M33.201,24.67c-0.006,0.069-0.012,0.136-0.016,0.203l0.008,0.158C33.234,24.907,33.257,24.788,33.201,24.67
		z M23.219,16.222c0.124,0.029,0.251,0.05,0.381,0.048l-0.218-0.143C23.345,16.182,23.285,16.217,23.219,16.222z"/>
	<path fill="#1E100D" d="M23.139,16.218l-0.003-0.002c-0.037,0.041-0.09,0.039-0.145,0.032c-0.001,0.043-0.019,0.084-0.049,0.116
		c0.22-0.022,0.457,0.067,0.657-0.095c-0.128,0-0.256-0.017-0.381-0.048C23.192,16.225,23.165,16.224,23.139,16.218L23.139,16.218z"
		/>
	<path fill="#1E100D" d="M22.948,16.241l-0.006,0.123c0.03-0.032,0.048-0.073,0.049-0.116L22.948,16.241z M23.146,16.204
		l0.073,0.018c0.066-0.004,0.126-0.04,0.163-0.095c-0.071,0.012-0.144,0.021-0.215,0.032C23.161,16.179,23.152,16.192,23.146,16.204
		z"/>
	<path fill="#1E100D" d="M23.139,16.218c0.026,0.005,0.053,0.007,0.08,0.004c-0.024-0.006-0.049-0.012-0.073-0.018l-0.01,0.012
		C23.137,16.217,23.138,16.217,23.139,16.218z M23.644,32.602c-0.087-0.004,0.021,0.045,0.001,0.071
		c0.179,0.004,0.355-0.042,0.509-0.134C23.973,32.466,23.817,32.607,23.644,32.602z"/>
	<path fill="#1E100D" d="M23.514,32.596c0.043,0.024,0.087,0.051,0.131,0.077c0.02-0.026-0.088-0.075-0.001-0.071
		c0.174,0.006,0.329-0.136,0.51-0.063C23.92,32.346,23.725,32.546,23.514,32.596z M29.754,26.487
		c0.16-0.139,0.119-0.283,0.014-0.432C29.721,26.199,29.742,26.343,29.754,26.487z"/>
	<path fill="#1E100D" d="M29.754,26.487c-0.012-0.145-0.033-0.288,0.014-0.432C29.541,26.192,29.668,26.341,29.754,26.487z
		 M18.71,20.64c0-0.211-0.043-0.434,0.05-0.634l-0.001-0.229c-0.035-0.011-0.072-0.01-0.107,0.002l0.001,8.966
		c0.001,0.2,0.017,0.401,0.026,0.603c0.033,0,0.066-0.006,0.098-0.018c-0.047-0.054-0.072-0.123-0.069-0.195
		C18.704,26.304,18.706,23.471,18.71,20.64z"/>
	<path fill="#1E100D" d="M18.774,29.23c-0.004-3.074-0.011-6.149-0.015-9.227c-0.093,0.2-0.05,0.423-0.05,0.634
		c-0.004,2.831-0.006,5.664-0.002,8.495c-0.003,0.072,0.021,0.142,0.069,0.195C18.773,29.295,18.772,29.263,18.774,29.23z
		 M18.599,28.992c-0.003-2.965-0.003-5.931-0.001-8.896c0-0.109-0.017-0.221,0.054-0.317c-0.136,0.13-0.11,0.301-0.11,0.463
		c0,2.868,0,5.735,0.002,8.603c0,0.176-0.044,0.372,0.136,0.502C18.552,29.252,18.599,29.113,18.599,28.992z"/>
	<path fill="#1E100D" d="M18.651,19.779c-0.07,0.097-0.054,0.208-0.054,0.317c-0.002,2.965-0.002,5.93,0.001,8.896
		c0,0.121-0.047,0.26,0.08,0.355c-0.01-0.201-0.025-0.404-0.026-0.604L18.651,19.779z M18.595,40.794
		c-0.011,0.019-0.018,0.035-0.031,0.052c-0.009,0.006-0.015,0.012-0.024,0.016c0.001,0.014,0.003,0.021,0.003,0.035
		c0.029,0,0.058,0.001,0.087,0.004l0.007,0.008V40.87C18.637,40.854,18.606,40.829,18.595,40.794z M18.661,32.982v-0.004
		l-0.007,0.01L18.661,32.982z"/>
	<path fill="#1E100D" d="M18.568,40.846c0.013-0.017,0.025-0.033,0.037-0.052L18.6,40.777c-0.011-2.459-0.002-4.907-0.003-7.367
		c0-0.137-0.039-0.286,0.055-0.396H18.65c-0.167,0.168-0.106,0.396-0.107,0.604c-0.004,2.396-0.004,4.782-0.004,7.179l0.004,0.068
		C18.551,40.857,18.56,40.852,18.568,40.846z M18.656,40.868v-0.167c-0.014,0.033-0.03,0.063-0.051,0.093
		C18.616,40.829,18.633,40.854,18.656,40.868z M18.654,32.988l0.007-0.01l-0.01,0.012L18.654,32.988z"/>
	<path fill="#1E100D" d="M18.657,40.311c-0.015-2.265,0.004-4.528-0.012-6.791c-0.001-0.064,0.004-0.131,0.016-0.194v-0.332h-0.009
		c-0.094,0.126-0.055,0.272-0.055,0.409c0.001,2.457-0.008,4.916,0.003,7.377l0.005,0.017c0.02-0.029,0.037-0.061,0.051-0.093
		L18.657,40.311z"/>
	<path fill="#1E100D" d="M18.657,40.311l0.004-6.985c-0.012,0.063-0.018,0.13-0.016,0.194
		C18.661,35.779,18.643,38.046,18.657,40.311z M14.908,40.898h0.068l-0.054-0.028c-0.002,0.009-0.006,0.021-0.015,0.026
		L14.908,40.898z M18.507,40.885c-0.007,0.006-0.015,0.006-0.021,0.012h0.026C18.511,40.891,18.509,40.889,18.507,40.885z"/>
	<path fill="#1E100D" d="M14.923,40.875c0.018,0.01,0.034,0.02,0.054,0.025c1.17-0.002,2.34-0.004,3.509-0.004
		c0.007-0.004,0.015-0.004,0.021-0.008c-0.007-0.033,0.004-0.092,0.032-0.092h-3.627C14.926,40.799,14.929,40.854,14.923,40.875z"/>
	<path fill="#1E100D" d="M14.923,40.87c-0.005-0.002-0.008-0.006-0.014-0.009l-0.001,0.035
		C14.917,40.891,14.921,40.879,14.923,40.87z"/>
	<path fill="#1E100D" d="M14.923,40.87c0.006-0.026,0.001-0.055-0.012-0.078l-0.002,0.069C14.915,40.864,14.918,40.868,14.923,40.87
		z M18.544,40.896l-0.001-0.035c-0.011,0.009-0.023,0.016-0.036,0.022c0.002,0.005,0.004,0.007,0.005,0.013H18.544z"/>
	<path fill="#1E100D" d="M18.507,40.885l0.036-0.023l-0.004-0.067C18.512,40.816,18.5,40.852,18.507,40.885z M21.599,32.954
		c-0.664-0.187-1.347-0.058-2.014-0.074c-0.313-0.009-0.612-0.112-0.948,0.104v0.004C19.645,32.861,20.614,32.934,21.599,32.954z
		 M18.651,32.99L18.651,32.99L18.651,32.99z"/>
	<path fill="#1E100D" d="M18.637,32.99c0.112,0,0.228-0.002,0.336-0.004c0.062-0.01,0.138-0.012,0.218-0.008
		c0.025,0.001,0.051,0.002,0.076,0.002c0.781-0.006,1.55-0.018,2.33-0.026C20.613,32.934,19.645,32.861,18.637,32.99z"/>
	<path fill="#1E100D" d="M18.983,32.986l0.287-0.006c-0.025,0-0.05,0-0.074-0.002C19.125,32.975,19.054,32.977,18.983,32.986z
		 M18.65,32.991h0.002H18.65z M18.652,32.984h0.009v0.007h-0.009V32.984z"/>
	<path fill="#1E100D" d="M18.651,32.99L18.651,32.99l0.001,0.002h-0.001V32.99z M18.652,32.991h0.009H18.652z M26.003,23.668
		c0.131,0.164,0.09,0.336,0.024,0.509c0.194-0.267,0.071-0.545,0.009-0.823L26.003,23.668z"/>
	<path fill="#1E100D" d="M26.003,23.668c0.009,0.169,0.017,0.34,0.024,0.509C26.093,24.004,26.134,23.832,26.003,23.668z
		 M19.528,19.665c-0.174-0.16-0.396-0.135-0.585-0.084c-0.114,0.03,0.035,0.064,0.063,0.101
		C19.177,19.564,19.354,19.596,19.528,19.665z"/>
	<path fill="#1E100D" d="M19.374,19.67l0.155-0.005c-0.175-0.069-0.352-0.101-0.522,0.017l0.158-0.005
		C19.234,19.667,19.304,19.664,19.374,19.67L19.374,19.67z"/>
	<path fill="#1E100D" d="M19.164,19.677c0.07-0.004,0.14-0.005,0.21-0.007C19.304,19.664,19.233,19.667,19.164,19.677z
		 M22.038,19.68c0.105-0.019,0.208-0.037,0.456-0.084c-0.362-0.04-0.573-0.089-0.758,0.064
		C21.841,19.601,21.945,19.579,22.038,19.68z"/>
	<path fill="#1E100D" d="M21.735,19.66l0.302,0.02C21.945,19.579,21.841,19.601,21.735,19.66z M41.4,26.667
		c-0.023-0.009-0.049-0.014-0.072-0.019c0.023,0.01,0.047,0.023,0.07,0.04C41.398,26.682,41.398,26.674,41.4,26.667z"/>
	<path fill="#1E100D" d="M41.328,26.648c0.023,0.005,0.049,0.01,0.072,0.019c0.014-0.07,0.047-0.107,0.132-0.078
		c-0.134-0.132-0.313-0.128-0.464-0.086c-0.197,0.052,0.02,0.119,0.02,0.184C41.17,26.632,41.251,26.618,41.328,26.648z
		 M41.398,26.688l0.021,0.018c0.009-0.008,0.019-0.017,0.026-0.027c-0.016-0.005-0.029-0.01-0.045-0.012
		C41.398,26.674,41.398,26.682,41.398,26.688L41.398,26.688z"/>
	<path fill="#1E100D" d="M41.4,26.667c0.017,0.002,0.031,0.007,0.047,0.012c0.027-0.03,0.058-0.059,0.085-0.09
		C41.447,26.56,41.415,26.597,41.4,26.667z M41.398,26.688c-0.021-0.016-0.046-0.029-0.07-0.04c-0.068-0.014-0.141-0.002-0.2,0.034
		l-0.003,0.006l0.282,0.018c-0.005-0.005-0.009-0.01-0.009-0.016V26.688z"/>
	<path fill="#1E100D" d="M41.128,26.683c0.06-0.036,0.132-0.048,0.2-0.034c-0.077-0.03-0.158-0.017-0.24,0.038
		c0.012,0.001,0.025,0.002,0.037,0.002L41.128,26.683z M41.398,26.69c0,0.006,0.004,0.011,0.009,0.016h0.013
		c-0.007-0.006-0.014-0.01-0.021-0.018V26.69L41.398,26.69z M18.632,40.908L18.632,40.908l0.009-0.01L18.632,40.908z M14.907,40.898
		c-0.018,0.016-0.041,0.025-0.065,0.028c0.047,0.019,0.096,0.026,0.146,0.025C14.958,40.938,14.931,40.92,14.907,40.898z
		 M18.521,40.915l-0.007,0.004h0.008h-0.001V40.915z M14.799,40.906h-0.002c0.011,0.007,0.021,0.014,0.033,0.02L14.799,40.906z"/>
	<path fill="#1E100D" d="M14.799,40.906l0.031,0.02l0.012,0.004c0.024-0.004,0.046-0.014,0.065-0.029
		C14.871,40.9,14.835,40.902,14.799,40.906z"/>
	<path fill="#1E100D" d="M18.522,40.919l-0.009,0.002c-0.095,0.065-0.208,0.097-0.323,0.09c-0.975,0.005-1.951,0.005-2.928,0
		c-0.095,0.004-0.189-0.016-0.274-0.057c-0.049,0.001-0.099-0.007-0.146-0.024h-0.003c-0.014-0.008-0.028-0.016-0.042-0.023
		c0.038,0.042,0.076,0.083,0.112,0.126c1.212-0.003,2.42,0,3.632-0.003c0.029-0.04,0.062-0.063,0.092-0.118h-0.001
		C18.599,40.967,18.563,40.945,18.522,40.919z"/>
	<path fill="#1E100D" d="M14.839,40.93h0.003l-0.012-0.004C14.833,40.928,14.836,40.93,14.839,40.93z M18.521,40.919
		c0.015-0.003,0.029-0.007,0.044-0.008c0.022-0.002,0.044-0.003,0.066-0.003c0.002-0.004,0.006-0.006,0.009-0.01l-0.097-0.004
		c-0.008,0.006-0.016,0.013-0.023,0.021L18.521,40.919z"/>
	<path fill="#1E100D" d="M18.522,40.919c0.041,0.026,0.076,0.024,0.109-0.011c-0.022,0-0.044,0.001-0.066,0.003
		C18.551,40.913,18.536,40.915,18.522,40.919z M14.988,40.954l0.07,0.003c0.926-0.003,1.852,0.01,2.777-0.001
		c-0.815,0.004-1.632,0.004-2.447-0.002c-0.141,0-0.284,0.006-0.412-0.056h-0.068C14.932,40.92,14.959,40.939,14.988,40.954z
		 M18.386,40.945c0.042-0.012,0.084-0.021,0.128-0.026c0.002,0,0.005,0.005,0.007,0.003c-0.005-0.007-0.007-0.011-0.009-0.011
		h-0.026c-0.063,0-0.127,0.037-0.193,0.044C18.323,40.954,18.354,40.945,18.386,40.945z"/>
	<path fill="#1E100D" d="M17.836,40.956l0.456-0.008c0.067-0.008,0.132-0.026,0.193-0.054l-3.509,0.004
		c0.128,0.062,0.271,0.056,0.412,0.056C16.204,40.96,17.021,40.96,17.836,40.956z"/>
	<path fill="#1E100D" d="M18.292,40.948c-0.08,0.008-0.163,0.006-0.244,0.006l-0.212,0.002c-0.926,0.011-1.852-0.002-2.777,0.001
		l-0.07-0.003c0.086,0.04,0.18,0.06,0.274,0.057c0.977,0.005,1.953,0.005,2.928-0.002c0.115,0.007,0.229-0.024,0.323-0.09
		c-0.043,0.007-0.086,0.017-0.128,0.026C18.354,40.945,18.323,40.945,18.292,40.948z"/>
	<path fill="#1E100D" d="M18.292,40.948l-0.456,0.008l0.212-0.002C18.129,40.954,18.212,40.956,18.292,40.948z M18.521,40.915
		l0.023-0.021h-0.032C18.514,40.9,18.516,40.906,18.521,40.915z"/>
</g>
</svg>
