<?xml version="1.0" encoding="utf-8"?>
<!-- Generator: Adobe Illustrator 16.0.0, SVG Export Plug-In . SVG Version: 6.00 Build 0)  -->
<!DOCTYPE svg PUBLIC "-//W3C//DTD SVG 1.1//EN" "http://www.w3.org/Graphics/SVG/1.1/DTD/svg11.dtd">
<svg version="1.1" id="Capa_1" xmlns="http://www.w3.org/2000/svg" xmlns:xlink="http://www.w3.org/1999/xlink" x="0px" y="0px"
	 width="36.793px" height="36.793px" viewBox="0 0 36.793 36.793" enable-background="new 0 0 36.793 36.793" xml:space="preserve">
<path fill="#FFD820" stroke="#1E100D" stroke-width="2" stroke-miterlimit="10" d="M35.793,31.54c0,2.35-1.904,4.254-4.254,4.254
	H5.254C2.905,35.793,1,33.889,1,31.54l0,0V5.254C1,2.905,2.903,1,5.252,1c0,0,0.001,0,0.002,0H31.54c2.35,0,4.254,1.905,4.254,4.254
	l0,0V31.54z"/>
<linearGradient id="SVGID_1_" gradientUnits="userSpaceOnUse" x1="309.8521" y1="-163.2651" x2="342.1537" y2="-195.5678" gradientTransform="matrix(1 0 0 -1 -307.6055 -161.0205)">
	<stop  offset="0" style="stop-color:#FFFFFF;stop-opacity:0.3"/>
	<stop  offset="1" style="stop-color:#FFD820;stop-opacity:0"/>
</linearGradient>
<path fill="url(#SVGID_1_)" d="M35.793,31.54c0,2.35-1.904,4.254-4.254,4.254H5.254C2.905,35.793,1,33.889,1,31.54l0,0V5.254
	C1,2.905,2.903,1,5.252,1c0,0,0.001,0,0.002,0H31.54c2.35,0,4.254,1.905,4.254,4.254l0,0V31.54z"/>
<path fill="none" stroke="#1E100D" stroke-width="2" stroke-miterlimit="10" d="M35.793,31.54c0,2.35-1.904,4.254-4.254,4.254H5.254
	C2.905,35.793,1,33.889,1,31.54l0,0V5.254C1,2.905,2.903,1,5.252,1c0,0,0.001,0,0.002,0H31.54c2.35,0,4.254,1.905,4.254,4.254l0,0
	V31.54z"/>
<g>
	<g>
		<path d="M24.405,32.677H12.248c-4.429,0-8.032-3.603-8.032-8.03V12.49c0-4.429,3.603-8.032,8.032-8.032h12.157
			c4.428,0,8.031,3.603,8.031,8.032v12.157C32.436,29.075,28.833,32.677,24.405,32.677z M12.248,6.877
			c-3.095,0-5.613,2.518-5.613,5.613v12.157c0,3.094,2.519,5.612,5.613,5.612h12.157c3.094,0,5.611-2.519,5.611-5.612V12.49
			c0-3.095-2.518-5.613-5.611-5.613H12.248z"/>
	</g>
	<g>
		<path d="M18.326,25.793c-3.984,0-7.226-3.241-7.226-7.226c0-3.984,3.242-7.226,7.226-7.226c3.983,0,7.226,3.242,7.226,7.226
			C25.551,22.552,22.309,25.793,18.326,25.793z M18.326,13.761c-2.651,0-4.807,2.157-4.807,4.807c0,2.649,2.156,4.807,4.807,4.807
			c2.649,0,4.806-2.157,4.806-4.807C23.131,15.917,20.975,13.761,18.326,13.761z"/>
	</g>
	<g>
		<circle cx="25.861" cy="10.929" r="1.737"/>
	</g>
</g>
</svg>
