<?xml version="1.0" encoding="utf-8"?>
<!-- Generator: Adobe Illustrator 16.0.0, SVG Export Plug-In . SVG Version: 6.00 Build 0)  -->
<!DOCTYPE svg PUBLIC "-//W3C//DTD SVG 1.1//EN" "http://www.w3.org/Graphics/SVG/1.1/DTD/svg11.dtd">
<svg version="1.1" id="Capa_1" xmlns="http://www.w3.org/2000/svg" xmlns:xlink="http://www.w3.org/1999/xlink" x="0px" y="0px"
	 width="36.793px" height="36.792px" viewBox="0 0 36.793 36.792" enable-background="new 0 0 36.793 36.792" xml:space="preserve">
<path fill="#1E100D" d="M35.793,31.539c0,2.35-1.903,4.254-4.252,4.254h-0.002H5.252C2.903,35.792,1,33.888,1,31.539V5.254
	C1,2.905,2.903,1,5.252,1h26.287c2.349,0,4.254,1.903,4.254,4.252c0,0,0,0.001,0,0.002V31.539z"/>
<linearGradient id="SVGID_1_" gradientUnits="userSpaceOnUse" x1="309.8516" y1="-163.2681" x2="342.1523" y2="-195.5699" gradientTransform="matrix(1 0 0 -1 -307.6055 -161.0225)">
	<stop  offset="0" style="stop-color:#FFFFFF;stop-opacity:0.3"/>
	<stop  offset="1" style="stop-color:#FFD820;stop-opacity:0"/>
</linearGradient>
<path fill="url(#SVGID_1_)" d="M35.793,31.539c0,2.35-1.903,4.254-4.252,4.254h-0.002H5.252C2.903,35.792,1,33.888,1,31.539V5.254
	C1,2.905,2.903,1,5.252,1h26.287c2.349,0,4.254,1.903,4.254,4.252c0,0,0,0.001,0,0.002V31.539z"/>
<path fill="none" stroke="#FFCC33" stroke-width="2" stroke-miterlimit="10" d="M35.793,31.539c0,2.35-1.903,4.254-4.252,4.254
	h-0.002H5.252C2.903,35.792,1,33.888,1,31.539V5.254C1,2.905,2.903,1,5.252,1h26.287c2.349,0,4.254,1.903,4.254,4.252
	c0,0,0,0.001,0,0.002V31.539z"/>
<g>
	<g>
		<path fill="#FFCC33" d="M24.404,32.677H12.248c-4.429,0-8.032-3.603-8.032-8.03V12.49c0-4.429,3.603-8.032,8.032-8.032h12.157
			c4.428,0,8.031,3.603,8.031,8.032v12.157C32.436,29.075,28.832,32.677,24.404,32.677z M12.248,6.877
			c-3.095,0-5.613,2.518-5.613,5.613v12.157c0,3.094,2.519,5.612,5.613,5.612h12.157c3.095,0,5.612-2.519,5.612-5.612V12.49
			c0-3.095-2.518-5.613-5.612-5.613H12.248z"/>
	</g>
	<g>
		<path fill="#FFCC33" d="M18.326,25.793c-3.984,0-7.226-3.241-7.226-7.226c0-3.984,3.242-7.226,7.226-7.226
			s7.225,3.242,7.225,7.226C25.551,22.552,22.31,25.793,18.326,25.793z M18.326,13.761c-2.651,0-4.807,2.157-4.807,4.807
			c0,2.649,2.156,4.807,4.807,4.807c2.65,0,4.806-2.157,4.806-4.807C23.132,15.917,20.976,13.761,18.326,13.761z"/>
	</g>
	<g>
		<circle fill="#FFCC33" cx="25.861" cy="10.929" r="1.737"/>
	</g>
</g>
</svg>
