<?xml version="1.0" encoding="utf-8"?>
<!-- Generator: Adobe Illustrator 16.0.0, SVG Export Plug-In . SVG Version: 6.00 Build 0)  -->
<!DOCTYPE svg PUBLIC "-//W3C//DTD SVG 1.1//EN" "http://www.w3.org/Graphics/SVG/1.1/DTD/svg11.dtd">
<svg version="1.1" id="Capa_1" xmlns="http://www.w3.org/2000/svg" xmlns:xlink="http://www.w3.org/1999/xlink" x="0px" y="0px"
	 width="57px" height="57px" viewBox="0 0 57 57" enable-background="new 0 0 57 57" xml:space="preserve">
<path fill="#1E100D" d="M0,0v57h57V0H0z M54,54H3V3h51V54z"/>
<g>
	<path fill="#1E100D" d="M18.577,27.984l0.043-0.001v-0.02C18.608,27.974,18.593,27.981,18.577,27.984z"/>
	<path fill="#1E100D" d="M28.538,41.123c0.896,0.003,1.79,0,2.685,0.001c0.215,0,0.43,0.008,0.625-0.104
		c-0.312-0.558-0.591-1.135-0.938-1.666c-1.863-2.842-3.741-5.675-5.634-8.498c-0.243-0.362-0.183-0.451,0.189-0.616
		c1.336-0.595,2.459-1.451,3.135-2.793c0.199-0.396,0.361-0.814,0.542-1.222c0.045-0.284,0.076-0.573,0.254-0.815
		c-0.078-0.23-0.014-0.461,0.006-0.689c0.086-1.018,0.076-2.026-0.219-3.016c-0.014,0.066-0.021,0.133-0.033,0.199
		c-0.017-0.236-0.309-0.432-0.104-0.695c-0.41-1.236-1.021-2.324-2.188-3.012c-0.149-0.088-0.279-0.206-0.419-0.311l-0.937-0.457
		l-1.1-0.369l-1.307-0.246c-0.061-0.008-0.119-0.016-0.18-0.022l-0.528-0.015l-0.13,0.042c-0.696,0.177-1.404,0.046-2.105,0.077
		c-0.441,0.02-0.885,0.002-1.327,0.002l-0.861,0.002c-0.78,0.146-1.571,0.134-2.356,0.098c-0.515-0.023-0.672,0.135-0.67,0.66
		c0.018,5.311,0.011,10.621,0.012,15.932c0,2.513,0.002,5.022,0.003,7.535c0.966,0,1.932-0.019,2.896,0.01
		c0.424,0.013,0.557-0.129,0.554-0.552c-0.017-2.771-0.01-5.543-0.005-8.313c0-0.207-0.068-0.435,0.115-0.609l0.006,0.007
		l-0.014-0.116c0.785-0.257,1.592-0.053,2.386-0.107c0.247-0.019,0.515-0.014,0.626,0.291c0.127,0.072,0.236,0.158,0.229,0.324
		c0.393,0.683,0.86,1.315,1.186,2.033c0.189,0.186,0.27,0.43,0.35,0.67c0.063,0.062,0.143,0.106,0.186,0.18
		c0.726,1.211,1.43,2.438,2.174,3.64c0.484,0.78,0.902,1.606,1.478,2.333C27.558,41.188,28.054,41.122,28.538,41.123L28.538,41.123z
		 M23.351,27.569c-0.216,0.307-0.563,0.245-0.865,0.305l-0.105,0.032l0.186,0.153c-0.159,0.072-0.297,0.039-0.412-0.09
		c-0.137,0.014-0.272,0.025-0.409,0.038c-0.01,0.026-0.022,0.051-0.037,0.074c0.036,0.005,0.071,0.008,0.106,0.015
		c0.046,0.012,0.098,0.084,0.072,0.082c-1.127-0.025-2.26,0.165-3.379-0.094l0.021-0.01v-0.016l-0.02,0.025
		c-0.155-0.141-0.113-0.33-0.113-0.503c-0.002-2.245-0.002-4.492,0-6.737c0-0.174-0.042-0.363,0.132-0.493
		c0.033,0,0.066,0.004,0.099,0.013l0.955-0.016c0.681-0.043,1.362-0.074,2.042-0.004c1.862-0.033,3.487,1.055,3.819,2.701
		c0.035,0.174,0.035,0.354,0.052,0.53c0.065,0.321,0.065,0.643,0.003,0.964c0.024,0.201,0.02,0.396-0.083,0.578l-0.035,0.173
		C25.093,26.558,24.356,27.386,23.351,27.569z M18.843,16.81l-0.021-0.007L18.82,16.81H18.843z M22.915,16.789
		c0.023-0.013,0.046-0.027,0.068-0.042C22.958,16.758,22.936,16.772,22.915,16.789z M42.833,16.8
		c-0.063,0.03-0.123,0.077-0.188,0.087c-0.064,0.011-0.135-0.019-0.201-0.028c0.037-0.109,0.146-0.051,0.214-0.088
		c-0.153-0.033-0.307-0.067-0.46-0.102c-0.04,0.014-0.084,0.025-0.125,0.038c-0.416,0.13-0.863,0.131-1.281,0.003l-0.001-0.051
		c-0.569,0.13-1.157,0.199-1.692,0.453c-0.953,0.441-1.748,1.162-2.279,2.066c-0.039,0.065-0.076,0.131-0.113,0.196
		c-0.488,0.952-0.748,1.978-0.965,3.017c-0.006,0.07-0.012,0.143-0.021,0.215c0.008,0.143,0.012,0.286,0.018,0.43
		c0.199,0.475,0.076,0.959,0.033,1.441c-0.002,0.03-0.004,0.061-0.004,0.091c-0.002,0.001-0.002,0.003-0.006,0.004l-0.002,0.032
		l-0.001-0.029c-0.041,0.055-0.126-0.006-0.062,0.016c0.025,0.009,0.041,0.002,0.049-0.021c0.003-0.019,0.005-0.037,0.01-0.058
		c-0.016-0.317-0.025-0.635-0.043-0.953c-0.004-0.001-0.009-0.003-0.016-0.003l-0.059,0.066c-0.046,0.371,0.157,0.771-0.127,1.117
		c-0.212,0.006-0.426-0.001-0.637,0.021c-0.465,0.051-0.952-0.133-1.402,0.113l0.004,2.884c0.441,0.297,0.965,0.058,1.428,0.208
		l0.718,0.023l0.106-0.002c0.178,0.201,0.105,0.448,0.105,0.674c0.005,4.334,0.005,8.633,0.006,13.006h3.549
		c0-4.373,0-8.677,0.006-13.014c0-0.223-0.08-0.473,0.121-0.663v-0.001c0.035,0,0.068,0.004,0.104,0.013
		c0.697-0.028,1.396-0.043,2.094-0.092c0.311-0.021,0.646,0.103,0.928-0.138l-0.027,0.008l-0.026-0.012
		c-0.157-0.928-0.026-1.863-0.073-2.794c-0.781,0-1.564,0.001-2.347-0.003c-0.188-0.002-0.394,0.047-0.558-0.106v-0.106
		c-0.078-0.467-0.049-0.934,0.002-1.4c-0.006-1.52,0.516-2.865,2.063-3.219c-0.056-0.024-0.13,0.002-0.177-0.042
		c-0.003,0.001-0.008,0.001-0.01,0.004c0.002-0.003,0.007-0.003,0.01-0.004c-0.014-0.01-0.023-0.023-0.027-0.039l0.291-0.04
		c0.217-0.153,0.432-0.153,0.646,0V19.95h0.4c0.002,0.151,0.004,0.084,0.008,0.108c-0.021,0.005-0.041,0.026-0.062,0.032
		c0.007,0.007,0.015,0.021,0.021,0.032c-0.008-0.011-0.02-0.011-0.027-0.018c-0.055,0.013-0.108,0.027-0.162,0.042
		c0.17,0.047,0.348,0.08,0.507,0.148c0.404,0.173,0.537,0.046,0.522-0.383c-0.022-0.744-0.041-1.494,0.006-2.236
		C43.652,17.073,43.355,16.858,42.833,16.8z M14.845,41.034v0.089l0.057-0.001C14.879,41.096,14.86,41.066,14.845,41.034z
		 M15.152,16.884c-0.06-0.002-0.104,0.024-0.164,0.024l0.013,0.026c-0.054,0-0.063-0.036-0.213-0.027v0.25
		C14.938,17.001,14.969,16.922,15.152,16.884z"/>
	<path fill="#1E100D" d="M17.317,16.813c-0.709,0.163-1.425,0.077-2.139,0.071c-0.184,0.038-0.285,0.117-0.338,0.273l0.004,23.877
		c0.015,0.028,0.033,0.062,0.057,0.088h0.05c-0.001-2.513-0.003-5.022-0.003-7.535c-0.001-5.311,0.006-10.621-0.012-15.932
		c-0.002-0.525,0.155-0.684,0.67-0.66c0.785,0.036,1.576,0.049,2.356-0.098l0.001-0.088C17.747,16.81,17.532,16.813,17.317,16.813z
		 M14.78,41.061c-0.022-0.034-0.041-0.07-0.056-0.108c-0.001,0.057-0.003,0.114-0.003,0.174c0.039,0.033,0.079,0.063,0.119,0.097
		l0.004-0.091C14.815,41.116,14.793,41.092,14.78,41.061z M14.84,16.907c-0.028-0.006-0.058-0.006-0.087-0.002
		c-0.001,0.049-0.004,0.098-0.006,0.146C14.771,16.999,14.803,16.951,14.84,16.907z"/>
	<path fill="#1E100D" d="M14.733,17.55c-0.002,7.607-0.001,15.216-0.002,22.821c0,0.191-0.004,0.386-0.007,0.579
		c0.015,0.038,0.034,0.073,0.056,0.108c0.017,0.037,0.039,0.028,0.064,0.041v-0.037h-0.057v-0.028c0-0.156-0.028-0.332-0.028-0.501
		c-0.003-7.637-0.016-15.273-0.012-22.909c0-0.204,0.04-0.355,0.04-0.467v-0.25c0,0.047-0.043,0.094-0.066,0.145
		C14.715,17.218,14.733,17.384,14.733,17.55z"/>
	<path fill="#1E100D" d="M14.788,17.624c-0.002,7.636-0.001,15.272,0,22.909c0,0.169-0.018,0.345,0.057,0.501l-0.004-23.877
		C14.802,17.269,14.788,17.42,14.788,17.624z M17.466,41.285c-0.645,0-1.289,0.001-1.932-0.001
		c-0.215-0.002-0.434,0.012-0.615-0.138l-0.01-0.015c-0.016,0.005-0.033,0.005-0.049,0c0.023,0.021,0.03,0.038,0.02,0.056
		c-0.014,0.021-0.026,0.03-0.039,0.03c0.045,0.033,0.089,0.066,0.133,0.103c1.131-0.002,2.26-0.004,3.391-0.004l0.127-0.096v-0.193
		C18.394,41.282,18.138,41.285,17.466,41.285z"/>
	<path fill="#1E100D" d="M14.909,41.134c0.003,0.005,0.006,0.011,0.01,0.015c0.182,0.147,0.4,0.136,0.615,0.138
		c0.643,0.002,1.287,0.001,1.932,0.001c0.672,0,0.928-0.003,1.025-0.258c0.005-3.122,0.013-6.247,0.02-9.371
		c-0.184,0.177-0.115,0.402-0.115,0.609c-0.005,2.771-0.012,5.541,0.005,8.313c0.003,0.423-0.13,0.563-0.554,0.552
		c-0.964-0.025-1.93-0.01-2.896-0.01C14.938,41.128,14.923,41.132,14.909,41.134z"/>
	<path fill="#1E100D" d="M14.845,41.123c0.006,0.004,0.012,0.007,0.016,0.011c0.016,0.005,0.033,0.005,0.049,0
		c-0.003-0.003-0.006-0.008-0.008-0.012L14.845,41.123z"/>
	<path fill="#1E100D" d="M14.901,41.122c0.002,0.004,0.005,0.009,0.008,0.012c0.014-0.002,0.028-0.006,0.042-0.012H14.901z
		 M14.88,41.188c0.011-0.017,0.004-0.035-0.02-0.055c-0.006,0-0.011-0.002-0.016-0.004l-0.004,0.09
		C14.854,41.221,14.866,41.208,14.88,41.188z"/>
	<path fill="#1E100D" d="M14.845,41.123v0.004c0.005,0.005,0.01,0.007,0.016,0.007L14.845,41.123z M39.548,40.919
		c0,0.243,0.052,0.501-0.086,0.728l-0.002,0.052l0.056,0.073h0.08c0.002-4.358,0.006-8.717,0.01-13.078
		c0-0.196,0.008-0.394,0.013-0.591c-0.007-0.033-0.007-0.068,0-0.101c-0.044,0.053-0.067,0.121-0.063,0.19
		C39.55,32.436,39.553,36.677,39.548,40.919z"/>
	<path fill="#1E100D" d="M39.516,27.989c-0.007,4.274-0.012,8.547-0.021,12.819c0,0.278-0.021,0.559-0.033,0.836
		c0.138-0.227,0.086-0.482,0.086-0.728c0.005-4.242,0.002-8.483,0.003-12.727c-0.002-0.069,0.021-0.136,0.065-0.19
		C39.583,27.993,39.55,27.989,39.516,27.989L39.516,27.989z M18.565,41.105c-0.019,0.041-0.043,0.08-0.074,0.115h0.037l0.039-0.003
		h-0.002V41.105z M18.583,31.657l-0.013-0.001l-0.053,0.007l-0.006-0.007c0.019,0.023,0.036,0.049,0.051,0.076
		C18.567,31.707,18.575,31.682,18.583,31.657z M18.556,33.752c-0.005,1.073-0.006,2.146-0.002,3.219L18.556,33.752z"/>
	<path fill="#1E100D" d="M18.556,39.091l-0.001,1.132c-0.002,0.401-0.003,0.65-0.063,0.807v0.193
		c0.03-0.035,0.056-0.074,0.074-0.117C18.561,40.435,18.558,39.763,18.556,39.091z"/>
	<path fill="#1E100D" d="M18.555,40.223l0.001-1.132c-0.002-0.707-0.003-1.414-0.002-2.12c-0.003-1.072-0.004-2.146,0.002-3.219
		c0-0.638,0.001-1.277-0.001-1.916c-0.002-0.035,0-0.07,0.007-0.104c-0.014-0.024-0.029-0.051-0.051-0.076l-0.02,9.371
		C18.552,40.873,18.553,40.624,18.555,40.223z M18.6,31.837c0.028,0.125,0.006,0.259,0.006,0.388
		c0.004,2.791,0.004,5.582,0.001,8.375v-0.02c0.007-2.93,0.011-5.854,0.015-8.782l-0.014,0.019
		C18.604,31.823,18.603,31.83,18.6,31.837z M18.565,41.105v0.112h0.002c0.002-0.045,0.006-0.092,0.01-0.139
		C18.574,41.088,18.569,41.097,18.565,41.105z"/>
	<path fill="#1E100D" d="M18.583,31.657c-0.008,0.024-0.015,0.05-0.021,0.075c0.018,0.033,0.03,0.066,0.038,0.104l0.008-0.021
		l0.014-0.019v-0.138L18.583,31.657z M18.6,31.837c-0.009,0.022-0.018,0.046-0.025,0.07c-0.01,0.614-0.015,1.229-0.019,1.845
		l-0.002,3.219c0.002,0.706,0.002,1.413,0.002,2.12c0.002,0.671,0.005,1.343,0.01,2.015l0.012-0.022
		c0.013-0.16,0.027-0.321,0.029-0.481c0.003-2.791,0.003-5.584-0.001-8.375C18.605,32.096,18.628,31.962,18.6,31.837z"/>
	<path fill="#1E100D" d="M18.6,31.837c-0.008-0.036-0.021-0.071-0.038-0.104c-0.006,0.035-0.009,0.07-0.007,0.104
		c0.002,0.64,0.001,1.278,0.001,1.916c0.004-0.612,0.009-1.229,0.019-1.845C18.583,31.884,18.591,31.86,18.6,31.837z M27.573,41.253
		c-0.188-0.06-0.349-0.181-0.458-0.345l-0.001,0.115l0.309,0.229C27.473,41.254,27.522,41.254,27.573,41.253z M31.646,41.225
		c0.065-0.002,0.131-0.002,0.194-0.002l0.005-0.203C31.807,41.11,31.735,41.184,31.646,41.225z"/>
	<path fill="#1E100D" d="M27.573,41.253c1.358-0.01,2.716-0.021,4.074-0.028c0.089-0.042,0.16-0.115,0.199-0.205
		c-0.195,0.112-0.41,0.104-0.625,0.104c-0.895-0.001-1.789,0.002-2.684-0.001c-0.484-0.001-0.98,0.064-1.422-0.215
		C27.24,41.08,27.386,41.198,27.573,41.253z M31.846,41.313c0.003-0.03,0.002-0.061-0.003-0.092
		c-0.031,0.031-0.067,0.057-0.108,0.074C31.771,41.3,31.809,41.305,31.846,41.313z"/>
	<path fill="#1E100D" d="M27.573,41.253c-0.05,0.001-0.1,0.001-0.15,0.001l0.181,0.01L27.573,41.253z M30.104,41.282
		c-0.586,0-1.17,0.002-1.755,0.004C28.932,41.296,29.518,41.286,30.104,41.282z M31.311,41.282c-0.158,0.002-0.315,0-0.476,0
		l0.319,0.004c0.191,0.004,0.387-0.015,0.578,0.01c0.039-0.019,0.076-0.044,0.108-0.073c-0.063,0-0.129,0-0.194,0.002
		C31.54,41.269,31.426,41.288,31.311,41.282z"/>
	<path fill="#1E100D" d="M27.604,41.264c0.247,0.012,0.495,0.021,0.743,0.022c0.585-0.002,1.17-0.004,1.756-0.004h0.73
		c0.158,0,0.314,0.002,0.477,0c0.115,0.006,0.23-0.015,0.338-0.06c-1.358,0.01-2.716,0.021-4.074,0.028
		C27.584,41.257,27.593,41.261,27.604,41.264z M31.688,41.313h0.158c-0.036-0.008-0.073-0.015-0.111-0.018
		C31.718,41.303,31.702,41.311,31.688,41.313z"/>
	<path fill="#1E100D" d="M28.347,41.286c-0.172,0.002-0.344,0-0.515,0.002c-0.077,0.001-0.153-0.007-0.228-0.024
		c-0.061-0.002-0.121-0.006-0.181-0.01c0.081,0.027,0.163,0.079,0.244,0.079c1.34-0.002,2.681-0.013,4.021-0.021
		c0.017-0.004,0.03-0.012,0.047-0.019c-0.191-0.022-0.387-0.006-0.577-0.01l-0.32-0.005h-0.731
		C29.518,41.286,28.932,41.296,28.347,41.286z"/>
	<path fill="#1E100D" d="M30.104,41.282h0.731C30.592,41.281,30.348,41.281,30.104,41.282z M28.347,41.286
		c-0.248-0.005-0.496-0.013-0.743-0.022c0.07,0.019,0.145,0.025,0.228,0.024C28.003,41.286,28.175,41.288,28.347,41.286z
		 M35.896,41.818h-0.063V41.79c0.063,0.021,0.131,0.028,0.199,0.038c0.432,0.008,0.86,0.003,1.293,0.004
		c-0.423-0.001-0.847,0.018-1.269,0.005C36.002,41.836,35.947,41.818,35.896,41.818z M39.456,41.8
		c-0.021-0.007-0.041,0.019-0.062,0.019h-0.058c-0.063,0-0.129,0.021-0.198,0.021c-0.471,0.01-0.938-0.001-1.406,0.001
		c0.522-0.001,1.047-0.013,1.57-0.016c0.061-0.004,0.121,0.013,0.174,0.046c0.008-0.034,0.021-0.055,0.039-0.085
		C39.495,41.797,39.477,41.811,39.456,41.8L39.456,41.8z"/>
	<path fill="#1E100D" d="M36.061,41.809c0.422,0.012,0.847,0.017,1.269,0.019h0.403c0.47,0,0.938-0.007,1.406-0.017
		c0.07,0,0.139-0.018,0.199-0.05l-3.439,0.005C35.949,41.792,36.004,41.807,36.061,41.809z"/>
	<path fill="#1E100D" d="M37.73,41.825h-0.403c-0.433,0-0.861-0.003-1.293-0.011c-0.067-0.012-0.134-0.029-0.199-0.051
		c-0.021,0-0.044,0.001-0.065,0.004l-0.028,0.012l-0.032-0.004l0.129,0.117h3.555c0.023-0.021,0.055-0.029,0.086-0.025
		c-0.051-0.035-0.113-0.053-0.174-0.049C38.779,41.822,38.256,41.825,37.73,41.825z M37.327,41.825h0.403H37.327z M22.387,16.774
		c-0.012-0.024-0.022-0.05-0.032-0.076c-0.033,0.014-0.067,0.023-0.101,0.035C22.3,16.739,22.345,16.753,22.387,16.774z"/>
	<path fill="#1E100D" d="M21.184,16.785c-0.771,0.014-1.543,0.005-2.314,0.005c-0.015,0.002-0.03,0.002-0.046,0.002l-0.002,0.011
		l0.021,0.007c1.139,0.003,2.275,0.006,3.414,0.007l0.13-0.042c-0.042-0.021-0.087-0.035-0.133-0.041
		C21.905,16.849,21.54,16.78,21.184,16.785z M18.828,16.735c1.122-0.004,2.245,0.012,3.368-0.008c0.02,0,0.039,0.004,0.058,0.006
		c0.034-0.012,0.067-0.021,0.101-0.035l-3.526,0.004L18.828,16.735L18.828,16.735z"/>
	<path fill="#1E100D" d="M18.823,16.792c0.016,0,0.031,0,0.046-0.002c0.771,0,1.543,0.009,2.314-0.005
		c0.356-0.005,0.722,0.063,1.07-0.052c-0.019-0.002-0.038-0.006-0.058-0.006c-1.123,0.02-2.246,0.004-3.368,0.008v0.035
		L18.823,16.792z M42.218,24.843c0.081,0.005,0.16-0.066,0.234,0.085h0.063c0.021,0,0.047-0.034,0.068-0.038
		c0.021-0.008,0.039-0.021,0.061-0.011c-0.015-0.034-0.025-0.074-0.039-0.108c-0.053,0.042-0.116,0.063-0.183,0.063
		C42.355,24.833,42.286,24.844,42.218,24.843z M41.143,24.812c-0.264,0-0.524,0-0.787-0.003
		C40.615,24.831,40.878,24.821,41.143,24.812z M42.061,24.813c-0.088-0.002-0.174-0.002-0.263-0.002h0.035
		C41.907,24.818,41.982,24.815,42.061,24.813z"/>
	<path fill="#1E100D" d="M42.218,24.813h-0.157c-0.076,0.002-0.151,0.005-0.228-0.002h-0.035c-0.219,0-0.438-0.016-0.655-0.016
		c-0.265,0.009-0.525-0.02-0.787-0.02h-0.646c-0.033,0-0.066,0-0.104,0.002v0.097c0.949,0.001,1.897-0.001,2.849,0.001
		C42.38,24.84,42.3,24.819,42.218,24.813z"/>
	<path fill="#1E100D" d="M39.938,24.738c0.14,0.035,0.276,0.06,0.418,0.07c0.263,0.003,0.523,0.003,0.787,0.003
		c0.219-0.008,0.438-0.014,0.655,0c0.089,0,0.175,0,0.263,0.002c0.053-0.002,0.105-0.002,0.157,0
		c0.068,0.002,0.138,0.002,0.206,0.002c0.064,0.004,0.129-0.014,0.182-0.053c-0.033,0.001-0.066-0.006-0.096-0.023L39.938,24.738z
		 M40.354,24.776h-0.565H40.354z"/>
	<path fill="#1E100D" d="M41.798,24.812c-0.218-0.011-0.437-0.011-0.655,0H41.798z M42.061,24.813h0.157
		C42.166,24.812,42.113,24.812,42.061,24.813z M42.591,25.002c0.152,0.292,0.072,0.612,0.077,0.918
		c0.01,0.586,0.027,1.171-0.016,1.757l-0.019,0.106l0.04,0.01h0.04l0.009-2.918c-0.027-0.001-0.056-0.007-0.08-0.007
		c-0.021,0.014-0.037,0.021-0.058,0.033C42.589,24.937,42.589,24.967,42.591,25.002z"/>
	<path fill="#1E100D" d="M42.668,25.92c-0.005-0.306,0.075-0.626-0.077-0.918c0.052,0.922,0.049,1.846-0.008,2.767l0.026,0.012
		l0.027-0.008l0.018-0.096C42.695,27.091,42.678,26.506,42.668,25.92z M42.585,24.861l0.002,0.038
		c0.019-0.012,0.038-0.024,0.058-0.035C42.627,24.854,42.604,24.854,42.585,24.861z M15.085,16.808l-0.084,0.074
		c0.104-0.039,0.208-0.065,0.313-0.087L15.085,16.808z"/>
	<path fill="#1E100D" d="M15.179,16.884c0.096-0.021,0.213-0.032,0.358-0.035c0.593-0.016,1.187,0.012,1.776-0.036
		c-0.06-0.011-0.12-0.022-0.18-0.032c-0.032,0-0.064-0.003-0.096-0.008c-0.373,0.002-0.747,0.005-1.12,0.009l-0.54,0.011
		l-0.064,0.003c-0.106,0.021-0.211,0.05-0.313,0.087C15.061,16.88,15.12,16.882,15.179,16.884z"/>
	<path fill="#1E100D" d="M17.317,16.813h-0.004c-0.59,0.048-1.184,0.021-1.776,0.036c-0.12,0-0.24,0.012-0.358,0.035
		C15.893,16.89,16.608,16.976,17.317,16.813z M17.038,16.772c0.032,0.005,0.064,0.008,0.096,0.008l-0.041-0.008H17.038z
		 M29.116,21.753c0.03-0.004,0.026-0.054,0.063-0.051c0-0.175-0.047-0.347-0.138-0.496C28.999,21.396,29.126,21.565,29.116,21.753z"
		/>
	<path fill="#1E100D" d="M29.146,21.901c0.013-0.066,0.021-0.133,0.033-0.199c-0.037-0.003-0.033,0.047-0.063,0.051
		c0.01-0.188-0.118-0.356-0.072-0.547C28.841,21.47,29.133,21.665,29.146,21.901z M41.794,20.054
		c0.022,0.023,0.047,0.048,0.071,0.07h0.433l0.07-0.07C42.18,20.006,41.982,20.006,41.794,20.054L41.794,20.054z"/>
	<path fill="#1E100D" d="M42.368,20.054l0.036-0.033v-0.002c-0.217-0.153-0.432-0.153-0.646,0c0.012,0.013,0.021,0.023,0.035,0.035
		C41.984,20.007,42.178,20.006,42.368,20.054L42.368,20.054z M42.667,20.073c0.027,0.006,0.054,0.018,0.076,0.035h0.009
		C42.723,20.073,42.693,20.066,42.667,20.073z M42.667,20.073c-0.082-0.014-0.174,0.02-0.254-0.01l-0.035-0.008
		c-0.021,0.028-0.048,0.052-0.08,0.068c0.095,0.008,0.188,0.017,0.284,0.023C42.604,20.115,42.633,20.09,42.667,20.073z"/>
	<path fill="#1E100D" d="M42.667,20.073c-0.034,0.017-0.063,0.042-0.085,0.074c0.055-0.012,0.109-0.025,0.162-0.039
		C42.721,20.091,42.695,20.08,42.667,20.073z"/>
	<path fill="#1E100D" d="M42.413,20.063c0.081,0.029,0.172-0.004,0.254,0.01c0.026-0.007,0.056,0,0.085,0.035
		c0.02-0.006,0.039-0.045,0.061-0.05c-0.004-0.024-0.006,0.043-0.008-0.108h-0.4v0.035c-0.006,0.014-0.018,0.042-0.024,0.053
		C42.391,20.042,42.4,20.062,42.413,20.063z M42.378,20.056c-0.004,0-0.006,0-0.01-0.002l-0.07,0.07
		C42.329,20.107,42.356,20.084,42.378,20.056L42.378,20.056z"/>
	<path fill="#1E100D" d="M42.378,20.056c0.009-0.011,0.021-0.021,0.026-0.035l-0.036,0.033
		C42.372,20.056,42.374,20.056,42.378,20.056z M41.784,20.056l-0.015,0.003c-0.017,0.003-0.033,0.005-0.049,0.009
		c-0.06,0.016-0.121-0.004-0.181,0.009c0.05-0.011,0.092,0.015,0.13,0.063l0.191-0.016C41.832,20.107,41.805,20.084,41.784,20.056z"
		/>
	<path fill="#1E100D" d="M41.542,20.076c0.058-0.013,0.121,0.007,0.181-0.009c0.016-0.004,0.032-0.006,0.049-0.009l0.015-0.003
		c-0.009-0.012-0.021-0.021-0.024-0.037l-0.291,0.04c0.005,0.015,0.014,0.028,0.026,0.039
		C41.514,20.088,41.525,20.079,41.542,20.076L41.542,20.076z"/>
	<path fill="#1E100D" d="M41.542,20.076l-0.002,0.001c-0.016,0.004-0.03,0.011-0.044,0.021c0.047,0.044,0.121,0.018,0.177,0.042
		C41.634,20.091,41.592,20.065,41.542,20.076z M41.784,20.056c0.021,0.029,0.048,0.052,0.081,0.068
		c-0.024-0.022-0.049-0.046-0.071-0.07C41.79,20.056,41.788,20.056,41.784,20.056z"/>
	<path fill="#1E100D" d="M41.794,20.054c-0.013-0.012-0.024-0.022-0.035-0.035c0.007,0.016,0.019,0.025,0.025,0.037
		C41.788,20.056,41.79,20.056,41.794,20.054z M42.833,16.8l-0.177-0.029C42.688,16.934,42.771,16.808,42.833,16.8z"/>
	<path fill="#1E100D" d="M42.441,16.858c0.066,0.01,0.137,0.039,0.201,0.028c0.065-0.01,0.127-0.057,0.188-0.087
		c-0.063,0.008-0.146,0.134-0.179-0.029C42.587,16.808,42.48,16.749,42.441,16.858L42.441,16.858z M18.528,27.987
		c-0.047-2.545-0.043-5.09-0.002-7.636c-0.174,0.13-0.132,0.319-0.132,0.493c-0.002,2.245-0.002,4.492,0,6.737
		c0,0.173-0.042,0.362,0.113,0.503c0.006-0.009,0.013-0.017,0.02-0.025C18.526,28.035,18.526,28.011,18.528,27.987z M18.528,27.987
		l0.049-0.003C18.561,27.987,18.544,27.988,18.528,27.987z"/>
	<path fill="#1E100D" d="M18.567,20.474c0.011-0.041,0.031-0.078,0.058-0.109c-0.032-0.009-0.065-0.014-0.099-0.013
		C18.544,20.392,18.556,20.434,18.567,20.474z M18.62,27.833l-0.015-0.032v0.003c0,0.061-0.01,0.121-0.028,0.181
		c0.016-0.003,0.031-0.01,0.043-0.021V27.833z"/>
	<path fill="#1E100D" d="M18.608,20.985c-0.002,2.271,0.003,4.543-0.003,6.815l0.015,0.032c0.001-2.456,0.001-4.916,0.003-7.373
		c-0.002-0.031,0-0.064,0.001-0.096c-0.027,0.032-0.046,0.069-0.058,0.109C18.611,20.642,18.608,20.813,18.608,20.985z
		 M18.528,27.987c0.019,0,0.009,0,0.024-0.003c0.019-0.06,0.005-0.12,0.005-0.181V27.8c0-0.184-0.024-0.384-0.025-0.576
		c-0.002-2.224,0.007-4.448,0.013-6.671c-0.001-0.027,0.009-0.054,0.017-0.08c-0.012-0.04-0.022-0.082-0.039-0.122
		C18.48,22.896,18.482,25.442,18.528,27.987z"/>
	<path fill="#1E100D" d="M18.608,20.985c0-0.172,0.003-0.344-0.041-0.512c-0.007,0.026-0.011,0.053-0.011,0.08
		c-0.004,2.223-0.002,4.447,0.001,6.671c0,0.192-0.027,0.393,0.048,0.576C18.611,25.528,18.606,23.257,18.608,20.985z
		 M18.507,28.085c1.119,0.259,2.252,0.068,3.379,0.094c0.025,0.002-0.026-0.07-0.072-0.082c-0.035-0.007-0.07-0.01-0.106-0.015
		l-3.18-0.007L18.507,28.085z M18.999,16.83c-0.054,0.003-0.105-0.045-0.156-0.045H18.82c0.002,0,0.004,0.069,0.005,0.099
		c0.442,0,0.886,0.021,1.327,0.003c0.701-0.03,1.409,0.097,2.105-0.08C21.172,16.868,20.085,16.813,18.999,16.83z"/>
	<path fill="#1E100D" d="M18.999,16.843c1.086-0.016,2.173,0.035,3.258-0.026c-1.139-0.001-2.275-0.004-3.414-0.007
		C18.892,16.833,18.945,16.845,18.999,16.843L18.999,16.843z M21.145,31.628l0.183,0.021c0.066,0.019,0.129,0.045,0.188,0.08
		c-0.111-0.305-0.379-0.309-0.626-0.291c-0.794,0.058-1.601-0.146-2.386,0.108C19.383,31.59,20.27,31.436,21.145,31.628z"/>
	<path fill="#1E100D" d="M21.145,31.628c0.017,0.005,0.034,0.008,0.051,0.011c0.075,0.036,0.149,0.074,0.226,0.112
		c0.032-0.003,0.064-0.011,0.094-0.021c-0.058-0.037-0.122-0.064-0.188-0.08C21.267,31.641,21.206,31.636,21.145,31.628z
		 M21.462,28.051c0.082,0.011,0.164,0.019,0.246,0.031c0.014-0.023,0.027-0.048,0.037-0.074c-0.06,0.031-0.126,0.046-0.193,0.044
		L21.462,28.051z M18.927,28.015c-0.059-0.01-0.116-0.07-0.17-0.07h-0.041l-0.047,0.027l-0.049,0.005
		c-0.015,0-0.029,0.004-0.043,0.005l-0.006,0.021l-0.044,0.056v0.012v-0.002C18.66,28.05,18.793,28.026,18.927,28.015L18.927,28.015
		z"/>
	<path fill="#1E100D" d="M20.15,27.968c0.437,0,0.874,0.027,1.312,0.083l0.089,0.001c0.067,0.003,0.134-0.012,0.193-0.044
		l-0.137-0.046L20.15,27.968z M18.757,27.973c0.053,0.028,0.111,0.047,0.17,0.057c0.383-0.039,0.767-0.06,1.149-0.062L18.757,27.973
		z M18.577,27.984l-0.049,0.003c-0.001,0.024-0.002,0.048-0.001,0.072l0.044-0.055L18.577,27.984z"/>
	<path fill="#1E100D" d="M19.265,28.04c-0.112-0.003-0.229,0.006-0.338-0.011c-0.133,0.013-0.267,0.028-0.399,0.046l3.18,0.007
		c-0.082-0.013-0.164-0.021-0.246-0.031C20.729,28.03,19.997,28.05,19.265,28.04z"/>
	<path fill="#1E100D" d="M18.927,28.029c0.109,0.017,0.226,0.008,0.338,0.011c0.732,0.01,1.465-0.01,2.197,0.011
		c-0.435-0.055-0.873-0.083-1.312-0.083h-0.074C19.692,27.97,19.309,27.99,18.927,28.029z M18.6,31.643
		c0.05-0.021,0.093-0.014,0.13,0.022l0.109-0.001c0.029-0.018,0.06-0.03,0.092-0.039c-0.144-0.018-0.287-0.043-0.428-0.078
		l0.014,0.116C18.544,31.63,18.571,31.622,18.6,31.643z"/>
	<path fill="#1E100D" d="M18.667,31.652l0.045,0.013h0.018c-0.037-0.036-0.08-0.044-0.13-0.022c0.007,0.004,0.015,0.01,0.022,0.02
		L18.667,31.652z M18.583,31.657l0.004-0.013l0.013-0.004c-0.028-0.021-0.056-0.013-0.083,0.021l0.053-0.009L18.583,31.657z"/>
	<path fill="#1E100D" d="M18.6,31.643c-0.005,0-0.009,0-0.013,0.004l-0.004,0.013l0.039,0.003
		C18.617,31.654,18.609,31.646,18.6,31.643z M20.022,31.65l0.741-0.008C20.517,31.639,20.27,31.646,20.022,31.65z M19.114,31.643
		c-0.037,0.008-0.077,0.012-0.116,0.021l0.44-0.006L19.114,31.643z"/>
	<path fill="#1E100D" d="M19.114,31.643c-0.061-0.004-0.121-0.011-0.184-0.018c-0.032,0.009-0.063,0.021-0.092,0.039l0.16-0.001
		C19.038,31.652,19.077,31.648,19.114,31.643z M20.466,31.589c-0.371-0.034-0.745-0.028-1.115,0.017
		C19.723,31.6,20.095,31.585,20.466,31.589z"/>
	<path fill="#1E100D" d="M19.054,31.605c0.1,0,0.198,0,0.297-0.002c0.37-0.046,0.744-0.051,1.115-0.017
		c0.227,0.002,0.453,0.015,0.679,0.039c-0.875-0.192-1.762-0.038-2.642-0.081c0.143,0.036,0.285,0.063,0.428,0.078
		C18.97,31.613,19.011,31.604,19.054,31.605z"/>
	<path fill="#1E100D" d="M19.438,31.657l0.584-0.007c0.247-0.006,0.494-0.015,0.741-0.008h0.108
		c-0.135-0.025-0.27-0.043-0.406-0.056c-0.371-0.004-0.743,0.013-1.115,0.017c-0.079,0.011-0.158,0.023-0.236,0.039
		C19.222,31.648,19.331,31.654,19.438,31.657z"/>
	<path fill="#1E100D" d="M21.195,31.639c-0.017-0.003-0.034-0.006-0.051-0.011c-0.226-0.024-0.452-0.037-0.679-0.039
		c0.137,0.013,0.271,0.029,0.406,0.054L21.195,31.639L21.195,31.639z M19.351,31.604c-0.099,0.002-0.197,0.002-0.297,0.002
		c-0.042,0-0.083,0.008-0.123,0.021c0.063,0.007,0.123,0.015,0.184,0.019C19.194,31.629,19.272,31.614,19.351,31.604z M18.79,16.842
		c0.01-0.021,0.019-0.032,0.03-0.032l0.002-0.007c-0.003-0.003-0.006-0.003-0.01-0.005l0.001-0.003
		c-0.139,0.007-0.279,0.006-0.418-0.005l-0.416,0.018c0.005,0.031,0,0.063-0.016,0.09l0.861-0.002
		C18.793,16.88,18.782,16.86,18.79,16.842z"/>
	<path fill="#1E100D" d="M17.979,16.808c-0.005,0.002-0.011,0.002-0.015,0.002l-0.001,0.088
		C17.978,16.871,17.983,16.839,17.979,16.808z M18.395,16.79c0.14,0.01,0.279,0.013,0.419,0.002l0.004-0.02
		C18.675,16.777,18.535,16.784,18.395,16.79z"/>
	<path fill="#1E100D" d="M18.812,16.789h0.011V16.8h-0.011V16.789z"/>
	<path fill="#1E100D" d="M18.817,16.772c-0.002,0.006-0.003,0.013-0.004,0.02h0.01l0.005-0.021L18.817,16.772z M18.79,16.842
		c-0.007,0.019,0.003,0.038,0.035,0.054c-0.001-0.029-0.003-0.057-0.005-0.086C18.809,16.81,18.8,16.821,18.79,16.842z
		 M22.153,27.97c0.115,0.129,0.253,0.162,0.412,0.09c-0.062-0.052-0.124-0.103-0.186-0.153C22.315,27.97,22.239,27.985,22.153,27.97
		z"/>
	<path fill="#1E100D" d="M22.153,27.97c0.086,0.016,0.162,0,0.227-0.063C22.29,27.875,22.204,27.86,22.153,27.97z M35.7,41.739
		c0.017-0.003,0.034,0.002,0.051,0.005l0.017-0.012l-0.006-0.092c-0.019-0.026-0.031-0.056-0.043-0.082l-0.001,0.127
		C35.715,41.705,35.706,41.723,35.7,41.739z M35.749,27.987l-0.106,0.002c0.096,0.11,0.106,0.241,0.106,0.375V27.987z
		 M35.749,28.449l0.001,4.695l-0.001-4.706V28.449z"/>
	<path fill="#1E100D" d="M35.729,41.075v-3.984c0,1.49-0.004,2.979-0.011,4.47c0.012,0.029,0.026,0.057,0.042,0.082
		C35.747,41.454,35.73,41.264,35.729,41.075z"/>
	<path fill="#1E100D" d="M35.718,41.688l0.001-0.127c-0.078-0.192-0.039-0.41-0.039-0.615c-0.007-3.965-0.005-7.93-0.006-11.896
		c0-0.251,0.018-0.503-0.021-0.751c-0.008-0.024-0.021-0.047-0.031-0.07l0.007,13.53c0.022-0.012,0.048-0.019,0.074-0.019
		C35.706,41.723,35.715,41.705,35.718,41.688L35.718,41.688z"/>
	<path fill="#1E100D" d="M35.641,28.298c0.041,0.248,0.028,0.5,0.028,0.751c0.002,3.967,0.002,7.932,0.007,11.896
		c0,0.205-0.037,0.422,0.042,0.615c0.009-1.49,0.011-2.979,0.011-4.471c0-1.313,0.013-2.629,0.013-3.943
		c-0.003-1.566,0.009-3.131,0.009-4.696v-0.085c0-0.134,0-0.265-0.148-0.375v0.238C35.6,28.251,35.632,28.273,35.641,28.298
		L35.641,28.298z M35.7,41.739c-0.005,0.012-0.007,0.021-0.013,0.032c0.006,0,0.014,0.004,0.02,0.004l0.043-0.031
		C35.734,41.741,35.717,41.736,35.7,41.739z"/>
	<path fill="#1E100D" d="M35.626,41.758c0.021,0.008,0.042,0.013,0.063,0.016l0.012-0.032C35.675,41.74,35.648,41.746,35.626,41.758
		z M35.751,41.744c0.006,0.001,0.013,0.001,0.017,0.003v-0.015L35.751,41.744z"/>
	<path fill="#1E100D" d="M35.751,41.744l-0.043,0.031l0.032,0.004l0.029-0.012c0-0.009-0.002-0.015-0.002-0.015
		C35.764,41.745,35.757,41.745,35.751,41.744z M39.451,41.663c-0.01,0.012-0.014,0.022-0.021,0.035
		c-0.013,0.012-0.025,0.02-0.037,0.028v0.01c0.021,0.011,0.043,0.019,0.063,0.033l0.004-0.074l-0.009-0.012V41.663z"/>
	<path fill="#1E100D" d="M39.393,41.727L39.43,41.7l0.021-0.035c-0.018-4.438-0.004-8.879-0.006-13.318
		c0-0.121-0.036-0.252,0.068-0.355c-0.201,0.189-0.121,0.438-0.121,0.661c-0.006,4.337-0.006,8.673-0.006,13.009L39.393,41.727z
		 M39.451,41.686c0.002,0.005,0.006,0.009,0.009,0.013l0.002-0.052l-0.011,0.019V41.686L39.451,41.686z"/>
	<path fill="#1E100D" d="M39.445,28.345c0.002,4.439-0.012,8.879,0.006,13.318c0.003-0.006,0.006-0.013,0.011-0.019
		c0.015-0.277,0.033-0.558,0.033-0.836c0.009-4.272,0.014-8.545,0.021-12.819C39.409,28.093,39.445,28.224,39.445,28.345z
		 M39.395,41.761c0.021,0,0.041,0.005,0.063,0.011c-0.021-0.017-0.043-0.022-0.063-0.032C39.393,41.746,39.393,41.754,39.395,41.761
		z M35.785,41.721h0.033c-0.002-0.001-0.003-0.002-0.004-0.003c-0.021-0.021-0.031-0.043-0.047-0.063v0.078
		C35.773,41.729,35.779,41.727,35.785,41.721z M35.77,41.654c0.016,0.021,0.026,0.041,0.047,0.063l0.004,0.004h0.018l0.003-0.063
		c-0.001-4.333-0.001-8.668-0.006-13.001c0-0.227,0.073-0.47-0.104-0.671c0.038,0.061,0.058,0.131,0.055,0.203
		C35.773,32.68,35.798,37.167,35.77,41.654z"/>
	<path fill="#1E100D" d="M35.835,41.73c-0.005-0.006-0.011-0.01-0.017-0.013h-0.033c-0.006,0.007-0.012,0.009-0.018,0.015v0.016
		c0.006,0.001,0.012,0,0.019,0.003c0.017,0.003,0.033,0.009,0.049,0.015V41.73L35.835,41.73z"/>
	<path fill="#1E100D" d="M35.836,41.721h-0.018c0.007,0.004,0.013,0.006,0.017,0.01L35.836,41.721z M35.77,41.748v0.021
		c0.021-0.004,0.043-0.004,0.065-0.004c-0.016-0.007-0.032-0.012-0.049-0.016C35.779,41.748,35.773,41.749,35.77,41.748z
		 M35.77,41.732v-0.078c-0.002-0.006-0.006-0.01-0.008-0.014l0.006,0.092H35.77z"/>
	<path fill="#1E100D" d="M35.749,28.44c0,1.568-0.009,3.137-0.009,4.705c0.002,1.316-0.004,2.631-0.004,3.945
		c0,1.328-0.004,2.656-0.002,3.984c0,0.188,0.014,0.379,0.027,0.566l0.01,0.014c0.027-4.488,0.016-8.979,0.021-13.465
		c0-0.073-0.045-0.141-0.045-0.203v0.377L35.749,28.44z M35.729,33.146c0,1.314,0,2.631,0.002,3.943
		C35.729,35.775,35.729,34.462,35.729,33.146z M35.768,41.747l0.002,0.021v-0.014L35.768,41.747z M35.889,41.723
		c0.028,0,0.059-0.005,0.09-0.005c1.1,0.001,2.197-0.002,3.297,0c0.022-0.002,0.045,0.007,0.067,0.011
		c-0.009-0.023,0.003-0.05,0.027-0.059c0.005-0.002,0.011-0.003,0.017-0.003h-3.548C35.876,41.667,35.891,41.702,35.889,41.723z
		 M35.896,41.766c-0.013-0.008-0.023-0.013-0.033-0.018c-0.01,0.005-0.02,0.011-0.028,0.018H35.896z M39.338,41.761h0.057
		c-0.01-0.003-0.019-0.009-0.026-0.016L39.338,41.761z"/>
	<path fill="#1E100D" d="M39.343,41.725c-0.022-0.004-0.045-0.009-0.067-0.007c-1.1-0.002-2.197,0-3.297-0.002
		c-0.031,0-0.062,0.002-0.09,0.003c-0.002,0.01-0.013,0.021-0.025,0.029c0.012,0.005,0.023,0.01,0.035,0.018l3.439-0.005
		c0.01-0.006,0.02-0.01,0.028-0.016C39.354,41.739,39.348,41.73,39.343,41.725L39.343,41.725z M39.393,41.727l-0.01,0.006
		l0.01,0.004V41.727z"/>
	<path fill="#1E100D" d="M39.343,41.725c0.015,0.002,0.027,0.006,0.04,0.01c0.004-0.002,0.008-0.004,0.01-0.008
		c-0.002-0.021-0.004-0.043-0.006-0.065C39.346,41.684,39.333,41.705,39.343,41.725z"/>
	<path fill="#1E100D" d="M39.383,41.732c-0.006,0.004-0.011,0.011-0.017,0.013c0.007,0.006,0.016,0.01,0.026,0.016
		c0-0.008,0-0.016-0.002-0.021C39.391,41.736,39.387,41.732,39.383,41.732z"/>
	<path fill="#1E100D" d="M39.366,41.745c0.005-0.002,0.011-0.009,0.017-0.013l-0.04-0.01C39.348,41.732,39.356,41.74,39.366,41.745z
		 M35.836,41.721c0.018-0.002,0.034-0.002,0.053-0.002c0.002-0.019-0.013-0.037-0.05-0.06L35.836,41.721z M35.835,41.766
		c0.01-0.006,0.019-0.012,0.028-0.018l-0.028-0.018V41.766z"/>
	<path fill="#1E100D" d="M35.863,41.748c0.013-0.012,0.021-0.021,0.023-0.029c-0.019,0-0.035,0-0.053,0.002l-0.001,0.01
		C35.846,41.734,35.854,41.741,35.863,41.748z M42.363,24.919c-0.92-0.035-1.842,0.069-2.76-0.054
		c0.164,0.153,0.369,0.104,0.559,0.106c0.783,0.004,1.564,0.003,2.346,0.003c0.001-0.02,0.002-0.039,0.004-0.058
		C42.463,24.918,42.412,24.919,42.363,24.919z M42.516,24.871h-0.063c0.021,0.011,0.042,0.023,0.063,0.036
		C42.514,24.895,42.514,24.883,42.516,24.871z"/>
	<path fill="#1E100D" d="M42.363,24.919l0.148-0.002v-0.008c-0.02-0.015-0.04-0.028-0.062-0.038
		c-0.949-0.003-1.897-0.003-2.849-0.006C40.521,24.988,41.443,24.884,42.363,24.919z M42.561,24.915H42.55v0.012
		c0.013,0.019,0.023,0.038,0.032,0.058l0.002-0.083L42.561,24.915z"/>
	<path fill="#1E100D" d="M42.582,24.984l-0.025-0.049l-0.007-0.004l-0.004,0.011c-0.012,0.021-0.024,0.032-0.037,0.032
		c0.048,0.931-0.084,1.866,0.074,2.794C42.557,26.84,42.557,25.912,42.582,24.984z M42.55,24.915h0.011
		c0.008-0.005,0.018-0.008,0.023-0.014c0.001-0.013,0.001-0.026,0.001-0.04c-0.022,0.005-0.047,0.007-0.069,0.01
		C42.536,24.886,42.546,24.901,42.55,24.915z"/>
	<path fill="#1E100D" d="M42.582,24.984c0.003,0.007,0.007,0.011,0.009,0.018l-0.004-0.103l-0.003,0.002L42.582,24.984z"/>
	<path fill="#1E100D" d="M42.591,25.002c-0.002-0.007-0.006-0.011-0.009-0.018c-0.027,0.928-0.023,1.856,0.001,2.784
		C42.643,26.847,42.639,25.925,42.591,25.002z M42.587,24.899l-0.002-0.038l-0.001,0.04L42.587,24.899z M42.55,24.915
		c-0.008,0.002-0.016,0.002-0.022,0.002c0.009,0.003,0.017,0.009,0.022,0.015V24.915z"/>
	<path fill="#1E100D" d="M42.546,24.942l0.004-0.011c-0.008-0.007-0.016-0.011-0.022-0.015h-0.014l-0.005,0.058
		C42.521,24.975,42.534,24.964,42.546,24.942L42.546,24.942z"/>
	<path fill="#1E100D" d="M42.525,24.917c0.009,0,0.017,0,0.022-0.002c-0.007-0.018-0.019-0.034-0.034-0.044l-0.002,0.036
		C42.518,24.909,42.521,24.913,42.525,24.917z"/>
	<path fill="#1E100D" d="M42.514,24.917h0.012l-0.012-0.01V24.917z M35.758,23.583l-0.013-0.007
		c0.014,0.075,0.024,0.151,0.032,0.227C35.773,23.729,35.77,23.657,35.758,23.583z M35.753,24.512l0.003,0.063l0.003-0.002
		l0.009-0.096c0-0.019,0-0.037,0.002-0.057C35.766,24.452,35.759,24.481,35.753,24.512z M35.716,23.422l-0.006,0.119v0.018
		c0.013,0.004,0.022,0.011,0.035,0.018C35.736,23.525,35.727,23.474,35.716,23.422z M35.77,24.421c0.03-0.209,0.03-0.414,0.01-0.618
		C35.788,24.009,35.777,24.215,35.77,24.421z"/>
	<path fill="#1E100D" d="M35.716,23.414v0.005c0.011,0.055,0.021,0.105,0.029,0.157c0.003,0.003,0.009,0.004,0.013,0.007
		c0.012,0.074,0.018,0.146,0.021,0.22c0.021,0.204,0.021,0.409-0.01,0.618c-0.002,0.02-0.002,0.038-0.002,0.057
		c0.043-0.482,0.166-0.967-0.033-1.441l-0.012,0.254C35.725,23.332,35.723,23.374,35.716,23.414z"/>
	<path fill="#1E100D" d="M35.777,23.803c-0.008-0.075-0.021-0.151-0.032-0.227c-0.013-0.007-0.022-0.014-0.035-0.018
		c0.017,0.318,0.028,0.636,0.043,0.953c0.006-0.03,0.013-0.06,0.017-0.091C35.777,24.215,35.788,24.009,35.777,23.803L35.777,23.803
		z M35.757,24.604l0.002-0.032l-0.003,0.003L35.757,24.604z M35.723,23.29l-0.007,0.124C35.723,23.372,35.725,23.331,35.723,23.29z
		 M40.79,16.71c0.427,0.123,0.854,0.132,1.282-0.003C41.646,16.751,41.217,16.752,40.79,16.71z"/>
	<path fill="#1E100D" d="M41.229,16.683c-0.146,0.003-0.293,0.012-0.438,0.027c0.427,0.041,0.854,0.043,1.28-0.003
		c-0.118-0.011-0.237-0.019-0.356-0.024C41.553,16.7,41.391,16.7,41.229,16.683z"/>
	<path fill="#1E100D" d="M41.713,16.683c-0.16-0.007-0.321-0.007-0.482,0C41.391,16.7,41.553,16.7,41.713,16.683z"/>
</g>
</svg>
