<?xml version="1.0" encoding="utf-8"?>
<!-- Generator: Adobe Illustrator 16.0.0, SVG Export Plug-In . SVG Version: 6.00 Build 0)  -->
<!DOCTYPE svg PUBLIC "-//W3C//DTD SVG 1.1//EN" "http://www.w3.org/Graphics/SVG/1.1/DTD/svg11.dtd">
<svg version="1.1" xmlns="http://www.w3.org/2000/svg" xmlns:xlink="http://www.w3.org/1999/xlink" x="0px" y="0px" width="52px"
	 height="52px" viewBox="0 0 52 52" enable-background="new 0 0 52 52" xml:space="preserve">
<g id="Capa_2">
</g>
<g id="Capa_1">
	<g opacity="0.4">
		<path d="M30.811,16.348l-3.396,3.398l3.268,3.267l-0.868,0.868l-3.268-3.268l-3.425,3.427l-0.926-0.926l3.427-3.426l-3.268-3.269
			l0.866-0.866l3.268,3.268l3.399-3.398L30.811,16.348z"/>
	</g>
	
		<radialGradient id="SVGID_1_" cx="764.0557" cy="-9056.3965" r="17.0609" gradientTransform="matrix(1.1083 0 0 -0.1273 -820.9525 -1103.0824)" gradientUnits="userSpaceOnUse">
		<stop  offset="0" style="stop-color:#FFE120"/>
		<stop  offset="0.417" style="stop-color:#FFE120;stop-opacity:0.584"/>
		<stop  offset="1" style="stop-color:#FFE120;stop-opacity:0.003"/>
	</radialGradient>
	<path opacity="0.9" fill="url(#SVGID_1_)" d="M25.852,47.594c10.289,0,18.631,0.986,18.631,2.203S36.141,52,25.852,52
		c-10.293,0-18.635-0.986-18.635-2.203S15.559,47.594,25.852,47.594z"/>
	<g>
		<path d="M26.5,36.938c-10.184,0-18.469-8.285-18.469-18.469S16.316,0,26.5,0s18.469,8.285,18.469,18.469
			S36.684,36.938,26.5,36.938z M26.5,1.296C17.03,1.296,9.327,9,9.327,18.469c0,9.469,7.703,17.173,17.173,17.173
			s17.173-7.704,17.173-17.173C43.673,9,35.97,1.296,26.5,1.296z"/>
	</g>
	<g>
		<path d="M30.811,15.527l-3.396,3.398l3.268,3.267l-0.868,0.868l-3.268-3.268l-3.425,3.428l-0.926-0.927l3.427-3.426l-3.268-3.27
			l0.866-0.866L26.487,18l3.399-3.398L30.811,15.527z"/>
	</g>
</g>
</svg>
