<?xml version="1.0" encoding="utf-8"?>
<!-- Generator: Adobe Illustrator 16.0.0, SVG Export Plug-In . SVG Version: 6.00 Build 0)  -->
<!DOCTYPE svg PUBLIC "-//W3C//DTD SVG 1.1//EN" "http://www.w3.org/Graphics/SVG/1.1/DTD/svg11.dtd">
<svg version="1.1" id="Capa_1" xmlns="http://www.w3.org/2000/svg" xmlns:xlink="http://www.w3.org/1999/xlink" x="0px" y="0px"
	 width="36.793px" height="36.793px" viewBox="0 0 36.793 36.793" enable-background="new 0 0 36.793 36.793" xml:space="preserve">
<path fill="#FFD820" stroke="#1E100D" stroke-width="2" stroke-miterlimit="10" d="M35.793,31.54c0,2.35-1.904,4.254-4.254,4.254
	H5.254C2.905,35.793,1,33.889,1,31.54l0,0V5.254C1,2.905,2.903,1,5.252,1c0,0,0.001,0,0.002,0H31.54c2.35,0,4.254,1.905,4.254,4.254
	l0,0V31.54z"/>
<linearGradient id="SVGID_1_" gradientUnits="userSpaceOnUse" x1="309.8521" y1="-163.2651" x2="342.1537" y2="-195.5678" gradientTransform="matrix(1 0 0 -1 -307.6055 -161.0205)">
	<stop  offset="0" style="stop-color:#FFFFFF;stop-opacity:0.3"/>
	<stop  offset="1" style="stop-color:#FFD820;stop-opacity:0"/>
</linearGradient>
<path fill="url(#SVGID_1_)" d="M35.793,31.54c0,2.35-1.904,4.254-4.254,4.254H5.254C2.905,35.793,1,33.889,1,31.54l0,0V5.254
	C1,2.905,2.903,1,5.252,1c0,0,0.001,0,0.002,0H31.54c2.35,0,4.254,1.905,4.254,4.254l0,0V31.54z"/>
<path fill="none" stroke="#1E100D" stroke-width="2" stroke-miterlimit="10" d="M35.793,31.54c0,2.35-1.904,4.254-4.254,4.254H5.254
	C2.905,35.793,1,33.889,1,31.54l0,0V5.254C1,2.905,2.903,1,5.252,1c0,0,0.001,0,0.002,0H31.54c2.35,0,4.254,1.905,4.254,4.254l0,0
	V31.54z"/>
<g>
	<path d="M33.043,10.32c-1.514-2.591-3.564-4.642-6.156-6.155c-2.594-1.513-5.42-2.269-8.49-2.269c-3.068,0-5.899,0.756-8.491,2.269
		C7.315,5.678,5.264,7.729,3.751,10.32c-1.513,2.592-2.269,5.422-2.269,8.491c0,3.685,1.076,7,3.226,9.943
		c2.151,2.943,4.93,4.981,8.336,6.11c0.396,0.074,0.69,0.023,0.88-0.152c0.191-0.177,0.287-0.397,0.287-0.661
		c0-0.043-0.004-0.44-0.011-1.189c-0.008-0.748-0.012-1.401-0.012-1.96l-0.505,0.088c-0.324,0.06-0.731,0.086-1.222,0.078
		c-0.492-0.008-1.003-0.06-1.531-0.156c-0.529-0.095-1.021-0.313-1.476-0.659c-0.456-0.345-0.777-0.796-0.969-1.354l-0.22-0.508
		c-0.146-0.338-0.378-0.711-0.693-1.123c-0.316-0.411-0.636-0.689-0.958-0.838L6.459,26.32c-0.103-0.073-0.197-0.161-0.286-0.265
		c-0.088-0.102-0.154-0.205-0.198-0.308c-0.044-0.104-0.008-0.188,0.109-0.253c0.117-0.067,0.331-0.1,0.639-0.1l0.44,0.065
		c0.294,0.06,0.658,0.235,1.091,0.528c0.433,0.295,0.789,0.676,1.068,1.146c0.338,0.603,0.744,1.06,1.222,1.377
		c0.478,0.315,0.958,0.472,1.442,0.472s0.903-0.036,1.255-0.109c0.353-0.073,0.683-0.184,0.991-0.33
		c0.133-0.984,0.493-1.74,1.079-2.269c-0.837-0.089-1.589-0.221-2.257-0.397c-0.668-0.176-1.359-0.461-2.07-0.859
		c-0.713-0.396-1.304-0.888-1.774-1.474c-0.469-0.588-0.855-1.359-1.155-2.313c-0.301-0.956-0.451-2.058-0.451-3.304
		c0-1.777,0.58-3.29,1.74-4.538C8.801,12.055,8.853,10.559,9.5,8.899c0.425-0.133,1.057-0.032,1.894,0.297
		c0.837,0.33,1.449,0.614,1.838,0.848c0.39,0.234,0.701,0.434,0.936,0.595c1.366-0.381,2.776-0.572,4.229-0.572
		s2.861,0.191,4.23,0.572l0.836-0.529c0.57-0.352,1.246-0.674,2.025-0.969c0.777-0.293,1.371-0.373,1.785-0.242
		c0.66,1.66,0.719,3.156,0.176,4.494c1.16,1.247,1.74,2.76,1.74,4.537c0,1.246-0.152,2.352-0.453,3.313
		c-0.301,0.963-0.689,1.733-1.166,2.313c-0.479,0.581-1.072,1.068-1.785,1.465c-0.711,0.397-1.402,0.683-2.07,0.858
		c-0.668,0.177-1.42,0.309-2.258,0.397c0.764,0.661,1.146,1.703,1.146,3.127v4.647c0,0.264,0.092,0.484,0.275,0.66
		s0.473,0.228,0.869,0.153c3.408-1.13,6.186-3.167,8.336-6.111c2.15-2.943,3.227-6.258,3.227-9.943
		C35.311,15.742,34.553,12.912,33.043,10.32L33.043,10.32z M33.043,10.32"/>
</g>
</svg>
