<?xml version="1.0" encoding="utf-8"?>
<!-- Generator: Adobe Illustrator 16.0.0, SVG Export Plug-In . SVG Version: 6.00 Build 0)  -->
<!DOCTYPE svg PUBLIC "-//W3C//DTD SVG 1.1//EN" "http://www.w3.org/Graphics/SVG/1.1/DTD/svg11.dtd">
<svg version="1.1" id="Capa_1" xmlns="http://www.w3.org/2000/svg" xmlns:xlink="http://www.w3.org/1999/xlink" x="0px" y="0px"
	 width="57px" height="57px" viewBox="0 0 57 57" enable-background="new 0 0 57 57" xml:space="preserve">
<path fill="#1E100D" d="M0,0v57h57V0H0z M54,54H3V3h51V54z"/>
<g>
	<path fill="#1E100D" d="M27.688,33.643c-0.387-0.627-0.476-1.354-0.693-2.035c-0.146-0.283-0.248-0.589-0.303-0.903
		c-0.088-0.22-0.233-0.42-0.219-0.671c-0.168-0.395-0.318-0.79-0.375-1.218c-0.342-0.633-0.474-1.336-0.674-2.018
		c-0.305-0.805-0.595-1.615-0.781-2.457c-0.34-0.635-0.475-1.338-0.674-2.02c-0.142-0.286-0.242-0.59-0.298-0.905l-0.132-0.412
		c-0.201-0.478-0.377-0.962-0.461-1.477c-0.297-0.524-0.398-1.114-0.564-1.683c-0.142-0.286-0.242-0.591-0.299-0.906
		c-0.042-0.137-0.086-0.273-0.131-0.41l-0.421-1.058l-4.684,0.013c-0.132,0-0.262-0.009-0.361-0.111
		c-0.268,0.137-0.077,0.424-0.198,0.607l-0.032,0.402c0.026,0.239-0.006,0.481-0.092,0.705c-0.189,0.922-0.445,1.822-0.895,2.656
		c-0.009,0.128,0.008,0.265-0.032,0.384c-0.538,1.628-1.083,3.253-1.626,4.879c-0.159,0.538-0.256,1.099-0.588,1.571
		c-0.073,0.91-0.471,1.723-0.754,2.569c-0.164,0.53-0.236,1.099-0.576,1.563l-0.018,0.218c-0.141,0.242-0.038,0.555-0.227,0.783
		l-0.188,0.568c-0.135,0.416-0.163,0.873-0.466,1.229l-0.019,0.219c-0.168,0.354-0.109,0.778-0.335,1.117
		c-0.065,0.202-0.13,0.404-0.197,0.607l-0.262,0.846C9.738,37.48,9.461,38.7,8.928,39.836c-0.078,0.166-0.093,0.372,0.186,0.41
		c-0.01-0.02-0.008-0.038,0.006-0.057c0.541-0.188,1.1-0.082,1.648-0.08c0.717,0.004,1.44-0.103,2.152,0.072
		c0.016,0.017,0.018,0.032,0.005,0.051c0.185-0.104,0.187-0.307,0.243-0.479c0.283-0.855,0.563-1.716,0.845-2.572
		c0.156-0.646,0.308-1.289,0.591-1.895c0.139-0.584,0.31-1.157,0.542-1.711c0-0.122,0.026-0.233,0.128-0.313v-0.103
		c0.047-0.205,0.212-0.106,0.318-0.106c2.361-0.007,4.689-0.007,7.051,0c0.106,0,0.284-0.099,0.284,0.106v0.224
		c0.229,0.244,0.403,0.545,0.356,0.897c0.27,0.491,0.473,1.016,0.589,1.563c0.203,0.432,0.344,0.885,0.455,1.344
		c0.125,0.197,0.175,0.434,0.138,0.666c0.258,0.129,0.221,0.39,0.313,0.603c0.251,0.573,0.293,1.271,0.676,1.729
		c-0.013,0-0.011-0.019,0.006-0.033c1.12-0.168,2.248-0.026,3.371-0.063c0.254-0.008,0.521-0.057,0.762,0.078
		c0.019,0.02,0.021,0.038,0.007,0.061c0.031-0.02,0.064-0.033,0.101-0.041c-0.12-0.844-0.522-1.604-0.695-2.434
		C28.525,36.4,28.023,35.049,27.688,33.643z M22.102,29.59c-0.121,0.11-0.272,0.104-0.422,0.104c-1.693,0.002-3.388,0.002-5.082,0
		c-0.148,0-0.301,0.011-0.423-0.102c-0.067-0.076-0.116-0.152-0.015-0.238l0.129-0.328c0.148-0.572,0.201-1.178,0.564-1.678
		l-0.01-0.113c0.059-0.549,0.26-1.057,0.449-1.566c0.257-0.982,0.53-1.961,0.879-2.915c0.105-0.499,0.149-1.019,0.469-1.448
		c-0.085-0.207-0.018-0.39,0.088-0.566c0.004-0.495,0.242-0.935,0.313-1.523c0.283,0.469,0.24,0.914,0.388,1.3
		c0.555,1.829,1.109,3.659,1.662,5.489c0.197,0.654,0.393,1.309,0.588,1.963c0.154,0.338,0.25,0.693,0.306,1.062l0.121,0.451
		L22.102,29.59L22.102,29.59z M42.501,27.443c0.087,0.047,0.099-0.389,0.185-0.057c0.131,0.499,0.219,1.023,0.222,1.538
		c0.018,3.689,0.008,7.381,0.007,11.07h0.001c0.308,0.201,0.647,0.096,0.976,0.102c0.905,0.02,1.813,0.01,2.721,0.01
		c0-3.733,0-7.47,0.002-11.205c0-0.219-0.051-0.448,0.086-0.651l0.044-0.245c-0.007-0.22-0.015-0.439-0.021-0.66
		c-0.025-0.023-0.03-0.06-0.014-0.089c-0.132-0.174,0.014-0.445-0.206-0.59c-0.153-0.151-0.153-0.162-0.017-0.437
		c-0.096-0.797-0.357-1.565-0.766-2.256c-0.328-0.002-0.322-0.197-0.246-0.432c-0.223-0.32-0.388-0.711-0.68-0.945
		c-0.635-0.514-1.342-0.932-2.143-1.163c-0.689-0.11-1.389-0.156-2.086-0.138l-0.19,0.027c-0.087,0.026-0.173,0.057-0.263,0.078
		c-1.229,0.291-2.407,0.689-3.352,1.582c-0.076,0.224-0.134,0.469-0.455,0.434c-0.334-0.028-0.186-0.272-0.195-0.443L36,22.493
		c-0.04,0.067-0.044,0.241-0.082,0.202c-0.111-0.116-0.049-0.267,0.057-0.385c0-0.214-0.009-0.423-0.229-0.541
		c-0.744,0.208-1.503,0.063-2.253,0.086c-0.905,0.027-0.938,0.011-1.179,0.713l-0.002,0.016c-0.002,0.026-0.017,0.042-0.022,0.06
		l-0.013,1.011c0.096,0.871,0.096,1.746,0.097,2.62c0.003,4.432-0.001,8.862,0.005,13.293c0.001,0.228-0.097,0.486,0.125,0.678
		c-0.012-0.02-0.01-0.037,0.006-0.053c0.576-0.194,1.17-0.063,1.754-0.084c0.645-0.025,1.291-0.01,1.938-0.014
		c0.001-4.267,0.008-8.531-0.006-12.799c-0.002-0.611,0.248-0.98,0.799-1.182c0.229,0.006,0.363-0.169,0.531-0.275
		c0.805-0.507,1.66-0.813,2.629-0.731c1.311,0.11,2.252,1.062,2.303,2.356l0.033,0.009L42.501,27.443z"/>
	<path fill="#1E100D" d="M36.305,40.05l-0.031,0.056l0.031,0.002V40.05z M36.516,26.655c0.035-0.038,0.082-0.061,0.133-0.065
		l0.346-0.474C36.754,26.263,36.607,26.447,36.516,26.655z"/>
	<path fill="#1E100D" d="M36.193,27.298c0.014,4.267,0.007,8.532,0.006,12.798c0.023,0.002,0.048,0.006,0.074,0.01l0.031-0.056
		c0.002-4.186,0.006-8.373,0.012-12.56c0-0.236-0.063-0.486,0.096-0.704c0.035-0.043,0.064-0.092,0.104-0.131
		c0.092-0.208,0.238-0.393,0.479-0.539C36.441,26.317,36.191,26.687,36.193,27.298L36.193,27.298z M36.417,39.993
		c-0.009,0.022-0.019,0.044-0.03,0.065c-0.02,0.025-0.048,0.046-0.08,0.057c0.002,0.02,0.004,0.037,0.01,0.056
		c0.012,0.02,0.011,0.044-0.002,0.062c0.031-0.02,0.064-0.034,0.101-0.043C36.406,40.125,36.407,40.059,36.417,39.993z"/>
	<path fill="#1E100D" d="M36.256,40.107c0,0,0.025,0.004,0.025,0.008c0.036-0.01,0.068-0.029,0.093-0.057
		c0.013-0.021,0.028-0.043,0.038-0.065l0.003-0.017c0.007-4.328,0.022-8.653-0.004-12.98l0.001-0.004
		c-0.033,0.192-0.049,0.388-0.045,0.583c0.004,3.127,0.002,6.254,0.002,9.382c0,0.838-0.047,1.675-0.051,2.514
		c-0.002,0.194,0.117,0.396-0.112,0.579v0.058H36.256L36.256,40.107z"/>
	<path fill="#1E100D" d="M36.367,39.471c0.005-0.839,0.002-1.676,0.002-2.514c0.001-3.128,0.003-6.255-0.001-9.382
		c-0.001-0.201,0.01-0.398,0.044-0.583c-0.021-0.067-0.021-0.139,0-0.206c-0.157,0.218-0.096,0.468-0.096,0.704
		c-0.006,4.187-0.01,8.374-0.012,12.56C36.395,39.867,36.367,39.665,36.367,39.471z M36.439,39.939
		c-0.006,0.019-0.016,0.035-0.022,0.054c-0.009,0.063-0.011,0.13-0.003,0.194c-0.005-0.031,0.004-0.063,0.025-0.086V39.939z"/>
	<path fill="#1E100D" d="M36.413,26.996c0.026,4.327,0.013,8.652,0.007,12.98l-0.002,0.017c0.008-0.019,0.016-0.035,0.021-0.054
		l0.006-13.042l-0.006-0.021C36.428,26.916,36.42,26.956,36.413,26.996z"/>
	<path fill="#1E100D" d="M36.412,26.992c0.008-0.04,0.018-0.078,0.027-0.115c-0.01-0.03-0.021-0.061-0.027-0.091
		C36.393,26.853,36.393,26.925,36.412,26.992z M46.732,39.934c0.002,0.061,0.002,0.117,0.002,0.176
		c0.031-0.004,0.062-0.01,0.092-0.018c-0.039-0.053-0.068-0.113-0.086-0.177L46.732,39.934z"/>
	<path fill="#1E100D" d="M46.732,39.934l0.008-0.019l-0.008-0.033V39.934z M46.723,38.221c-0.002-3.127,0-6.253-0.002-9.38
		c0-0.242,0.014-0.482,0.057-0.721c0.002-0.033,0.006-0.066,0.012-0.099c-0.016-0.005-0.031-0.011-0.047-0.017l-0.045,0.245
		l0.025,9.733V38.221L46.723,38.221z"/>
	<path fill="#1E100D" d="M46.797,28.367c-0.045,3.63-0.006,7.259-0.021,10.889c-0.002,0.221,0.035,0.448-0.033,0.659
		c0.018,0.062,0.043,0.12,0.086,0.177L46.82,28.239C46.816,28.282,46.809,28.325,46.797,28.367z"/>
	<path fill="#1E100D" d="M46.744,28.021c-0.006,0.031,0.015,0.065,0.012,0.099c-0.037,0.238-0.053,0.479-0.047,0.721
		c0.002,3.127,0.008,6.253,0.009,9.38c0.003,0.555,0.009,1.108,0.013,1.661c0.003,0.011,0.006,0.022,0.011,0.033
		c0.067-0.211,0.032-0.438,0.034-0.659c0.017-3.63-0.065-7.259-0.021-10.889c0.013-0.042-0.019-0.085-0.019-0.128v-0.207
		C46.736,28.032,46.756,28.025,46.744,28.021L46.744,28.021z M46.633,40.117c-0.012,0.005-0.018,0.008-0.021,0.012
		c0.002,0.003,0.002,0.008,0.002,0.008c0.004,0.004,0.005,0.006,0,0.006l0.006,0.032l0.014,0.034l-0.021,0.025l0.127-0.125
		c-0.02-0.023-0.036-0.049-0.047-0.076C46.671,40.063,46.654,40.09,46.633,40.117z M46.508,40.141v0.002V40.141z"/>
	<path fill="#1E100D" d="M46.667,39.736l-0.001-11.211c0-0.093,0-0.187,0.031-0.275c-0.137,0.203-0.086,0.433-0.086,0.651
		c-0.002,3.735-0.002,7.47-0.002,11.205c0.001,0.008,0.002,0.016,0.002,0.022l0.021-0.012c0.021-0.027,0.038-0.056,0.056-0.084
		C46.648,39.939,46.667,39.836,46.667,39.736z M46.688,40.033c0.013,0.025,0.024,0.052,0.047,0.076v-0.178
		C46.721,39.966,46.705,40,46.688,40.033z"/>
	<path fill="#1E100D" d="M46.725,39.443c0-0.407,0-0.815-0.002-1.226v-0.233c-0.01-3.245-0.018-6.489-0.025-9.734
		c-0.03,0.089-0.03,0.183-0.03,0.275l0.001,11.211c0,0.1-0.02,0.203,0.021,0.297c0.018-0.033,0.033-0.066,0.047-0.102l-0.002-0.052
		C46.703,39.739,46.725,39.589,46.725,39.443z"/>
	<path fill="#1E100D" d="M46.732,39.882c-0.004-0.553-0.008-1.106-0.01-1.661c0,0.407,0,0.815,0.002,1.225
		C46.725,39.589,46.703,39.739,46.732,39.882z M42.811,40.014c-0.011-0.022-0.02-0.047-0.024-0.072
		c-0.021,0.061-0.054,0.115-0.097,0.162l0.115,0.107c-0.006-0.023-0.006-0.049,0-0.072L42.811,40.014z"/>
	<path fill="#1E100D" d="M42.811,39.813c-0.003,0.045-0.012,0.088-0.024,0.129c0.006,0.024,0.017,0.05,0.024,0.072V39.813z
		 M42.801,39.409c0,0.062,0.006,0.124,0.01,0.188l-0.006-8.263C42.805,34.025,42.805,36.718,42.801,39.409z M42.749,39.43
		l0.002-0.117l-0.003-6.293c0,2.097,0.001,4.19-0.001,6.287C42.746,39.348,42.748,39.389,42.749,39.43z M42.748,39.729
		c-0.006,0.077-0.026,0.152-0.059,0.222v0.153c0.043-0.047,0.075-0.102,0.096-0.162C42.766,39.873,42.752,39.801,42.748,39.729
		L42.748,39.729z"/>
	<path fill="#1E100D" d="M42.846,39.598c0-0.063-0.027-0.127-0.027-0.188c0.004-2.691-0.006-5.385-0.006-8.073
		c0-0.646,0.018-1.294,0.016-1.94c0-0.029,0.02-0.061,0.02-0.09v-0.363c0-0.067-0.051-0.133-0.084-0.196
		c0.008,0.165,0,0.333,0,0.499c0,1.259-0.008,2.517-0.008,3.772c0,2.099-0.002,4.194,0,6.293c0,0.037-0.002,0.078-0.004,0.117
		c0.004,0.1,0.01,0.199-0.001,0.299c0.005,0.071,0.033,0.145,0.056,0.213c0.014-0.041,0.041-0.084,0.041-0.129L42.846,39.598z
		 M42.749,39.43c-0.001-0.041-0.002-0.082-0.002-0.123c0.002-2.097,0.001-4.19,0.001-6.287v-3.772c0-0.172-0.005-0.344-0.018-0.515
		c-0.008-0.014-0.015-0.028-0.023-0.041L42.689,39.95c0.031-0.069,0.052-0.145,0.059-0.222
		C42.742,39.628,42.746,39.527,42.749,39.43z"/>
	<path fill="#1E100D" d="M42.749,39.43c-0.002,0.1-0.006,0.198-0.001,0.299C42.758,39.629,42.753,39.527,42.749,39.43z
		 M42.747,29.245v3.774l0.002-3.774c0-0.166-0.003-0.334-0.011-0.499c-0.002-0.006-0.006-0.011-0.01-0.016
		C42.742,28.901,42.747,29.073,42.747,29.245z M22.704,33.257c0.022,0.007,0.046,0.017,0.067,0.025
		c0.055,0.011,0.101,0.047,0.123,0.098c0.033,0.009,0.068,0.011,0.102,0.009c-0.067-0.053-0.143-0.094-0.224-0.121L22.704,33.257
		L22.704,33.257z M17.08,33.218c0.809,0.001,1.617,0.005,2.426,0.005C18.697,33.215,17.889,33.207,17.08,33.218z M22.343,33.217
		c-0.337-0.02-0.676-0.001-1.013,0.006h0.776C22.185,33.223,22.264,33.219,22.343,33.217z"/>
	<path fill="#1E100D" d="M15.275,33.096v0.135c0.063-0.037,0.129-0.035,0.202-0.031c0.534,0.003,1.068,0.011,1.603,0.011
		c0.809-0.01,1.617,0.002,2.426,0.009c0.608-0.001,1.217,0.004,1.824,0.004c0.336-0.008,0.676-0.022,1.013-0.005
		c0.122-0.002,0.243,0.005,0.361,0.039c0.022,0.005,0.011,0.009,0.034,0.013c0.083,0.026,0.19,0.07,0.19,0.123v-0.295L15.275,33.096
		z"/>
	<path fill="#1E100D" d="M15.5,33.294l7.103-0.017c0.056,0,0.116-0.008,0.169,0.005c-0.021-0.011-0.044-0.02-0.067-0.025
		c-0.12-0.02-0.24-0.032-0.361-0.04c-0.079,0.002-0.158,0.006-0.236,0.006h-0.776l-0.111,0.002c-0.57,0.006-1.142,0.002-1.713-0.002
		c-0.809,0-1.617-0.004-2.426-0.005c-0.508,0.007-1.017,0.022-1.524,0.048C15.537,33.273,15.519,33.285,15.5,33.294z"/>
	<path fill="#1E100D" d="M15.5,33.323c0.019,0,0.037-0.035,0.056-0.044c0.507-0.029,1.016-0.047,1.524-0.055l-1.603-0.008
		c-0.072,0.001-0.143,0.023-0.202,0.063c0.037,0.011,0.074,0.041,0.112,0.041C15.425,33.323,15.463,33.323,15.5,33.323z
		 M21.219,33.225l0.111-0.002h-1.824C20.077,33.227,20.648,33.229,21.219,33.225z M22.343,33.217c0.12,0.008,0.241,0.021,0.361,0.04
		C22.586,33.225,22.465,33.211,22.343,33.217z M16.802,15.35l-0.198-0.001l0.014,0.021c0.07-0.006,0.141-0.009,0.211-0.014
		L16.802,15.35z M21.662,15.469c0.005-0.03-0.002-0.061-0.022-0.084l-0.122-0.001C21.567,15.41,21.616,15.438,21.662,15.469z"/>
	<path fill="#1E100D" d="M21.662,15.469c-0.047-0.029-0.094-0.06-0.145-0.085l-0.32-0.002c-0.101,0.004-0.202,0.002-0.303-0.003
		l-1.242-0.009c-0.798,0.003-1.596,0.002-2.393-0.001c-0.143-0.001-0.291,0.018-0.432-0.013c-0.07,0.005-0.141,0.008-0.211,0.014
		c0.1,0.103,0.229,0.111,0.361,0.111C18.54,15.478,20.102,15.474,21.662,15.469z"/>
	<path fill="#1E100D" d="M16.802,15.35l0.026,0.007l0.104-0.006L16.802,15.35z"/>
	<path fill="#1E100D" d="M16.828,15.356c0.141,0.03,0.289,0.012,0.432,0.013c0.797,0.003,1.595,0.004,2.393,0.001l-2.721-0.02
		L16.828,15.356z M21.197,15.382l-0.303-0.003C20.996,15.384,21.097,15.386,21.197,15.382z M21.445,15.353
		c0.02,0.008,0.039,0.014,0.058,0.023c0.046,0.003,0.091,0.004,0.137,0.009c0.006-0.027,0.006-0.056,0.001-0.084v0.001
		C21.576,15.325,21.511,15.341,21.445,15.353z M16.617,15.259c-0.01,0.029-0.015,0.06-0.014,0.09l0.178-0.004
		C16.722,15.327,16.666,15.297,16.617,15.259z"/>
	<path fill="#1E100D" d="M21.503,15.376c-0.019-0.01-0.038-0.016-0.058-0.023l-0.076,0.014
		C21.414,15.369,21.458,15.372,21.503,15.376z M17.182,15.337c0.491-0.023,0.984-0.03,1.477-0.029
		c0.637-0.011,1.273-0.005,1.91,0.016c0.246,0.003,0.492,0.004,0.736,0.002c0.051,0,0.096,0.012,0.141,0.027
		c0.065-0.012,0.131-0.027,0.195-0.051v-0.001c-1.674-0.097-3.349-0.016-5.023-0.042c0.049,0.039,0.104,0.068,0.164,0.086
		L17.182,15.337z"/>
	<path fill="#1E100D" d="M17.182,15.337c0.492-0.012,0.984-0.023,1.477-0.029C18.166,15.307,17.673,15.313,17.182,15.337z
		 M21.445,15.353c-0.045-0.017-0.093-0.026-0.141-0.027c-0.244,0.002-0.49,0.001-0.736-0.002c0.268,0.011,0.534,0.024,0.801,0.043
		L21.445,15.353z M21.518,15.384l0.122,0.001c-0.046-0.005-0.091-0.006-0.137-0.009C21.508,15.378,21.513,15.381,21.518,15.384z
		 M16.781,15.345l-0.178,0.004l0.198,0.001L16.781,15.345z M19.652,15.37l1.242,0.009c-0.137-0.006-0.273-0.015-0.41-0.013
		C20.207,15.37,19.93,15.369,19.652,15.37z"/>
	<path fill="#1E100D" d="M21.369,15.366c-0.057,0.008-0.115,0.013-0.172,0.016l0.32,0.002l-0.015-0.008
		C21.458,15.372,21.414,15.369,21.369,15.366z M17.182,15.337l-0.4,0.008l0.021,0.005l0.13,0.001
		C17.015,15.347,17.098,15.34,17.182,15.337z M18.658,15.308c0.637,0,1.273,0.012,1.91,0.016
		C19.932,15.303,19.295,15.297,18.658,15.308z"/>
	<path fill="#1E100D" d="M20.568,15.323c-0.637-0.004-1.273-0.016-1.91-0.016c-0.493,0.006-0.984,0.018-1.477,0.029
		c-0.084,0.003-0.167,0.01-0.25,0.014l2.721,0.02c0.277-0.001,0.554,0,0.832-0.004c0.137-0.002,0.273,0.007,0.41,0.013l0.303,0.003
		c0.058-0.003,0.115-0.008,0.172-0.016C21.102,15.348,20.835,15.334,20.568,15.323L20.568,15.323z M32.578,21.754l-0.288,0.001
		c-0.157,0.295-0.022,0.592-0.001,0.889l0.025-0.075C32.359,22.062,32.382,21.845,32.578,21.754z M35.745,21.77l0.009-0.02h-0.127
		C35.666,21.757,35.705,21.761,35.745,21.77z"/>
	<path fill="#1E100D" d="M32.578,21.754c-0.196,0.091-0.219,0.308-0.264,0.814c0.24-0.702,0.271-0.686,1.178-0.713
		c0.75-0.022,1.509,0.122,2.253-0.086c-0.04-0.009-0.08-0.013-0.119-0.02L32.578,21.754z M25.555,40.249l-0.098-0.019
		c0.003,0.026,0.004,0.056,0.005,0.082c0.037-0.027,0.078-0.049,0.121-0.063H25.555z M29.479,40.252
		c0.044,0.017,0.084,0.039,0.121,0.068c0.002-0.028,0.004-0.057,0.002-0.086c-0.031,0.007-0.064,0.012-0.098,0.017L29.479,40.252z"
		/>
	<path fill="#1E100D" d="M25.583,40.249c0.132-0.047,0.277-0.033,0.416-0.033h0.77c-0.435-0.007-0.87-0.019-1.306-0.036
		c-0.017,0.016-0.019,0.032-0.006,0.051c0.034,0.009,0.065,0.015,0.098,0.021C25.564,40.249,25.574,40.249,25.583,40.249z
		 M29.596,40.182c-0.438,0.018-0.877,0.028-1.316,0.034h0.785c0.141,0,0.283-0.013,0.414,0.036l0.025-0.001
		c0.033-0.005,0.064-0.01,0.098-0.017C29.615,40.216,29.613,40.195,29.596,40.182L29.596,40.182z"/>
	<path fill="#1E100D" d="M25.583,40.249c-0.043,0.017-0.083,0.037-0.121,0.063L29.6,40.32c-0.036-0.029-0.077-0.052-0.121-0.068
		C28.181,40.283,26.881,40.281,25.583,40.249z"/>
	<path fill="#1E100D" d="M26.769,40.216h-0.77c-0.139,0-0.284-0.014-0.416,0.033c1.299,0.036,2.597,0.03,3.896,0.003
		c-0.131-0.049-0.273-0.036-0.414-0.036H28.28C27.776,40.225,27.272,40.225,26.769,40.216z M42.961,40.188
		c-0.027-0.002-0.049-0.02-0.066-0.041c-0.018,0-0.033-0.002-0.049-0.004l-0.041,0.068c0.002,0.025,0.006,0.055,0.01,0.08
		c0.191-0.034,0.383-0.055,0.574-0.066L42.961,40.188z M46.361,40.186l-0.121,0.02c0.129,0.008,0.254,0.049,0.363,0.119
		c0.004-0.029,0.006-0.059,0.004-0.088c-0.012-0.021-0.024-0.038-0.035-0.06L46.361,40.186L46.361,40.186z M45.686,40.221
		c0.184-0.005,0.371-0.033,0.557-0.018l0.119-0.02c-0.406,0.015-0.813,0.027-1.223,0.037C45.32,40.225,45.501,40.227,45.686,40.221z
		"/>
	<path fill="#1E100D" d="M42.895,40.146c0.02,0.021,0.039,0.037,0.066,0.041l0.428,0.037c0.098-0.009,0.194-0.015,0.291-0.018
		C43.418,40.195,43.156,40.176,42.895,40.146z M46.617,40.175l-0.045,0.002c0.011,0.021,0.023,0.039,0.035,0.06l0.021-0.025
		L46.617,40.175z M42.805,40.139c-0.006,0.023-0.006,0.049,0,0.072l0.041-0.068L42.805,40.139z M43.389,40.225
		c-0.191,0.013-0.384,0.035-0.574,0.066l3.789,0.031c-0.107-0.07-0.232-0.111-0.361-0.119C45.291,40.337,44.34,40.301,43.389,40.225
		z"/>
	<path fill="#1E100D" d="M45.686,40.221c-0.184,0.006-0.365,0.004-0.547,0.002c-0.486,0.012-0.973,0.01-1.459-0.014
		c-0.097,0.004-0.193,0.009-0.291,0.016c0.951,0.076,1.902,0.112,2.854-0.021C46.057,40.188,45.867,40.216,45.686,40.221z
		 M12.801,40.253c0.044,0.015,0.085,0.036,0.123,0.063l0.003-0.082c-0.032,0.006-0.065,0.012-0.097,0.017L12.801,40.253z
		 M9.213,40.259c-0.032-0.005-0.065-0.009-0.098-0.011c-0.002,0.025-0.001,0.053,0.005,0.078c0.034-0.029,0.073-0.053,0.116-0.067
		H9.213z"/>
	<path fill="#1E100D" d="M12.922,40.184l-3.801,0.01c-0.014,0.019-0.016,0.002-0.006,0.021c0.033,0.004,0.065-0.021,0.098-0.021
		h0.023c0.095,0,0.199-0.01,0.304-0.01c0.987-0.002,1.972,0.016,2.957,0.019c0.104,0,0.208,0.011,0.303,0.045
		c0.01-0.001,0.02,0.004,0.029,0.003l0.097-0.014C12.939,40.215,12.938,40.2,12.922,40.184z M9.236,40.259
		c-0.042,0.017-0.081,0.039-0.116,0.067l3.804-0.01c-0.037-0.028-0.079-0.05-0.123-0.063C11.612,40.285,10.424,40.273,9.236,40.259z
		"/>
	<path fill="#1E100D" d="M12.801,40.253c-0.098-0.029-0.2-0.042-0.303-0.037c-0.986-0.003-1.971-0.003-2.957,0
		c-0.103-0.005-0.207,0.01-0.304,0.043C10.425,40.279,11.613,40.277,12.801,40.253z M36.195,40.177
		c-0.184,0.13-0.406,0.089-0.615,0.091c-1.002,0.012-2.005-0.004-3.008,0.01c-0.016,0-0.031-0.008-0.047-0.01
		c0.018,0.018,0.031,0.039,0.039,0.063l3.75-0.017c-0.002-0.025,0-0.056,0-0.082c-0.016-0.02-0.027-0.039-0.041-0.06L36.195,40.177z
		"/>
	<path fill="#1E100D" d="M32.572,40.275c1.003-0.015,2.006,0.002,3.008-0.01c0.209,0,0.432,0.041,0.615-0.091
		c-1.229,0.073-2.457,0.039-3.688,0.017c-0.016,0.017-0.018,0.035-0.006,0.054c0.01,0.006,0.016,0.015,0.021,0.021
		C32.542,40.27,32.557,40.275,32.572,40.275z"/>
	<path fill="#1E100D" d="M32.508,40.33l0.057-0.001c-0.006-0.024-0.02-0.046-0.039-0.063c-0.006,0-0.014-0.002-0.021-0.004
		C32.503,40.285,32.504,40.308,32.508,40.33z"/>
	<path fill="#1E100D" d="M32.525,40.268c-0.008-0.008-0.014-0.017-0.021-0.021v0.019C32.512,40.266,32.52,40.266,32.525,40.268z
		 M36.316,40.171l-0.043,0.002c0.014,0.021,0.025,0.04,0.041,0.06C36.326,40.215,36.326,40.19,36.316,40.171z M35.609,21.672
		c0.053,0.016,0.102,0.043,0.145,0.078c0-0.027-0.002-0.054-0.008-0.081C35.701,21.671,35.654,21.671,35.609,21.672z M32.291,21.662
		c-0.001,0.031-0.001,0.062,0,0.093c0.047-0.041,0.103-0.071,0.163-0.087C32.4,21.665,32.346,21.665,32.291,21.662z M35.027,21.637
		c0.199,0.009,0.4,0.012,0.599,0.012h0.127c-0.045,0-0.094-0.036-0.146-0.052C35.416,21.603,35.221,21.632,35.027,21.637
		L35.027,21.637z"/>
	<path fill="#1E100D" d="M33.354,21.698c0.135,0.004,0.271,0.002,0.403-0.001c-0.435-0.001-0.87-0.011-1.304-0.029
		c-0.061,0.016-0.116,0.046-0.163,0.087l0.288-0.001C32.721,21.688,32.953,21.69,33.354,21.698z"/>
	<path fill="#1E100D" d="M35.027,21.688c-0.424,0.009-0.848,0.013-1.271,0.01c-0.134,0.003-0.27,0.005-0.402,0.001
		c-0.399-0.008-0.633-0.01-0.774,0.056l3.048-0.004C35.429,21.717,35.229,21.695,35.027,21.688z M33.234,21.64
		c0.547-0.002,1.092-0.002,1.638-0.001C34.326,21.629,33.779,21.629,33.234,21.64z M32.491,21.657l-0.201,0.005
		c0.056,0.003,0.11,0.003,0.163,0.006L32.491,21.657z M35.609,21.672c0.045-0.001,0.092-0.001,0.137-0.003
		c-0.057-0.004-0.114-0.004-0.172-0.006C35.586,21.665,35.598,21.669,35.609,21.672z"/>
	<path fill="#1E100D" d="M35.027,21.688c0.193-0.005,0.388-0.009,0.582-0.016c-0.012-0.003-0.023-0.007-0.035-0.009
		c-0.234-0.01-0.469-0.02-0.702-0.024c-0.546-0.001-1.091-0.001-1.638,0.001c-0.248,0.004-0.496,0.01-0.743,0.018l-0.038,0.011
		c0.436,0.019,0.869,0.028,1.304,0.029C34.18,21.69,34.604,21.669,35.027,21.688z"/>
	<path fill="#1E100D" d="M35.027,21.688c-0.424-0.019-0.848,0.003-1.271,0.01C34.18,21.7,34.604,21.696,35.027,21.688z
		 M36.764,22.983l-0.436,0.233l-0.01,0.086C36.527,23.281,36.646,23.135,36.764,22.983z"/>
	<path fill="#1E100D" d="M36.318,23.303l-0.012,0.114c0.321,0.035,0.379-0.21,0.455-0.434
		C36.646,23.135,36.527,23.281,36.318,23.303z M45.721,23.974c-0.04-0.164-0.125-0.313-0.246-0.432
		C45.461,23.741,45.596,23.854,45.721,23.974z"/>
	<path fill="#1E100D" d="M45.721,23.974c-0.125-0.119-0.26-0.232-0.246-0.432C45.398,23.776,45.393,23.972,45.721,23.974z
		 M46.501,26.666c0.116-0.148,0.043-0.292-0.015-0.437C46.41,26.378,46.463,26.521,46.501,26.666z"/>
	<path fill="#1E100D" d="M46.501,26.666c-0.039-0.145-0.091-0.288-0.015-0.437C46.348,26.504,46.348,26.515,46.501,26.666z
		 M35.955,22.517c0.016-0.006,0.031-0.014,0.045-0.023c-0.008-0.061-0.018-0.121-0.025-0.183c-0.037,0.042-0.058,0.091-0.049,0.144
		C35.93,22.473,35.879,22.528,35.955,22.517z"/>
	<path fill="#1E100D" d="M35.919,22.695c0.038,0.039,0.042-0.135,0.082-0.202c-0.014,0.01-0.028,0.018-0.045,0.023
		c-0.076,0.012-0.024-0.044-0.028-0.063c-0.009-0.053,0.012-0.102,0.049-0.144C35.87,22.429,35.807,22.579,35.919,22.695z
		 M15.654,33.109c2.321-0.002,4.643-0.002,6.965,0c0.127,0,0.262-0.026,0.377,0.056c-0.047-0.205-0.211-0.108-0.318-0.108
		c-2.361-0.005-4.723-0.005-7.084,0c-0.106,0-0.271-0.097-0.318,0.108C15.393,33.083,15.525,33.109,15.654,33.109z"/>
	<path fill="#1E100D" d="M22.619,33.075c-2.322-0.002-4.644-0.021-6.965-0.019c-0.129,0-0.262,0.036-0.379,0.036h7.721
		C22.881,33.096,22.746,33.075,22.619,33.075z M21.514,29.581c-1.586,0.004-3.17,0.008-4.755-0.004
		c-0.06-0.001-0.126,0.009-0.193,0.016c1.846,0,3.691-0.002,5.536-0.003l0.005-0.111C21.927,29.615,21.715,29.581,21.514,29.581
		L21.514,29.581z M16.16,29.354c-0.102,0.086-0.053,0.162,0.015,0.238H16.4C16.295,29.577,16.205,29.521,16.16,29.354z"/>
	<path fill="#1E100D" d="M21.473,29.501c-1.561,0.005-3.121,0.021-4.683,0.008c-0.088,0.005-0.176-0.006-0.26-0.03
		c-0.134,0.015-0.269,0.049-0.37-0.093c0.045,0.165,0.135,0.274,0.239,0.274h0.166c0.067,0,0.134-0.051,0.193-0.051
		c1.585,0.013,3.169-0.03,4.755-0.033c0.201,0,0.413,0.084,0.593-0.145h-0.36C21.67,29.432,21.58,29.501,21.473,29.501z"/>
	<path fill="#1E100D" d="M16.53,29.482c0.084,0.026,0.172,0.039,0.26,0.037c1.562,0.013,3.122,0.008,4.683,0.004
		c0.093,0.001,0.186-0.016,0.273-0.047c-1.675-0.002-3.35,0-5.024-0.011C16.66,29.467,16.596,29.477,16.53,29.482z M20,29.634
		c-1.275-0.008-2.551,0.064-3.825-0.041c0.122,0.11,0.274,0.103,0.423,0.103h5.082c0.149,0,0.301,0.007,0.422-0.104
		C21.404,29.701,20.7,29.637,20,29.634z"/>
	<path fill="#1E100D" d="M16.399,29.66h-0.225c1.274,0,2.55-0.001,3.825,0.007c0.7,0.004,1.404,0.051,2.102-0.06
		c-1.845,0-3.69,0.024-5.536,0.025C16.509,29.641,16.453,29.66,16.399,29.66z M16.565,29.66h-0.166H16.565z M29.596,40.182
		c-0.242-0.138-0.508-0.082-0.762-0.074c-1.123,0.033-2.25-0.098-3.371,0.072C26.84,40.145,28.219,40.146,29.596,40.182z"/>
	<path fill="#1E100D" d="M28.279,40.216c0.439-0.007,0.877-0.018,1.317-0.034c-1.377-0.035-2.756-0.036-4.134-0.002
		c0.436,0.02,0.871,0.029,1.306,0.036H28.279z M28.279,40.216h-1.511C27.272,40.225,27.776,40.225,28.279,40.216z M12.922,40.184
		c-0.712-0.173-1.436-0.065-2.152-0.069c-0.549-0.005-1.107-0.109-1.648,0.079C10.388,40.131,11.655,40.146,12.922,40.184z"/>
	<path fill="#1E100D" d="M9.121,40.191c1.267-0.004,2.534-0.006,3.801-0.008C11.655,40.137,10.387,40.14,9.121,40.191z
		 M42.803,28.744c0.168,0.137,0.049,0.355,0.049,0.52c0.012,3.514,0.01,7.029,0.01,10.543v0.188h0.054
		c0.001-3.69,0.011-7.381-0.007-11.07c-0.01-0.52-0.084-1.036-0.223-1.538c-0.086-0.332-0.097,0.104-0.184,0.057
		c0.141,0.191,0.193,0.407,0.191,0.64C42.829,28.277,42.771,28.522,42.803,28.744L42.803,28.744z"/>
	<path fill="#1E100D" d="M42.501,27.551c-0.008-0.016-0.017-0.031-0.024-0.047c-0.056,0.177,0.135,0.31,0.123,0.479
		c0.017,0.012,0.023,0.023,0.037,0.036C42.604,27.86,42.558,27.704,42.501,27.551z"/>
	<path fill="#1E100D" d="M42.637,28.02c0.021,0.02,0.039,0.041,0.057,0.063c0.01-0.229-0.058-0.454-0.19-0.64
		c-0.012,0.019-0.021,0.04-0.024,0.061c0.008,0.016,0.018,0.031,0.024,0.047C42.559,27.705,42.602,27.861,42.637,28.02z
		 M42.74,28.708c0.021,0.011,0.047,0.023,0.063,0.036c-0.029-0.222,0.026-0.467-0.109-0.661c0,0.017,0.002,0.032,0,0.048
		C42.717,28.323,42.73,28.515,42.74,28.708z M42.637,28.02c-0.013-0.013-0.021-0.024-0.035-0.036l0.105,0.706
		c0.01,0.004,0.016,0.009,0.023,0.013C42.716,28.473,42.685,28.245,42.637,28.02z"/>
	<path fill="#1E100D" d="M42.693,28.131c0.002-0.016-0.002-0.031,0-0.048c-0.018-0.022-0.037-0.043-0.057-0.063
		c0.049,0.225,0.075,0.452,0.092,0.683l0.012,0.006C42.731,28.516,42.716,28.323,42.693,28.131z M42.859,39.807
		c0-3.514,0.004-7.029-0.008-10.543c0-0.162,0.141-0.383-0.029-0.52c0.002,0.005,0.021,0.009,0.021,0.013v0.186
		c0,0.12-0.015,0.241-0.021,0.362c0,0.678-0.01,1.354-0.01,2.031c0.002,2.753,0.017,5.507,0.018,8.262
		c0.005,0.071,0.013,0.146,0.013,0.215v0.185h0.032C42.878,39.934,42.859,39.869,42.859,39.807z M42.803,28.744
		c-0.02-0.015-0.041-0.027-0.063-0.036v0.038c0.032,0.061,0.055,0.127,0.064,0.196v-0.186
		C42.805,28.752,42.805,28.748,42.803,28.744z M42.803,29.395c0,0.647,0,1.295,0.002,1.941c-0.002-0.677,0-1.354,0-2.031
		C42.803,29.335,42.803,29.364,42.803,29.395z"/>
	<path fill="#1E100D" d="M42.729,28.702c-0.008-0.004-0.013-0.009-0.021-0.013c0.01,0.013,0.018,0.027,0.023,0.041L42.729,28.702z"
		/>
	<path fill="#1E100D" d="M42.729,28.702c0.002,0.009,0.002,0.019,0.002,0.028l0.011,0.016v-0.038L42.729,28.702z M42.857,40.122
		c-0.004,0.006-0.008,0.011-0.01,0.017c0.014,0.002,0.027,0.003,0.041,0.002l-0.031-0.037V40.122z M46.57,40.175
		c0-0.002,0-0.003-0.002-0.004l0.014-0.021c-0.047,0.008-0.096,0.014-0.143,0.021L46.57,40.175z M42.859,40.032
		c0,0.022,0,0.047-0.002,0.069l0.031,0.037c1.182,0.049,2.365-0.007,3.551,0.031c0.047-0.009,0.096-0.016,0.143-0.021
		c0.009-0.015,0.02-0.027,0.027-0.043c-0.906,0-1.814,0.009-2.721-0.01c-0.326-0.007-0.668,0.1-0.977-0.103h-0.001
		C42.896,40.021,42.876,40.034,42.859,40.032z M46.613,40.141l-0.002-0.012C46.602,40.137,46.609,40.139,46.613,40.141z"/>
	<path fill="#1E100D" d="M46.583,40.148c-0.003,0.007-0.008,0.014-0.013,0.021l0.002,0.004h0.046l-0.005-0.03
		c-0.009,0.001-0.018,0.003-0.025,0.006H46.583L46.583,40.148z"/>
	<path fill="#1E100D" d="M46.583,40.148h0.004l0.026-0.006v-0.002c-0.004-0.002-0.012-0.005-0.002-0.013l-0.002-0.021
		C46.602,40.121,46.593,40.135,46.583,40.148z M42.857,40.122v-0.021c-0.006-0.01-0.012-0.017-0.021-0.021
		c-0.011-0.021-0.021-0.043-0.028-0.066c0,0.041-0.002,0.084-0.004,0.125h0.043C42.852,40.133,42.854,40.128,42.857,40.122z"/>
	<path fill="#1E100D" d="M42.857,40.104c0.002-0.022,0.002-0.047,0.002-0.069c-0.018,0-0.033-0.015-0.049-0.037
		c0,0,0,0.013-0.002,0.021l0.028,0.064C42.846,40.086,42.852,40.094,42.857,40.104z M42.889,40.141c-0.014,0-0.027,0-0.041-0.002
		c0,0.002-0.002,0.002-0.002,0.002c0.016,0.004,0.033,0.006,0.049,0.006L42.889,40.141z M46.439,40.172
		c-0.025,0.005-0.053,0.008-0.078,0.014c0.07-0.004,0.14-0.006,0.211-0.009c0,0,0-0.002-0.002-0.002
		C46.527,40.173,46.482,40.173,46.439,40.172z"/>
	<path fill="#1E100D" d="M42.889,40.141l0.006,0.006c0.264,0.029,0.523,0.052,0.785,0.063c0.486-0.017,0.973,0.006,1.459,0.013
		c0.408-0.009,0.814-0.021,1.223-0.037l0.078-0.013C45.256,40.134,44.07,40.188,42.889,40.141z M46.572,40.177l0.045-0.002H46.57
		C46.572,40.175,46.572,40.177,46.572,40.177z M42.805,40.139l0.041,0.004l0.002-0.004H42.805z"/>
	<path fill="#1E100D" d="M45.139,40.223c-0.486-0.008-0.973-0.029-1.459-0.014C44.166,40.232,44.652,40.232,45.139,40.223z
		 M42.859,40.032c0.017,0.002,0.035-0.011,0.054-0.037h-0.054V40.032z"/>
	<path fill="#1E100D" d="M42.811,39.995c0.018,0.024,0.033,0.037,0.049,0.037l0.002-0.037H42.811z M36.3,40.117
		c-0.011,0.003-0.022,0.001-0.034-0.001c0,0,0,0.003-0.002,0.004c-0.02,0.021-0.039,0.034-0.061,0.051h0.07L36.3,40.117z"/>
	<path fill="#1E100D" d="M36.203,40.171c0.021-0.017,0.041-0.03,0.061-0.051l0.002-0.002c-0.021-0.005-0.044-0.012-0.064-0.022
		c-0.646,0.004-1.293-0.013-1.938,0.014c-0.584,0.021-1.177-0.109-1.752,0.084C33.74,40.127,34.973,40.161,36.203,40.171
		L36.203,40.171z M36.3,40.117l0.005-0.01l-0.031-0.004l-0.008,0.013C36.277,40.119,36.289,40.119,36.3,40.117z"/>
	<path fill="#1E100D" d="M36.273,40.104c-0.026-0.004-0.051-0.006-0.074-0.008c0.02,0.012,0.043,0.019,0.066,0.021
		C36.27,40.111,36.271,40.107,36.273,40.104z M36.3,40.117c-0.009,0.019-0.017,0.035-0.024,0.054h0.041
		c-0.004-0.019-0.008-0.036-0.01-0.056L36.3,40.117z M36.305,40.107l-0.005,0.01l0.007-0.002l-0.002-0.006V40.107z M36.273,40.171
		h-0.07l-0.008,0.006l0.078-0.004V40.171z"/>
	<path fill="#1E100D" d="M36.195,40.177l0.008-0.006c-1.23-0.01-2.463-0.044-3.693,0.021C33.738,40.216,34.967,40.25,36.195,40.177z
		 M36.273,40.173l0.043-0.002h-0.043V40.173z"/>
</g>
</svg>
